<svg id="social_twitter" xmlns="http://www.w3.org/2000/svg" width="70.94" height="70.94" viewBox="0 0 70.94 70.94">
  <rect id="Rectangle_186" data-name="Rectangle 186" width="70.94" height="70.94" rx="13" fill="#f6be67" opacity="0.22"/>
  <g id="twitter_1_" data-name="twitter (1)" transform="translate(16.915 18.645)">
    <g id="Group_465" data-name="Group 465" transform="translate(0 0)">
      <path id="Path_13707" data-name="Path 13707" d="M37.47,52.113A14.5,14.5,0,0,1,33.044,53.5a8.609,8.609,0,0,0,3.379-4.845,14.258,14.258,0,0,1-4.871,2.122A7.291,7.291,0,0,0,25.941,48c-4.253,0-7.677,3.939-7.677,8.768a10.256,10.256,0,0,0,.178,2A20.992,20.992,0,0,1,2.609,49.6a9.8,9.8,0,0,0-1.052,4.431,9.161,9.161,0,0,0,3.412,7.285A6.883,6.883,0,0,1,1.5,60.235v.1c0,4.26,2.663,7.8,6.155,8.613a6.776,6.776,0,0,1-2.014.289,5.979,5.979,0,0,1-1.454-.15c1,3.472,3.82,6.024,7.178,6.107a14.271,14.271,0,0,1-9.525,3.739A12.63,12.63,0,0,1,0,78.808a19.735,19.735,0,0,0,11.784,3.934c14.136,0,21.864-13.362,21.864-24.945,0-.388-.012-.762-.028-1.133A16.694,16.694,0,0,0,37.47,52.113Z" transform="translate(0 -48)" fill="#f6be67"/>
    </g>
  </g>
</svg>
