<svg xmlns="http://www.w3.org/2000/svg" width="181.797" height="181.797" viewBox="0 0 181.797 181.797">
  <g id="Benefits_4" transform="translate(-199.102 -999.102)">
    <rect id="Rectangle_4097" data-name="Rectangle 4097" width="128.55" height="128.55" rx="47" transform="translate(290 999.102) rotate(45)" fill="#fdfaf5"/>
    <g id="Location" transform="translate(263 1060.073)">
      <path id="Path_16378" data-name="Path 16378" d="M29.75,6.4C17.3,6.4,6.806,15.438,7.662,26.7a29.971,29.971,0,0,0,.556,4.136c1.26,5.628,5.216,11.219,9.672,15.965A86.112,86.112,0,0,0,29.441,56.941a.5.5,0,0,0,.619,0A86.128,86.128,0,0,0,41.611,46.8c4.455-4.746,8.411-10.337,9.671-15.965a29.916,29.916,0,0,0,.556-4.136C52.694,15.438,42.2,6.4,29.75,6.4ZM3.063,27.016C1.972,12.65,15.253,2,29.75,2S57.528,12.65,56.438,27.016a34.055,34.055,0,0,1-.646,4.737c-1.511,6.747-6.1,13.033-10.746,17.979a90.628,90.628,0,0,1-12.183,10.7,5.29,5.29,0,0,1-6.226,0,90.626,90.626,0,0,1-12.183-10.7C9.81,44.786,5.219,38.5,3.708,31.753A34.043,34.043,0,0,1,3.063,27.016Z" transform="translate(-2.999 -2)" fill="#e6ba7c" fill-rule="evenodd"/>
      <path id="Path_16379" data-name="Path 16379" d="M17.609,12.315a3.756,3.756,0,0,0-3.842,3.664,3.847,3.847,0,0,0,7.684,0A3.756,3.756,0,0,0,17.609,12.315ZM9.156,15.979a8.264,8.264,0,0,1,8.453-8.061,8.264,8.264,0,0,1,8.453,8.061,8.264,8.264,0,0,1-8.453,8.061A8.264,8.264,0,0,1,9.156,15.979Z" transform="translate(9.142 9.671)" fill="#e6ba7c" fill-rule="evenodd"/>
    </g>
  </g>
</svg>
