<svg xmlns="http://www.w3.org/2000/svg" width="181.797" height="181.797" viewBox="0 0 181.797 181.797">
  <g id="Benefits_3" transform="translate(-538.082 -999.102)">
    <rect id="Rectangle_4096" data-name="Rectangle 4096" width="128.55" height="128.55" rx="47" transform="translate(628.98 999.102) rotate(45)" fill="#f4fbfc"/>
    <g id="Calendar" transform="translate(600 1060.073)">
      <path id="Path_16360" data-name="Path 16360" d="M12.944,16.972A2.972,2.972,0,1,1,9.972,14,2.972,2.972,0,0,1,12.944,16.972Z" transform="translate(7.119 20.924)" fill="#76c4d6"/>
      <path id="Path_16361" data-name="Path 16361" d="M12.944,12.972A2.972,2.972,0,1,1,9.972,10,2.972,2.972,0,0,1,12.944,12.972Z" transform="translate(7.119 13.035)" fill="#76c4d6"/>
      <path id="Path_16362" data-name="Path 16362" d="M16.944,16.972A2.972,2.972,0,1,1,13.972,14,2.972,2.972,0,0,1,16.944,16.972Z" transform="translate(15.008 20.924)" fill="#76c4d6"/>
      <path id="Path_16363" data-name="Path 16363" d="M16.944,12.972A2.972,2.972,0,1,1,13.972,10,2.972,2.972,0,0,1,16.944,12.972Z" transform="translate(15.008 13.035)" fill="#76c4d6"/>
      <path id="Path_16364" data-name="Path 16364" d="M20.944,12.972A2.972,2.972,0,1,1,17.972,10,2.972,2.972,0,0,1,20.944,12.972Z" transform="translate(22.897 13.035)" fill="#76c4d6"/>
      <path id="Path_16365" data-name="Path 16365" d="M31.229,7.708c-6.291,0-14.887.545-20.251.938a3.558,3.558,0,0,0-3.3,3.27c-.414,5.083-.97,13.007-.97,18.827s.556,13.745.97,18.827a3.558,3.558,0,0,0,3.3,3.27c5.365.393,13.96.938,20.251.938s14.887-.545,20.251-.938a3.558,3.558,0,0,0,3.3-3.27c.414-5.083.97-13.007.97-18.827S55.195,17,54.781,11.916a3.558,3.558,0,0,0-3.3-3.27C46.116,8.254,37.521,7.708,31.229,7.708ZM10.653,4.2c5.367-.393,14.107-.95,20.577-.95s15.21.557,20.577.95a8.016,8.016,0,0,1,7.418,7.355c.414,5.087.984,13.17.984,19.189s-.57,14.1-.984,19.189a8.016,8.016,0,0,1-7.418,7.355c-5.367.393-14.107.95-20.577.95s-15.21-.557-20.577-.95a8.016,8.016,0,0,1-7.418-7.355c-.414-5.087-.984-13.17-.984-19.189s.57-14.1.984-19.189A8.016,8.016,0,0,1,10.653,4.2Z" transform="translate(-2.249 -0.278)" fill="#76c4d6" fill-rule="evenodd"/>
      <path id="Path_16366" data-name="Path 16366" d="M10.479,2.25a2.229,2.229,0,0,1,2.229,2.229V11.91a2.229,2.229,0,0,1-4.458,0V4.479A2.229,2.229,0,0,1,10.479,2.25Z" transform="translate(9.584 -2.25)" fill="#76c4d6" fill-rule="evenodd"/>
      <path id="Path_16367" data-name="Path 16367" d="M16.479,2.25a2.229,2.229,0,0,1,2.229,2.229V11.91a2.229,2.229,0,0,1-4.458,0V4.479A2.229,2.229,0,0,1,16.479,2.25Z" transform="translate(21.417 -2.25)" fill="#76c4d6" fill-rule="evenodd"/>
    </g>
  </g>
</svg>
