<svg xmlns="http://www.w3.org/2000/svg" width="181.797" height="181.797" viewBox="0 0 181.797 181.797">
  <g id="Benefits_2" transform="translate(-877.102 -999.102)">
    <rect id="Rectangle_4095" data-name="Rectangle 4095" width="128.55" height="128.55" rx="47" transform="translate(968 999.102) rotate(45)" fill="#f2f2f9"/>
    <g id="Copy" transform="translate(943 1060.073)">
      <path id="Path_16376" data-name="Path 16376" d="M11.421,9.65A3.819,3.819,0,0,0,7.593,13.46V46.993a3.819,3.819,0,0,0,3.828,3.81h24.5a3.819,3.819,0,0,0,3.828-3.81V23.607a3.8,3.8,0,0,0-1.121-2.694L28.434,10.766A3.836,3.836,0,0,0,25.727,9.65ZM3,13.46a8.4,8.4,0,0,1,8.421-8.383H25.727a8.44,8.44,0,0,1,5.955,2.455L41.875,17.679a8.364,8.364,0,0,1,2.467,5.928V46.993a8.4,8.4,0,0,1-8.421,8.383h-24.5A8.4,8.4,0,0,1,3,46.993Z" transform="translate(-3 4.068)" fill="#5f61b2" fill-rule="evenodd"/>
      <path id="Path_16377" data-name="Path 16377" d="M7.121,4.286A2.292,2.292,0,0,1,9.418,2H22.193a8.441,8.441,0,0,1,5.955,2.455L42.933,19.175A8.364,8.364,0,0,1,45.4,25.1V46.965a2.3,2.3,0,0,1-4.594,0V25.1a3.8,3.8,0,0,0-1.121-2.694L24.9,7.689a3.837,3.837,0,0,0-2.707-1.116H9.418A2.292,2.292,0,0,1,7.121,4.286Z" transform="translate(5.128 -2)" fill="#5f61b2" fill-rule="evenodd"/>
    </g>
  </g>
</svg>
