<svg xmlns="http://www.w3.org/2000/svg" width="189" height="189" viewBox="0 0 189 189">
  <g id="Group_2699" data-name="Group 2699" transform="translate(-1061 -292)">
    <circle id="Ellipse_247" data-name="Ellipse 247" cx="94.5" cy="94.5" r="94.5" transform="translate(1061 292)" fill="#fbfbfb"/>
    <g id="doubt" transform="translate(1112 343)">
      <path id="Path_1956" data-name="Path 1956" d="M22.4,18.1a4.07,4.07,0,0,1,2.7-1.038h1.635v.022a9.223,9.223,0,0,1,3.842-5.5s8.216,5.477,15.062,5.477h1.369a4.076,4.076,0,0,1,2.718,1.049h.021l1.171-4.363a6.652,6.652,0,0,0-4.179-7.864L37.74,2.609A10.129,10.129,0,0,0,26.177,6.05L25.108,7.477A4.108,4.108,0,0,0,21,11.585,23.894,23.894,0,0,0,22.369,18.1Z" transform="translate(7.386)" fill="#37519b"/>
      <path id="Path_1959" data-name="Path 1959" d="M81.789,40.938H76.112a5.447,5.447,0,0,0-4.9,3.028L68.294,49.8l-1.758-4.834a15.15,15.15,0,0,0-11.2-9.622l-5.292-1.058-.809-3.236a10.979,10.979,0,0,0,4.808-6.545H54.4a5.477,5.477,0,1,0,0-10.954H53.033c-6.344,0-14.224-5.2-14.3-5.249L37.971,7.8l-.759.507a10.565,10.565,0,0,0-4.089,5.247h-.63a5.477,5.477,0,0,0,0,10.954h.36a10.974,10.974,0,0,0,4.808,6.545l-.809,3.236L31.56,35.346a15.15,15.15,0,0,0-11.2,9.622L18.6,49.8l-2.918-5.836a5.444,5.444,0,0,0-4.9-3.028H5.108a4.108,4.108,0,1,0,0,8.216H8.4l6.148,11.271a7.272,7.272,0,0,0,12.588.315l.954-1.435c.17,2.559.293,5.232.293,7.65a85.454,85.454,0,0,1-1.342,14.794l-.327,1.638H60.18l-.327-1.638a85.455,85.455,0,0,1-1.342-14.794c0-2.42.123-5.092.294-7.653l.92,1.384a7.272,7.272,0,0,0,12.621-.262l6.148-11.271h3.295a4.108,4.108,0,1,0,0-8.216ZM29.755,19.029a2.741,2.741,0,0,1,2.739-2.739h.051c-.021.275-.051.549-.051.828v4.649A2.741,2.741,0,0,1,29.755,19.029ZM50.114,37.094l-.867,5.726-3.59-2.155,3.719-3.719ZM41.9,49.154H45l2.5,17.478L43.448,72.7,39.4,66.63Zm3.284-2.739H41.716l-.748-2.392,2.48-1.488,2.48,1.487ZM57.141,19.029A2.741,2.741,0,0,1,54.4,21.768V16.29A2.741,2.741,0,0,1,57.141,19.029ZM35.233,21.768V17.119a7.839,7.839,0,0,1,2.8-6.015c2.139,1.308,8.045,4.625,13.629,5.123v5.542a8.216,8.216,0,1,1-16.432,0Zm8.216,10.954a10.947,10.947,0,0,0,3.258-.494l.7,2.814L43.448,39l-3.96-3.96.7-2.814A10.931,10.931,0,0,0,43.448,32.722Zm-5.928,4.226,3.719,3.719-3.59,2.155L36.783,37.1Zm-12.7,22.329a4.534,4.534,0,0,1-7.868-.163L10.807,47.843a2.737,2.737,0,0,0-2.4-1.428H5.108a1.369,1.369,0,0,1,0-2.739h5.677a2.726,2.726,0,0,1,2.45,1.513l5.711,11.423,2.45-1.226-1.106-2.211.327-.9L27.265,55.6ZM43.448,80.648H30.017a88.929,88.929,0,0,0,1.108-13.693,191.834,191.834,0,0,0-1.38-19.34l-2.717.34c.005.045.241,1.951.513,4.723l-5.982-2.991L22.933,45.9A12.4,12.4,0,0,1,32.1,38.031l2-.4,1.461,9.639,3-1.8L39.31,47.9,36.542,67.278l6.907,10.361,6.907-10.36L47.586,47.9l.757-2.425,3,1.8L52.8,37.634l2,.4a12.394,12.394,0,0,1,9.165,7.873l1.375,3.782-5.982,2.991c.272-2.771.508-4.678.513-4.723l-2.717-.34a191.754,191.754,0,0,0-1.38,19.339A88.93,88.93,0,0,0,56.88,80.648Zm38.34-34.233H78.494a2.737,2.737,0,0,0-2.4,1.428L69.942,59.114a4.531,4.531,0,0,1-3.981,2.363,4.591,4.591,0,0,1-3.922-2.254L59.632,55.6l6.648-3.323.327.9L65.5,55.388l2.45,1.226,5.711-11.423a2.725,2.725,0,0,1,2.45-1.514h5.677a1.369,1.369,0,1,1,0,2.739Z" transform="translate(0 2.141)"/>
    </g>
  </g>
</svg>
