<svg xmlns="http://www.w3.org/2000/svg" width="25.716" height="26.895" viewBox="0 0 25.716 26.895">
  <g id="filter" transform="translate(-140.746 535)" fill="none" stroke-linejoin="round">
    <path d="M157.718-522.605l4.984-4.983A2.584,2.584,0,0,0,160.874-532H146.333a2.584,2.584,0,0,0-1.827,4.411l4.984,4.983a1.469,1.469,0,0,1,.43,1.038v8.73a1.728,1.728,0,0,0,2.949,1.222l3.913-3.913a1.728,1.728,0,0,0,.506-1.222v-4.817A1.469,1.469,0,0,1,157.718-522.605Z" stroke="none"/>
    <path d="M 146.3325500488281 -532 C 144.0303344726562 -532 142.8773651123047 -529.2164306640625 144.5053405761719 -527.5885009765625 L 149.4888763427734 -522.6050415039062 C 149.7642517089844 -522.32958984375 149.9189910888672 -521.9561157226562 149.9189910888672 -521.566650390625 L 149.9189910888672 -512.8364868164062 C 149.9189910888672 -511.2971801757812 151.780029296875 -510.5261840820312 152.8684539794922 -511.61474609375 L 156.7818450927734 -515.5281372070312 C 157.1058044433594 -515.8521118164062 157.287841796875 -516.29150390625 157.287841796875 -516.7496948242188 L 157.287841796875 -521.566650390625 C 157.287841796875 -521.9561157226562 157.4425964355469 -522.32958984375 157.7179718017578 -522.6050415039062 L 162.7014923095703 -527.5885009765625 C 164.3294677734375 -529.2164306640625 163.1764984130859 -532 160.8743133544922 -532 L 146.3325500488281 -532 M 146.3325500488281 -535 L 160.8743133544922 -535 C 163.1409149169922 -535 165.1659545898438 -533.6468505859375 166.0333404541016 -531.5527954101562 C 166.9007415771484 -529.4586791992188 166.4255676269531 -527.0698852539062 164.8227844238281 -525.4671630859375 L 160.287841796875 -520.9322509765625 L 160.287841796875 -516.7496948242188 C 160.287841796875 -515.4869995117188 159.7961120605469 -514.2998046875 158.9032287597656 -513.4068603515625 L 154.9897766113281 -509.493408203125 C 154.0946350097656 -508.5982666015625 152.9118194580078 -508.105224609375 151.6592559814453 -508.105224609375 C 150.4485168457031 -508.105224609375 149.2940216064453 -508.5607299804688 148.4084320068359 -509.3878173828125 C 147.4479522705078 -510.2847900390625 146.9189910888672 -511.5095825195312 146.9189910888672 -512.8364868164062 L 146.9189910888672 -520.9322509765625 L 142.384033203125 -525.4671630859375 C 140.7812652587891 -527.0698852539062 140.3060913085938 -529.4586181640625 141.1734771728516 -531.552734375 C 142.0408782958984 -533.6468505859375 144.0659332275391 -535 146.3325500488281 -535 Z" stroke="none" fill="#fff"/>
  </g>
</svg>
