<svg xmlns="http://www.w3.org/2000/svg" width="469.21" height="426.5" viewBox="0 0 469.21 426.5">
  <g id="Future-Education" transform="translate(-241 -92)">
    <g id="Shape" transform="translate(241 92)">
      <path id="Path_15654" data-name="Path 15654" d="M653.634,25.087l-15.752-9.095-15.753,9.095V43.276l15.753,9.095,15.752-9.095Zm-15.752-7.155,14.073,8.125V42.306l-14.073,8.125-14.073-8.125V26.056Z" transform="translate(-360.841 -9.275)" fill="#f0decf"/>
      <path id="Path_15655" data-name="Path 15655" d="M601.688,11.056a1.89,1.89,0,0,1,1.977,3.22l-.08.049L570.362,33.6a1.89,1.89,0,0,1-2.216-.233l-.069-.065L553.549,18.776l-42.3,21.481a1.89,1.89,0,0,1-2.5-.746l-.044-.083a1.89,1.89,0,0,1,.746-2.5l.083-.045,43.526-22.1a1.89,1.89,0,0,1,2.124.284l.068.065L569.721,29.6Z" transform="translate(-294.935 -6.264)" fill="#e9525b"/>
      <path id="Path_15656" data-name="Path 15656" d="M708.773,1.562a1.89,1.89,0,0,1,2.1-1.546l.088.013L722.13,2a1.89,1.89,0,0,1,1.546,2.1l-.013.088-1.969,11.167a1.89,1.89,0,0,1-3.736-.568l.013-.088,1.641-9.306-9.306-1.641a1.89,1.89,0,0,1-1.547-2.1Z" transform="translate(-411.079 0)" fill="#e9525b"/>
      <path id="Path_15657" data-name="Path 15657" d="M147.206,252.5A147.206,147.206,0,1,0,294.413,399.707,147.206,147.206,0,0,0,147.206,252.5Zm0,1.68A145.526,145.526,0,1,1,1.68,399.707,145.526,145.526,0,0,1,147.206,254.181Z" transform="translate(0 -146.453)" fill="#f0decf"/>
      <path id="Path_15658" data-name="Path 15658" d="M745.655,623.5V759.158H526V624.341h1.68V757.478H743.975v-132.3H694.159V623.5Z" transform="translate(-305.086 -361.637)" fill="#f0decf"/>
      <path id="Path_15659" data-name="Path 15659" d="M545.024,230.144,685.057,274.9,633.351,366.46,495.457,322.189Z" transform="translate(-287.37 -133.486)" fill="#6f97f8"/>
      <path id="Path_15660" data-name="Path 15660" d="M560.2,247.643l-43.69,81.131L642.7,369.285l45.578-80.713Z" transform="translate(-299.584 -143.636)" fill="#4757a4"/>
      <path id="Path_15661" data-name="Path 15661" d="M591.377,351.242a1.05,1.05,0,0,1,1.274-.661l.066.021,109.649,38.716a1.05,1.05,0,0,1-.633,2l-.066-.021L592.017,352.582A1.05,1.05,0,0,1,591.377,351.242Z" transform="translate(-342.97 -203.318)" fill="#fff"/>
      <path id="Path_15662" data-name="Path 15662" d="M752.359,315.105a1.05,1.05,0,0,1,1.93.824l-.028.066-33.14,70.774a1.05,1.05,0,0,1-1.93-.824l.029-.066Z" transform="translate(-417.097 -182.413)" fill="#fff"/>
      <path id="Path_15663" data-name="Path 15663" d="M796.385,335.581a1.05,1.05,0,0,1,1.909.873l-.03.065-33.957,67.968a1.05,1.05,0,0,1-1.908-.873l.03-.065Z" transform="translate(-442.152 -194.303)" fill="#fff"/>
      <path id="Path_15664" data-name="Path 15664" d="M835.383,351.126a1.05,1.05,0,0,1,1.912.866l-.03.066-33.024,66.667a1.05,1.05,0,0,1-1.911-.866l.03-.066Z" transform="translate(-465.314 -203.318)" fill="#fff"/>
      <path id="Path_15665" data-name="Path 15665" d="M634.832,309c.1.035.192.075.286.118a3.65,3.65,0,0,1,1.763,1.679l.083.182a3.153,3.153,0,0,1,.168.525,4.633,4.633,0,0,1-2.022,4.572,7.2,7.2,0,0,1-1.292.729l4.815,1.5a.92.92,0,0,1-.592,1.74l-7.666-2.388a.91.91,0,0,1-.6-.9.926.926,0,0,1,.712-.862l.632-.149a8.394,8.394,0,0,0,2.939-1.168,2.821,2.821,0,0,0,1.294-2.658,1.72,1.72,0,0,0-1-1.131c-.051-.024-.1-.045-.154-.063a1.786,1.786,0,0,0-1.029-.075l-.161.567a.916.916,0,0,1-1.125.638l-.1-.034-.037-.016a.909.909,0,0,1-.49-1.081l.285-1.006a.928.928,0,0,1,.449-.562A3.478,3.478,0,0,1,634.832,309ZM617.2,290.957a.947.947,0,0,1,.318.194l.127.176.036-.005a.934.934,0,0,1,.9.958l-.367,10.034a.9.9,0,0,1,.346,1.091.889.889,0,0,1-.4.431l-.083,2.262-.011.115-.025.11a.914.914,0,0,1-.926.646.943.943,0,0,1-.832-.591.914.914,0,0,1-.063-.366l.093-2.547-6.595-2.73-1.866,1.966a.941.941,0,0,1-1.313.036.908.908,0,0,1-.05-1.295l9.72-10.254A.931.931,0,0,1,617.2,290.957Zm34.109,10.627a.93.93,0,0,1,.425,1.1l-1.934,5.949a4.492,4.492,0,0,1,3.465-.289,3.548,3.548,0,0,1,1,.563,3.411,3.411,0,0,1,1.176,1.862l.045.206a4.034,4.034,0,0,1,.069.912,4.379,4.379,0,0,1-1.843,3.441,4.8,4.8,0,0,1-1.192.583l-.356-.137c.12.047.238.093.356.137a6.222,6.222,0,0,1-4.055-.144,7.461,7.461,0,0,1-.98-.44.931.931,0,0,1-.9.182l-.033-.011a.932.932,0,0,1-.6-.728.913.913,0,0,1,.032-.422l3.978-12.24a.915.915,0,0,1,.3-.43Q650.786,301.634,651.307,301.584Zm10.308,12.6a2.086,2.086,0,0,0-.8-2.265l-.123-.053a2.011,2.011,0,0,0-2.016.741,7.568,7.568,0,0,0-1.257,2.721.92.92,0,0,1-1.141.6l-.019-.007a.934.934,0,0,1-.619-1.115l2.6-9.64a.919.919,0,0,1,1.133-.643l.087.027a.919.919,0,0,1,.569,1.1l-1.248,4.631a3.4,3.4,0,0,1,2.561-.132,3.813,3.813,0,0,1,2.081,4.452c-.036.157-.078.311-.128.461a7.757,7.757,0,0,1-1.283,2.279.915.915,0,0,1-.783,1.631l-1.045-.306-.057-.019a.928.928,0,0,1-.573-.6.906.906,0,0,1,.18-.857c.339-.393.7-.81,1.014-1.248A4.968,4.968,0,0,0,661.615,314.183Zm-9.039-4.539a2.958,2.958,0,0,0-2.858.865,5.235,5.235,0,0,0-.667.841l-.143.232a10.423,10.423,0,0,0-.73,1.57l.516-.032a.89.89,0,0,1,.36.051.915.915,0,0,1,.59.769,3.623,3.623,0,0,0,2.892-.473,2.751,2.751,0,0,0,1.06-2.062l0-.162,0-.091h0l-.011-.146a1.622,1.622,0,0,0-.551-1.1A1.558,1.558,0,0,0,652.575,309.644Zm-26.1-5.925a.845.845,0,1,1-.575,1.578l-4.152-1.511a.845.845,0,1,1,.575-1.578Zm-9.848-10.288-5.541,6.2,5.042,2.11Zm16.312,9.065.037.015,10.272,4.468a.917.917,0,0,1-.679,1.7l-.054-.021-10.271-4.468a.917.917,0,0,1,.7-1.7Zm-6.073-2.21a.886.886,0,0,1-.539,1.688l-3.509-.93-.083-.026a.908.908,0,0,1-.587-1.069.9.9,0,0,1,1.112-.622l3.506.929A1.026,1.026,0,0,1,626.865,300.286Zm13.961-8.327a.952.952,0,0,1,.639,1.131l-2.59,8.771a.928.928,0,0,1-1.188.574l-.054-.018a.944.944,0,0,1-.625-1.128l2.589-8.771a.929.929,0,0,1,1.188-.574Zm10.095,9.713a.6.6,0,0,1,.08.035q-.462.05-.928.094a.82.82,0,0,1,.67-.178l.1.026A.61.61,0,0,1,650.921,301.672Z" transform="translate(-351.623 -168.725)" fill="#fff" fill-rule="evenodd"/>
      <path id="Path_15666" data-name="Path 15666" d="M850.643,462.608a81.882,81.882,0,0,0-3.118-19.555q-2.713-9.382-1.459-15.216.565-4.927,2.09-5.855c1.525-.929,5.918,5.056,6.758,11.743l1.526,4.87,2.764-4.87,10.042-17.406q5.853,18.933,6.368,26.735c.252,3.834-2.875,14.669-2.875,16.7q0,9.222-1.891,14.695Z" transform="translate(-490.497 -241.469)" fill="#f6a388" fill-rule="evenodd"/>
      <path id="Path_15667" data-name="Path 15667" d="M900.1,524.46l-.089.531-.087.541a34.638,34.638,0,0,0-.5,5.135c0,3.542,1.44,6.564,4.3,7.23,2.037.473,3.175-2.1,3.684-6.123.427-3.375.24-6.917-.563-8.412a3.614,3.614,0,0,0-6.745,1.1Zm3.889-1.294a1.933,1.933,0,0,1,1.376.991c.579,1.077.756,4.224.4,7.223l-.023.183c-.374,2.955-1.192,4.8-1.638,4.7-1.91-.444-3-2.74-3-5.593a35.378,35.378,0,0,1,.568-5.4l.089-.525A1.933,1.933,0,0,1,903.992,523.166Z" transform="translate(-521.674 -302.451)" fill="#fff"/>
      <path id="Path_15668" data-name="Path 15668" d="M876.307,528.658q-8.653.44-13.687-1.685l-3.27,6.967,10.74,2.25,7.1-1.993.436-4.15a1.258,1.258,0,0,0-1.317-1.39Z" transform="translate(-498.432 -305.65)" fill="#2e363a" fill-rule="evenodd"/>
      <path id="Path_15669" data-name="Path 15669" d="M483.692,371.943q15.651-9.147,15.65-11.692t-2.9-3.932H490L500.573,337.5q-32.415,12.412-34.566,17.221A16.2,16.2,0,0,1,460,362l18.674,18.409Z" transform="translate(-266.805 -195.754)" fill="#e49378" fill-rule="evenodd"/>
      <path id="Path_15670" data-name="Path 15670" d="M458.029,389.955l3,2.964-8.136,28.42L418,416.912V374.229l13-5.728,8.352,3.045Z" transform="translate(-242.444 -213.735)" fill="#d19c49" fill-rule="evenodd"/>
      <path id="Path_15671" data-name="Path 15671" d="M311.977,363.274,336.7,472.042l.019,2.367q.5,57.092,5.069,84.587l.184,1.085q1.205,6.987,3.751,18.519a15.54,15.54,0,0,1-6.789,16.434q-31.009,19.873-80.6,19.749-49.732-.132-77.262-25.877l-.554-.523a15.54,15.54,0,0,1-3.932-16.437l1.061-2.9h0q18.554-51.019,15.625-62.006c-3.248-12.183-27.864-83.01-27.864-113.389q0-30.379,20.924-58.307,24.687-13.229,54.194-9.762T311.977,363.274Z" transform="translate(-95.941 -188.425)" fill="#f6be67" fill-rule="evenodd"/>
      <path id="Path_15672" data-name="Path 15672" d="M213.671,339.435q6.433-19.887,22.872-23.71t18.1,3.045l-8.464.9q-11.558,9.013-12.692,24.934l-15.269,1.446Z" transform="translate(-123.931 -182.33)" fill="#717569" fill-rule="evenodd"/>
      <path id="Path_15673" data-name="Path 15673" d="M215.1,364.729l19.061,3.954a42.662,42.662,0,0,0-.671,5.133l-15.269,1.446-4.551-6.611Q214.333,366.605,215.1,364.729Z" transform="translate(-123.931 -211.547)" fill="#626658" fill-rule="evenodd"/>
      <path id="Path_15674" data-name="Path 15674" d="M244.078,738.035l64.468,28.919q1.952,28.71-9.516,40.516c-10.629,10.941-47.964,24.307-101.067-2.743v0l.672-1.885q16.278-45.811,13.521-56.153l-.134-.493q-.1-.348-.21-.745h0Q225.839,741.585,244.078,738.035Z" transform="translate(-114.821 -428.068)" fill="#d19c49" fill-rule="evenodd"/>
      <path id="Path_15675" data-name="Path 15675" d="M506.569,544.638l17.282,26.07,6.548,28.8q-.659,15.441-.273,30.486-45.188-76.857-23.993-85.2Z" transform="translate(-289.638 -315.896)" fill="#d19c49" fill-rule="evenodd"/>
      <path id="Path_15676" data-name="Path 15676" d="M269.074,453.514v113.2a33.178,33.178,0,0,1-4.551,16.77q-9.116,15.562-23.153,19.818c-24.771,7.509-68.336-1.013-105.151-27.384a38.57,38.57,0,0,1-7.213-23.914c.226-13.637,8.116-130.265,15.286-147.8q7.17-17.531,40.765,0Z" transform="translate(-74.821 -229.363)" fill="#717569" fill-rule="evenodd"/>
      <path id="Path_15677" data-name="Path 15677" d="M367.666,550.448V656.621a33.177,33.177,0,0,1-4.551,16.77Q354,688.953,339.963,693.208c-10.795,3.273-25.16,3.5-40.98.533l4.4-.958c2.892-.624,5.343-1.136,5.826-1.189l.1-.007q.973-.093,15.74-4.771a85.918,85.918,0,0,0,11.411-10.7q5.035-5.681,7.855-47.735l.114-1.732,7.152-76.2Z" transform="translate(-173.413 -319.266)" fill="#626658" fill-rule="evenodd"/>
      <path id="Path_15678" data-name="Path 15678" d="M444.7,127.024l-.342,3.909q-1.174,13.667-1.174,17.577c0,5.96,4.093,14.917,2.729,17.7q-1.365,2.778-6.784,2.213l-.251,1.151q-6.145,27.908-11.861,27.908-5.833,0-16.091-2.56l-3.687,13.8-7.953-2.434Q348.451,190.7,350.629,190.7q2.34,0,16.057-53.072l16.65-53.83h0l3.231.276c10.642.918,43.962,3.866,44.752,4.845l.046.061q.707.963,5.724,9.606l2.15,3.714A42,42,0,0,1,444.7,127.024Z" transform="translate(-203.316 -48.603)" fill="#f6a388" fill-rule="evenodd"/>
      <path id="Path_15679" data-name="Path 15679" d="M410.334,258.5q-.977,16.256,1.712,23.525t11.8,14.223l-2.005,7.615-39.366-14.569q-8.652-4.014-9.64-12.924T410.334,258.5Z" transform="translate(-216.233 -149.931)" fill="#e49378" fill-rule="evenodd"/>
      <path id="Path_15680" data-name="Path 15680" d="M537.5,298.257q-6.084-1.732-8.36-6.46-2.414-1.089-.957,1.819c.878,1.753,4.331,4.779,8.7,5.892Q537.349,299.627,537.5,298.257Z" transform="translate(-306.036 -169.074)" fill="#583e40" fill-rule="evenodd"/>
      <path id="Path_15681" data-name="Path 15681" d="M474.674,232.1a.84.84,0,0,1,1.047-.562c3.781,1.139,5.136,3.8,3.88,7.6a.84.84,0,1,1-1.6-.527c.961-2.908.1-4.6-2.77-5.466A.84.84,0,0,1,474.674,232.1Z" transform="translate(-275.295 -134.273)" fill="#583e40"/>
      <path id="Path_15682" data-name="Path 15682" d="M419.854,101.079q21.955-3.9,21.955-17.941c0-14.041-29.786-48.087-52.465-30.9q-32.157-2.51-48.01,24.325c-15.853,26.836,3.054,52.7,3.054,60.033v9.272h0a10.919,10.919,0,0,0,9.419,10.816l11.668,1.62a10.921,10.921,0,0,0,11.8-7.2l.054-.157q3.794-11.349,10.759-14.875-2.431-10.919,4.892-15.2c7.322-4.281,9.253,3.138,9.253,7.578q3.373-1.922,3.863-3.069l.045-.109q.5-1.246,1.712-5.729l2.014-2.075a42,42,0,0,0,8.721-13.315Z" transform="translate(-194.304 -27.551)" fill="#80424c" fill-rule="evenodd"/>
      <path id="Path_15683" data-name="Path 15683" d="M311.677,319.51q.166-8.912,7.827-8.912t60.7,19.5q19.5,9.039,16.611,24.9A358.606,358.606,0,0,1,347.8,339.14Q325.436,329.96,311.677,319.51Z" transform="translate(-180.776 -180.15)" fill="#f6be67" fill-rule="evenodd"/>
      <path id="Path_15684" data-name="Path 15684" d="M309.848,330.15a.84.84,0,0,1,1.177-.161q13.664,10.376,35.932,19.522a357.754,357.754,0,0,0,48.9,15.822.84.84,0,0,1-.408,1.63,359.429,359.429,0,0,1-49.129-15.9q-22.456-9.22-36.31-19.738A.84.84,0,0,1,309.848,330.15Z" transform="translate(-179.616 -191.298)" fill="#ca8e31"/>
      <path id="Path_15685" data-name="Path 15685" d="M511.04,416.318l1.465.49q35.589,11.975,41.736,22.036,6.272,10.266,39.185,80.768l4.1-4.2q48.251-49.474,53.4-52.079c5.37-2.714,32.1-.885,36.61,29l-69.03,77.725a42.676,42.676,0,0,1-66.562-3.43l-1.292-1.8q-31.06-43.427-35.742-60.752l-.094-.354c-1.716-6.639-5.165-14.568-5.911-25.223l-.043-.651Q507.853,461.6,511.04,416.318Z" transform="translate(-295.005 -241.469)" fill="#f6be67" fill-rule="evenodd"/>
      <path id="Path_15686" data-name="Path 15686" d="M395.82,421.046q23.083-17.035,41.846-14.2a81.978,81.978,0,0,1,35.44,14.641q-41.808-5.853-58.978,12.972l-16.649-6.612Z" transform="translate(-229.58 -235.74)" fill="#717569" fill-rule="evenodd"/>
      <path id="Path_15687" data-name="Path 15687" d="M400.637,433.193l19.446,11.51a37.453,37.453,0,0,0-5.955,5.271l-16.649-6.612-1.659-6.8Q398.252,434.768,400.637,433.193Z" transform="translate(-229.58 -251.257)" fill="#626658" fill-rule="evenodd"/>
      <path id="Path_15688" data-name="Path 15688" d="M431.215,440.878q25.678-17.669,55.706-11.784a.84.84,0,0,1-.324,1.648q-29.333-5.761-54.43,11.519a.84.84,0,0,1-.952-1.384Z" transform="translate(-249.898 -248.025)" fill="#2e363a"/>
      <path id="Path_15689" data-name="Path 15689" d="M767.649,625.947l-58.347,65.7A42.681,42.681,0,0,1,665.161,704.2l23.231-9.791a42,42,0,0,0,11.848-7.542Z" transform="translate(-385.8 -363.056)" fill="#d19c49" fill-rule="evenodd"/>
      <path id="Path_15690" data-name="Path 15690" d="M532.274,202.011a2.911,2.911,0,0,0,2.618,2.549c2.957.378,12.113-6.389,11.72-9.056q-.393-2.667-8.87,1.75l-4.09,1.95A2.52,2.52,0,0,0,532.274,202.011Z" transform="translate(-308.692 -112.812)" fill="#80424c" fill-rule="evenodd"/>
      <path id="Path_15691" data-name="Path 15691" d="M554.089,231.106c1.122-.02,2.006-1.514,1.974-3.338s-.967-3.287-2.089-3.267-2.006,1.514-1.974,3.338S552.967,231.126,554.089,231.106Z" transform="translate(-320.165 -130.213)" fill="#583e40" fill-rule="evenodd"/>
      <path id="Path_15692" data-name="Path 15692" d="M518.849,472.125c6.831-5.934,15.981-8.99,22.771-8.1a.84.84,0,0,1-.218,1.666c-6.294-.824-14.971,2.072-21.451,7.7-7.911,6.873-12,16.933-10.749,29.524q2.786,28.043,21.32,63.579a.84.84,0,0,1-1.49.777q-18.676-35.8-21.5-64.19C506.225,489.946,510.531,479.353,518.849,472.125Z" transform="translate(-294.24 -269.051)" fill="#ca8e31"/>
      <path id="Path_15693" data-name="Path 15693" d="M837.023,553.254a.84.84,0,0,1,1.083-.487,58.006,58.006,0,0,1,30.308,25.176.84.84,0,1,1-1.446.856,56.332,56.332,0,0,0-29.458-24.461A.84.84,0,0,1,837.023,553.254Z" transform="translate(-485.451 -320.579)" fill="#ca8e31"/>
      <path id="Path_15694" data-name="Path 15694" d="M148.737,363.523c1.094,0,48.554,8.436,69.378,16.835,21.372,8.62,45.229,20.361,58.186,32.36l-8.678,33.88c-24.493-14.293-47.625-27.206-68.974-36.685l-.955-.423c-20.288-8.959-52.321-17.217-53.133-17.614l-.311-.046.021-.1c-3.509-1.935-5.816-7.347-5.469-13.723C139.239,370.007,143.685,363.523,148.737,363.523Z" transform="translate(-80.488 -210.847)" fill="#717569" fill-rule="evenodd"/>
      <ellipse id="Ellipse_530" data-name="Ellipse 530" cx="10.67" cy="18.547" rx="10.67" ry="18.547" transform="translate(180.484 199.932)" fill="#717569"/>
      <path id="Path_15695" data-name="Path 15695" d="M147.577,361.523a.84.84,0,1,1,0,1.68c-4.51,0-8.681,6.081-9.094,13.688-.321,5.9,1.731,11.025,4.921,12.876l.115.065.133.074.119.058c.051.025.945.283,3.135.9l4.144,1.169c1.118.318,2.146.612,3.3.947l.471.136c8.326,2.412,16.173,4.842,23.59,7.38l1.137.391c6.4,2.214,12.082,4.385,16.9,6.493l1.378.609,1.14.509c18.65,8.357,38.921,19.3,67.917,36.218a.84.84,0,1,1-.847,1.451l-3.5-2.039c-27.093-15.74-46.43-26.11-64.253-34.1l-1.136-.507-.954-.423-.842-.368c-4.965-2.155-10.847-4.378-17.483-6.649-7.081-2.423-14.56-4.749-22.478-7.055l-2.513-.725c-2.815-.8-7.3-2.07-9.081-2.594l-.548-.164-1.159-.172.08-.394-.1-.067c-3.477-2.377-5.554-7.8-5.277-13.894l.011-.218C137.261,368.41,141.985,361.523,147.577,361.523Z" transform="translate(-79.328 -209.687)" fill="#2e363a"/>
      <path id="Path_15696" data-name="Path 15696" d="M439.245,474.041c6.481,0,11.509,8.741,11.509,19.387s-5.029,19.387-11.509,19.387a7.592,7.592,0,0,1-4.034-1.2.84.84,0,0,1,.887-1.427,5.916,5.916,0,0,0,3.148.95c5.3,0,9.829-7.866,9.829-17.707s-4.525-17.707-9.829-17.707-9.83,7.866-9.83,17.707a29.889,29.889,0,0,0,.788,6.912.84.84,0,0,1-1.634.391,31.56,31.56,0,0,1-.835-7.3C427.735,482.782,432.764,474.041,439.245,474.041Z" transform="translate(-248.091 -274.949)" fill="#2e363a"/>
      <path id="Path_15697" data-name="Path 15697" d="M444.858,487.955c4.26,0,7.445,6.124,7.445,13.543s-3.184,13.543-7.445,13.543a4.73,4.73,0,0,1-2.7-.885.84.84,0,1,1,.951-1.384,3.064,3.064,0,0,0,1.748.59c3.035,0,5.765-5.251,5.765-11.863s-2.73-11.863-5.765-11.863-5.765,5.251-5.765,11.863a22.347,22.347,0,0,0,.483,4.691.84.84,0,1,1-1.642.354,24.041,24.041,0,0,1-.521-5.045C437.413,494.079,440.6,487.955,444.858,487.955Z" transform="translate(-253.704 -283.019)" fill="#2e363a"/>
      <path id="Path_15698" data-name="Path 15698" d="M450.472,501.264a2.039,2.039,0,0,1,1.449.659.84.84,0,0,1-1.135,1.237l-.053-.049c-.126-.126-.21-.167-.261-.167-.216,0-.639.5-1.005,1.526a16.563,16.563,0,0,0,0,9.5c.366,1.025.789,1.526,1.005,1.526s.639-.5,1.005-1.526a14.756,14.756,0,0,0,.7-4.748,17.866,17.866,0,0,0-.184-2.6.84.84,0,0,1,1.662-.246,19.541,19.541,0,0,1,.2,2.849l0,.344c-.065,4.217-1.331,7.61-3.378,7.61-2.1,0-3.38-3.579-3.38-7.954S448.369,501.264,450.472,501.264Z" transform="translate(-259.318 -290.738)" fill="#2e363a"/>
      <path id="Path_15699" data-name="Path 15699" d="M245.751,512.862c4.267-6.3,7.428-15.874,9.263-28.749l.134-.958,14.577,4.62c-1.732,12.764-4.18,20.727-8.486,28.842l-.147.277q-.616,1.15-1.674,2.833a3.78,3.78,0,0,1-4.635,1.485l-7.432-3.05a3.567,3.567,0,0,1-1.6-5.3Z" transform="translate(-142.181 -280.235)" fill="#2e363a"/>
      <path id="Path_15700" data-name="Path 15700" d="M263.6,459.1l-1.742,10.012a2.941,2.941,0,0,0,2.044,3.317l12.726,3.857a2.94,2.94,0,0,0,3.667-1.961,2.986,2.986,0,0,0,.09-.392l1.749-11.022a2.94,2.94,0,0,0-2.276-3.333l-12.745-2.784a2.94,2.94,0,0,0-3.5,2.244l-.013.062Z" transform="translate(-151.858 -264.905)" fill="#fff" fill-rule="evenodd"/>
      <path id="Path_15701" data-name="Path 15701" d="M294.262,397.157c-4.268,6.3-7.428,15.874-9.263,28.749l-.133.958-14.792-3.694h0c1.731-12.757,4.387-21.623,8.694-29.755l.155-.29q.616-1.15,1.674-2.833a3.78,3.78,0,0,1,4.635-1.485l7.432,3.05a3.567,3.567,0,0,1,1.6,5.3Z" transform="translate(-156.646 -225.347)" fill="#2e363a"/>
      <path id="Path_15702" data-name="Path 15702" d="M268.67,479.041l-.54,3.15,13.689,3.676.818-3.358Z" transform="translate(-155.518 -277.849)" fill="#2e363a"/>
      <path id="Path_15703" data-name="Path 15703" d="M265.646,318.405a.84.84,0,1,1,.494,1.606c-7.235,2.229-12.381,9.946-15.363,23.278a.84.84,0,0,1-1.64-.367C252.238,329.063,257.716,320.848,265.646,318.405Z" transform="translate(-144.491 -184.657)" fill="#2e363a"/>
      <path id="Path_15704" data-name="Path 15704" d="M367.242,562.5a.84.84,0,0,1,.753.919l-1.781,17.91c-5.66,57-8.545,86.917-8.608,89.253v.068c0,3.043-1.894,8.877-5.4,13.836-5.275,7.471-13.543,12.688-25.241,14.5a.84.84,0,1,1-.257-1.66c11.243-1.738,19.111-6.7,24.126-13.8,3.252-4.606,5.032-10.006,5.086-12.741v-.126c0-2.01,3.445-37.576,10.4-107.4a.841.841,0,0,1,.856-.757Z" transform="translate(-189.083 -326.256)" fill="#2e363a"/>
      <path id="Path_15705" data-name="Path 15705" d="M455.491,829.832l.182,1.053q1.16,6.608,3.463,17.094l.19.862a15.54,15.54,0,0,1-6.792,16.435Q421.554,885.125,372.015,885q-5.652-.013-11.016-.361,49.069-15.294,64.609-27,18.344-13.813,26.02-67.141l.1,1.783A351.435,351.435,0,0,0,455.491,829.832Z" transform="translate(-209.383 -458.499)" fill="#d19c49" fill-rule="evenodd"/>
      <path id="Path_15706" data-name="Path 15706" d="M290,825.5l18.9,4.083-1.637,7.677L290,833.232Z" transform="translate(-168.203 -478.799)" fill="#2e363a" fill-rule="evenodd"/>
      <path id="Path_15707" data-name="Path 15707" d="M439.334,165.213q16.392-2.858,27.539,5.764a.84.84,0,1,1-1.03,1.327q-10.526-8.171-26.22-5.436a.84.84,0,1,1-.289-1.655Z" transform="translate(-254.415 -95.412)" fill="#fff"/>
      <path id="Path_15708" data-name="Path 15708" d="M438.84,198.517c5.386-6.32,14.225-8.35,26.407-6.167a.84.84,0,0,1-.3,1.654c-11.649-2.088-19.89-.195-24.832,5.6a.84.84,0,1,1-1.279-1.09Z" transform="translate(-254.415 -111.074)" fill="#fff"/>
      <path id="Path_15709" data-name="Path 15709" d="M565.062,494.481l.866,1.911a.84.84,0,0,0,1.53-.694l-.866-1.91a.84.84,0,1,0-1.53.693Zm3.131,6.885.873,1.91a.84.84,0,0,0,1.527-.7l-.873-1.909a.84.84,0,1,0-1.528.7Zm3.153,6.876.88,1.908a.84.84,0,1,0,1.525-.7l-.879-1.906a.84.84,0,1,0-1.526.7Zm3.172,6.856.889,1.908a.84.84,0,0,0,1.522-.71l-.888-1.907a.84.84,0,0,0-1.523.709Zm3.2,6.852.893,1.9a.84.84,0,0,0,1.52-.717l-.892-1.895a.84.84,0,1,0-1.52.715Zm3.234,6.837.905,1.9a.84.84,0,0,0,1.516-.724l-.9-1.9a.84.84,0,0,0-1.517.722Zm3.269,6.822.915,1.89a.84.84,0,1,0,1.512-.733l-.913-1.888a.84.84,0,0,0-1.513.73Zm3.314,6.809.928,1.886a.84.84,0,1,0,1.506-.743l-.927-1.883a.84.84,0,1,0-1.508.74Zm3.357,6.774.944,1.88a.84.84,0,0,0,1.5-.755l-.942-1.877a.84.84,0,0,0-1.5.752Zm3.422,6.755q.486.946.963,1.869a.84.84,0,0,0,1.492-.772l-.638-1.238-.322-.627a.84.84,0,1,0-1.495.767Zm3.494,6.713.661,1.245.327.614a.84.84,0,1,0,1.482-.792l-.654-1.228-.331-.624a.84.84,0,0,0-1.485.785Zm3.595,6.671.683,1.236.338.606a.84.84,0,1,0,1.467-.818l-.674-1.215-.341-.619a.84.84,0,0,0-1.472.81Zm3.727,6.6q.543.931,1.068,1.816a.84.84,0,0,0,1.444-.859l-.526-.89q-.265-.45-.535-.913a.84.84,0,1,0-1.452.845Zm3.939,6.493q.586.922,1.149,1.774a.84.84,0,1,0,1.4-.925q-.554-.84-1.134-1.751a.84.84,0,1,0-1.417.9Zm4.318,6.287q.687.9,1.327,1.675a.84.84,0,0,0,1.292-1.073q-.615-.742-1.281-1.617a.84.84,0,1,0-1.338,1.016Zm5.515,5.6a5.684,5.684,0,0,0,2.354.716.84.84,0,0,0,.152-1.673,4.015,4.015,0,0,1-1.667-.5.84.84,0,1,0-.839,1.455Zm8.049-.393q.948-.377,1.975-.88a.84.84,0,1,0-.738-1.509q-.972.476-1.859.829a.84.84,0,0,0,.622,1.561Zm6.822-3.655q.864-.556,1.77-1.176a.84.84,0,1,0-.948-1.386q-.887.607-1.73,1.149a.84.84,0,0,0,.909,1.413Zm6.2-4.4q.82-.628,1.667-1.3a.84.84,0,1,0-1.042-1.318q-.838.662-1.647,1.282a.84.84,0,0,0,1.021,1.334Zm5.921-4.78q.791-.668,1.6-1.367a.84.84,0,0,0-1.1-1.273q-.806.695-1.591,1.357a.84.84,0,0,0,1.084,1.283Zm5.72-5q.772-.695,1.56-1.415a.84.84,0,0,0-1.133-1.241q-.784.716-1.552,1.407a.84.84,0,0,0,1.124,1.249Zm5.573-5.141q.757-.714,1.527-1.448a.84.84,0,1,0-1.159-1.216q-.767.732-1.521,1.442a.84.84,0,0,0,1.153,1.222Zm5.472-5.256,1-.979.5-.5a.84.84,0,1,0-1.179-1.2q-.754.743-1.5,1.469a.84.84,0,0,0,1.174,1.2Zm5.384-5.339.985-.992.5-.5a.84.84,0,0,0-1.2-1.181l-1.477,1.489a.84.84,0,1,0,1.191,1.185Zm5.276-5.367.974-1,.49-.507a.84.84,0,0,0-1.208-1.168l-.976,1.008-.485.5a.84.84,0,0,0,1.2,1.171Zm5.247-5.452.964-1.013.484-.51a.84.84,0,1,0-1.218-1.156l-.966,1.016-.48.5a.84.84,0,0,0,1.216,1.159Zm5.2-5.5,1.436-1.535a.84.84,0,0,0-1.228-1.146q-.721.772-1.433,1.532a.84.84,0,1,0,1.226,1.149Zm5.151-5.536.193-.208a.84.84,0,0,0-1.234-1.14l-.192.208a.84.84,0,1,0,1.234,1.14Z" transform="translate(-327.699 -286.116)" fill="#d19c49"/>
      <path id="Path_15710" data-name="Path 15710" d="M522.987,659.328l-.008,2.1a.84.84,0,1,0,1.68.007l.008-2.1a.84.84,0,0,0-1.68-.006Zm-.034,7.56-.012,2.1a.84.84,0,0,0,1.68.01l.012-2.1a.84.84,0,0,0-1.68-.009Zm-.047,7.561-.015,2.1a.84.84,0,1,0,1.68.013l.016-2.1a.84.84,0,0,0-1.68-.012Zm-.06,7.551-.019,2.1a.84.84,0,1,0,1.68.016l.019-2.1a.84.84,0,1,0-1.68-.015Zm-.075,7.557-.024,2.1a.84.84,0,0,0,1.68.02l.023-2.1a.84.84,0,1,0-1.679-.018Zm-.092,7.564-.029,2.1a.84.84,0,1,0,1.68.023l.029-2.1a.84.84,0,0,0-1.68-.022Zm-.11,7.557-.034,2.1a.84.84,0,0,0,1.68.028l.034-2.1a.84.84,0,0,0-1.68-.026Zm-.13,7.555-.04,2.1a.84.84,0,1,0,1.68.033l.04-2.1a.84.84,0,0,0-1.68-.031Zm-.152,7.551-.047,2.1a.84.84,0,0,0,1.68.038l.047-2.1a.84.84,0,1,0-1.679-.037Zm-.178,7.559-.055,2.1a.84.84,0,0,0,1.679.044l.055-2.1a.84.84,0,0,0-1.68-.043Zm-.207,7.55-.063,2.1a.84.84,0,0,0,1.679.052l.064-2.1a.84.84,0,0,0-1.679-.05Zm-.241,7.55-.074,2.1a.84.84,0,1,0,1.679.06l.074-2.1a.84.84,0,1,0-1.679-.058Zm-.281,7.551-.086,2.1a.84.84,0,0,0,1.679.07l.086-2.1a.84.84,0,0,0-1.679-.067Zm-.328,7.549-.1,2.094a.84.84,0,0,0,1.678.083l.068-1.394q.017-.351.034-.7a.84.84,0,1,0-1.678-.079Zm-.386,7.542-.08,1.4q-.02.348-.04.693a.84.84,0,1,0,1.677.1l.12-2.1a.84.84,0,1,0-1.677-.094Zm-.462,7.535-.1,1.4q-.025.347-.049.691a.84.84,0,0,0,1.676.119l.1-1.392q.024-.351.048-.706a.84.84,0,0,0-1.676-.113Zm-.561,7.528-.089,1.054q-.045.522-.09,1.034a.84.84,0,0,0,1.674.148l.09-1.038q.045-.525.089-1.059a.84.84,0,0,0-1.674-.139Zm-.7,7.507q-.113,1.068-.23,2.08a.84.84,0,1,0,1.669.192l.117-1.033q.058-.523.116-1.061a.84.84,0,0,0-1.671-.178Z" transform="translate(-300.854 -381.932)" fill="#d19c49"/>
      <ellipse id="Ellipse_531" data-name="Ellipse 531" cx="32.759" cy="32.549" rx="32.759" ry="32.549" transform="translate(268.373 55.649)" fill="#cb3e47"/>
      <path id="Path_15711" data-name="Path 15711" d="M693.707,198.66l1.081-.005-.628.134c-14.6,3.136-22.615.421-10.178-.053C687.208,198.613,690.463,198.667,693.707,198.66Zm6.83-5.427q-.729,1.3-1.574,2.527l-.9.141c-5.427.837-12.43,1.674-14.764,1.834l-1.108.078c-8.655.627-20.988,1.859-32.959,2.2q-.571-.074-1.137-.152a32.509,32.509,0,0,1-3.01-3.618q5.562-.219,11.107-.486c12.891-.632,25.679-1.524,38.544-2.224l5.278-.278h0Zm2.655-6.186q-.435,1.41-1,2.764l-2.48.1c-19.881.8-40.592,1.231-50.6,1.336l-1.867.016c-1.827.011-3.531.01-5.094-.006a31.579,31.579,0,0,1-1.262-3.071c5.6.174,12.881,1.065,17.881.879l7.765-.293c15.4-.594,25.206-1.055,34.5-1.6Zm1.379-7.816q-.047.939-.148,1.863l-3.451.1c-4.025.119-8.045.252-12.039.464-16.415.868-32.6,2.318-49.026,3.132a31.758,31.758,0,0,1-.662-4.069c13.752-.1,27.5-.243,41.227-.541,6.465-.141,12.9-.414,19.324-.719Zm-.708-8.537.03.136q.185.854.323,1.724c-6.869.3-13.835.311-20.682.677-6.64.355-13.052,1.2-19.714,1.494-8.172.365-16.448.874-24.659.768a32,32,0,0,1,.726-5l9.845,0C667.783,170.482,685.831,170.5,703.863,170.694Zm.572,3.517q.062.59.1,1.185l-.173-.029c-2.036-.344-2.691-.827-.208-1.125Zm-3.326-11.178a31.986,31.986,0,0,1,1.439,3.244c-17.531-.375-34.429-.192-52.4.55l-1.56.066a1.8,1.8,0,0,1-.154-3.59l.056,0h.056q5.925.115,11.855.115l3.613-.005q14.11-.038,35.727-.357Zm-56.34-2.4-.815.01a32.372,32.372,0,0,1,2.032-2.887l.577,0c70.542-.436,32.505,2.376-.787,2.868Zm46.146-6.131q2.233.238,4.4.529.623.631,1.211,1.295c-1.538.026-3.081.024-4.617,0l-.964-.018-16.972-.674c-.308-.007-.8-.269-.5-.286q7.915-.428,15.86-.777Z" transform="translate(-370.721 -89.612)" fill="#ef8389" fill-rule="evenodd"/>
      <ellipse id="Ellipse_532" data-name="Ellipse 532" cx="22.259" cy="22.049" rx="22.259" ry="22.049" transform="translate(335.152 27.09)" fill="#3cb49f"/>
      <path id="Path_15712" data-name="Path 15712" d="M821.6,107.973q-2.407.877-4.826,1.729a22.443,22.443,0,0,1-2.388-.52l6.9-1.379C821.442,107.767,821.753,107.918,821.6,107.973Zm18.438-9.706a22.016,22.016,0,0,1-2,3.079q-1.591.485-3.195.934c-39.807,11.1-12.6.7,4.976-3.957Zm-6.3-2.362a1.551,1.551,0,0,1-.962,1.971,1.447,1.447,0,0,1-.151.044q-3.077.721-6.131,1.538l-1.7.458-2.195.6q-6.669,1.845-16.147,4.631a22.271,22.271,0,0,1-2.425-2.236,268.361,268.361,0,0,0,26.77-7.642l.964-.33A1.551,1.551,0,0,1,833.738,95.906Zm8.764-9.5.072,0q.053.761.053,1.536,0,.446-.018.888c-13.692,3.66-27.365,7.409-41.111,10.814q-.409-.645-.772-1.317l-.414.152c3.972-1.488,8.156-2.563,12.149-4.014,3.32-1.207,6.415-2.788,9.76-3.949a111.433,111.433,0,0,1,14.528-4.485C838.792,85.618,840.508,86.492,842.5,86.407Zm-42.03,10.525-.376.128q-.3-.665-.567-1.352l.158-.026c2.49-.4,4.213.055.784,1.25Zm38.861-20.544A21.855,21.855,0,0,1,841.14,80l-4.421,1.237c-8.1,2.27-16.2,4.558-24.241,7.019-4.657,1.426-9.221,3.066-13.794,4.689q-.19-.808-.318-1.637c3.161-1.019,6.343-2,9.45-3.122,9-3.261,17.7-7.065,26.78-10.165l1.3-.438c.571-.19,1.172-.4,1.793-.614Zm-4-3.115,0,.03-.577.574c-.31,2.834-8.811,2.552-13.147,4l-3.312,1.108-3.24,1.093c-7.4,2.509-12.068,4.18-16.867,6a21.844,21.844,0,0,1,.387-2.647l1.378-.472c9.674-3.3,19.918-6.433,25.349-8.006l.764-.22C831.622,73.141,835.344,72.407,835.331,73.273Zm-8.3-6.378.036.011a22.251,22.251,0,0,1,4.067,1.731l.038-.012c-3.26,1.083-6.515,2.175-9.743,3.322-6.316,2.244-12.525,4.681-18.809,6.983l-3.042,1.1a21.885,21.885,0,0,1,1.464-3.049l.685-.363c2.127-1.116,4.34-2.18,5.3-2.566l.619-.244.588-.236c4.685-1.892,11.231-4.821,17.6-6.673Q826.44,66.891,827.035,66.894Zm-20.5,6.387c-1.212.407-2.455.733-3.7,1.061q.522-.66,1.094-1.279l.311-.158C809.274,70.4,811.844,71.5,806.54,73.282Z" transform="translate(-462.957 -38.799)" fill="#50c4b0" fill-rule="evenodd"/>
      <path id="Path_15713" data-name="Path 15713" d="M839.1,98.291a22.217,22.217,0,0,1-4.084,4.764l-.5.272c-1.492.8-2.839,1.477-3.53,1.77l-.9.373-.627.266c-1.807.773-3.874,1.7-6.093,2.649a22.634,22.634,0,0,1-9.114-.6q1.135-.406,2.265-.822c6.374-2.348,12.631-4.925,18.973-7.337l2.9-1.092c.228-.084.465-.168.681-.238Zm3.021-7.588a21.765,21.765,0,0,1-.919,3.325l-.992.358C829.6,98.2,817.693,101.9,811.992,103.56l-1,.288-.654.183c-.966.267-1.864.5-2.682.7a22.314,22.314,0,0,1-2.868-2.325c2.794-1.134,8.2-1.095,11.346-2.175l3.509-1.21c10.277-3.557,15.606-5.548,21.743-8.015Zm.053-8.018q.176.984.262,2c-4.23,1.5-8.57,2.758-12.761,4.336-9,3.39-17.686,7.413-26.778,10.609l-.449.156a22.021,22.021,0,0,1-2.3-3.757c8.3-2.338,16.593-4.693,24.815-7.257,5.547-1.73,10.949-3.81,16.394-5.789Zm-2.76-7.366q.3.5.568,1.007l-.932.392c-.851.355-1.63.67-2.172.882-3.957,1.546-8.142,2.614-12.121,4.118-3.309,1.25-6.377,2.933-9.711,4.131-4.757,1.709-9.536,3.622-14.506,4.566a6.006,6.006,0,0,1-2.208-.038A21.912,21.912,0,0,1,798,86.55q0-.233.005-.465l9.685-2.6c9.685-2.6,19.377-5.17,29.114-7.536Zm1.356,2.661q.425.995.751,2.038c-.825.129-1.61.275-2.335.446l-.54.133-.181.042c-2.955.657-5.591.057-1.47-1.371l2-.689Zm-7.227-9.12a22.324,22.324,0,0,1,3.094,2.762,234.215,234.215,0,0,0-30.54,8.54l-.853.3a1.778,1.778,0,1,1-.993-3.409q3.091-.708,6.152-1.528l1.406-.38,1.2-.329q7.059-1.942,17.537-5.063Zm-32.347,6.3a22.114,22.114,0,0,1,2.889-3.758h.005c32.981-9.138,14.674-1.468-1.884,3.461ZM820.259,64.5a22.664,22.664,0,0,1,3.107.213l-8,1.522c-.159.036-.478-.147-.326-.2q2.006-.76,4.022-1.5Q819.656,64.5,820.259,64.5Z" transform="translate(-462.848 -37.411)" fill="#229581" fill-rule="evenodd"/>
      <path id="Path_15714" data-name="Path 15714" d="M831.744,68.952a22.021,22.021,0,0,1-8.984,42.23,22.271,22.271,0,0,1-20.449-13.325A21.043,21.043,0,0,0,840.4,85.772a20.7,20.7,0,0,0-8.6-16.778Z" transform="translate(-465.349 -39.993)" fill="#229581" fill-rule="evenodd" opacity="0.593"/>
      <path id="Path_15715" data-name="Path 15715" d="M885.218,321.491a1.47,1.47,0,0,1,2.684,1.2l-.034.076-13.014,27.083a1.469,1.469,0,0,1-1.75.771l-.076-.025-37.619-13.641-26.038,20.5a1.47,1.47,0,0,1-2.011-.181l-.053-.064a1.47,1.47,0,0,1,.182-2.011l.064-.053,26.68-21.008a1.472,1.472,0,0,1,1.321-.257l.09.029,37.137,13.467Z" transform="translate(-468.064 -185.985)" fill="#b9cdff"/>
      <path id="Path_15716" data-name="Path 15716" d="M962.419,385.509a1.47,1.47,0,0,1,2.016.072l.059.063,18.4,20.975a1.47,1.47,0,0,1-2.15,2l-.059-.063-18.4-20.975A1.47,1.47,0,0,1,962.419,385.509Z" transform="translate(-557.923 -223.387)" fill="#b9cdff"/>
      <circle id="Ellipse_533" data-name="Ellipse 533" cx="8.61" cy="8.61" r="8.61" transform="translate(359.297 141.747)" fill="#719cfd"/>
      <path id="Path_15717" data-name="Path 15717" d="M856.331,349.822a9.45,9.45,0,0,0,14.961,7.677,8.612,8.612,0,0,1-14.922-8.53Q856.331,349.391,856.331,349.822Z" transform="translate(-496.194 -202.406)" fill="#547ace" fill-rule="evenodd"/>
      <path id="Path_15718" data-name="Path 15718" d="M876.325,346.89c2.109,1.218,4.336,1.309,4.974.2s-.555-2.988-2.664-4.205-4.336-1.31-4.974-.2S874.215,345.672,876.325,346.89Z" transform="translate(-506.633 -198.313)" fill="#b9cdff" fill-rule="evenodd"/>
      <circle id="Ellipse_534" data-name="Ellipse 534" cx="8.61" cy="8.61" r="8.61" transform="translate(409.696 125.787)" fill="#f6be67"/>
      <path id="Path_15719" data-name="Path 15719" d="M976.331,311.822a9.45,9.45,0,0,0,14.96,7.677,8.611,8.611,0,0,1-14.921-8.53Q976.331,311.391,976.331,311.822Z" transform="translate(-565.795 -180.365)" fill="#d19c49" fill-rule="evenodd"/>
      <path id="Path_15720" data-name="Path 15720" d="M996.324,308.89c2.108,1.218,4.339,1.309,4.973.2s-.554-2.988-2.663-4.205-4.336-1.31-4.974-.2S994.215,307.672,996.324,308.89Z" transform="translate(-576.234 -176.272)" fill="#f9d8a4" fill-rule="evenodd"/>
      <circle id="Ellipse_535" data-name="Ellipse 535" cx="8.61" cy="8.61" r="8.61" transform="translate(417.255 176.606)" fill="#3cb49f"/>
      <path id="Path_15721" data-name="Path 15721" d="M994.331,432.822a9.45,9.45,0,0,0,14.96,7.677,8.611,8.611,0,0,1-14.921-8.53Q994.331,432.39,994.331,432.822Z" transform="translate(-576.235 -250.547)" fill="#229581" fill-rule="evenodd"/>
      <path id="Path_15722" data-name="Path 15722" d="M1014.325,429.89c2.108,1.218,4.338,1.309,4.973.2s-.554-2.988-2.663-4.205-4.334-1.31-4.973-.2S1012.217,428.672,1014.325,429.89Z" transform="translate(-586.675 -246.453)" fill="#50c4b0" fill-rule="evenodd"/>
      <path id="Path_15723" data-name="Path 15723" d="M808.189,393.2a8.61,8.61,0,1,0-12.176,0A8.609,8.609,0,0,0,808.189,393.2Z" transform="translate(-460.233 -219.534)" fill="#f6be67" fill-rule="evenodd"/>
      <path id="Path_15724" data-name="Path 15724" d="M795.164,400.02a9.451,9.451,0,0,0,16.007-5.15,8.612,8.612,0,0,1-16.584,4.52Q794.859,399.715,795.164,400.02Z" transform="translate(-460.869 -229.029)" fill="#d19c49" fill-rule="evenodd"/>
      <path id="Path_15725" data-name="Path 15725" d="M807.234,386.457c2.352-.63,3.992-2.14,3.661-3.373s-2.5-1.72-4.857-1.09-3.992,2.141-3.662,3.373S804.881,387.087,807.234,386.457Z" transform="translate(-465.362 -221.401)" fill="#f9d8a4" fill-rule="evenodd"/>
      <path id="Path_15726" data-name="Path 15726" d="M959.189,381.2a8.61,8.61,0,1,0-12.176,0A8.609,8.609,0,0,0,959.189,381.2Z" transform="translate(-547.815 -212.574)" fill="#e9525b" fill-rule="evenodd"/>
      <path id="Path_15727" data-name="Path 15727" d="M946.164,388.02a9.451,9.451,0,0,0,16.007-5.15,8.612,8.612,0,0,1-16.584,4.52Q945.859,387.715,946.164,388.02Z" transform="translate(-548.451 -222.069)" fill="#cb3e47" fill-rule="evenodd"/>
      <path id="Path_15728" data-name="Path 15728" d="M958.234,374.457c2.352-.63,3.992-2.14,3.661-3.373s-2.5-1.72-4.857-1.09-3.992,2.141-3.662,3.373S955.881,375.087,958.234,374.457Z" transform="translate(-552.944 -214.441)" fill="#e98086" fill-rule="evenodd"/>
      <path id="Path_15729" data-name="Path 15729" d="M683.175,195.18l.443-.006-.308.181c-7.175,4.226-11.118.567-5-.071C679.92,195.114,681.551,195.193,683.175,195.18Zm4.405-7.113.839,1.68c-1.339,1.3-8.446,3.777-10.364,4.172l-.605.117c-4.579.906-11.265,2.766-17.568,3.057a32.759,32.759,0,0,1-7.77-4.447l2.788-.275c3.253-.323,6.5-.66,9.743-1.095,6.391-.859,12.729-2.073,19.107-3.021l2.463-.355C687.008,187.792,687.95,187.706,687.58,188.066Zm15.868-11.429a32.168,32.168,0,0,1-1.707,4.312c-11.524,2.667-32.332,3.995-40.339,4.24l-.8.021c-5.043.111-8.3-.3-8.092-1.557l.009-.046.654-.632c.958-4.151,8.507-.288,12.738-.717l2.19-.225c12.892-1.338,18.131-2.154,26.293-3.679Zm-3.077-8.322.1.96a16.928,16.928,0,0,1-5.017,1.5c-4.874.741-9.835.8-14.714,1.5-8.946,1.3-17.755,3.556-26.736,4.545l-.963.1c-3.557.354-8.355,1.306-11.794.741a32.181,32.181,0,0,1-1.527-6.312c12.289-.313,24.591-.335,36.861-1.066,7.628-.455,15.165-1.938,22.78-2.568C699.75,167.685,700.722,168.14,700.371,168.315Zm3.976-7.575a32.508,32.508,0,0,1,.586,5.75l0,.312c-4.209-.292-9.7-2.277-13.65-2.438l-.486-.014c-2.885-.116-5.278-1.9-1.161-2.333,3.5-.37,7.01-.667,10.52-.947Zm-7.482-2.885.133.009c1.986.168-4.746,1.536-7.065,1.915-3.915.64-7.922.57-11.847,1.146-3.265.479-6.417,1.613-9.691,2.013-4.672.571-9.413,1.405-14.092.894-2.077-.227-3.457-2.545-5.488-3.033-2.065-.5-6.159.384-8.816-.017a32.044,32.044,0,0,1,.9-3.585C659.558,157.356,678.233,156.914,696.865,157.855Zm-7.094-10.8,2.209.248q4.7.537,7,.894a32.479,32.479,0,0,1,2.64,4.433l-.255.013a29.634,29.634,0,0,1-4.306-.232l-.233-.027a149.262,149.262,0,0,0-35.2-.083l-.722.083a2.433,2.433,0,1,1-.151-4.845q2.979.163,5.958.163l1.419,0Q676.313,147.65,689.771,147.058Zm-40.646-3.273.245-.239a32.846,32.846,0,0,1,3.706-3.081c2.275-.2,4.552-.359,6.834-.4C702.71,139.342,664.2,145.283,649.125,143.785Zm32.414-8.073a32.679,32.679,0,0,1,5.523,2.2l-.3.031h0l-.294.035a25,25,0,0,1-4.346.169l-.395-.02-8.344-.908c-.151-.009-.393-.362-.243-.385,2.7-.4,5.411-.753,8.122-1.088Z" transform="translate(-371.044 -78.714)" fill="#e9525b" fill-rule="evenodd"/>
      <path id="Path_15730" data-name="Path 15730" d="M707.435,155.019a32.507,32.507,0,0,1-23.088,55.641A32.765,32.765,0,0,1,660.7,200.64a34.877,34.877,0,0,0,46.943-45.128Z" transform="translate(-383.215 -89.913)" fill="#a43239" fill-rule="evenodd" opacity="0.593"/>
      <path id="Path_15731" data-name="Path 15731" d="M838.094,215.513l10.788-40.158-35.068,33.67Zm7.6-34.769-8.788,32.713-19.778-5.286Z" transform="translate(-472.021 -101.708)" fill="#f0decf"/>
      <path id="Path_15732" data-name="Path 15732" d="M554.544,400.271c12.72-9.113,22.9-12.135,30.557-8.878a11.788,11.788,0,0,1,6.016,5.905l.134.271a33.536,33.536,0,0,1,2.3,7.076l.528,2.2a29.689,29.689,0,0,0,2.237,6.861,8.6,8.6,0,0,0,4.99,4.617c6.744,2.328,15.523-1.712,26.3-12.355a1.05,1.05,0,0,1,1.476,1.494c-11.284,11.145-20.756,15.5-28.459,12.845a10.67,10.67,0,0,1-6.178-5.653l-.118-.237a32.24,32.24,0,0,1-2.279-7.049l-.529-2.2a30.784,30.784,0,0,0-2.273-6.921,9.719,9.719,0,0,0-4.961-4.916c-6.817-2.9-16.326-.078-28.512,8.653a1.05,1.05,0,0,1-1.223-1.707Z" transform="translate(-321.387 -226.275)" fill="#fff"/>
      <path id="Path_15733" data-name="Path 15733" d="M968.29,672.01v1.68H910.122v-1.68Z" transform="translate(-527.881 -389.773)" fill="#f0decf"/>
      <path id="Path_15734" data-name="Path 15734" d="M1014,101.445a1.89,1.89,0,0,1,1.89,1.8v72.635a1.889,1.889,0,0,1-3.776.089l0-.089V103.335A1.891,1.891,0,0,1,1014,101.445Z" transform="translate(-587.035 -58.839)" fill="#f0decf"/>
      <path id="Path_15735" data-name="Path 15735" d="M1001.27,187.945a1.89,1.89,0,0,1,.088,3.778l-.088,0H935.753a1.89,1.89,0,0,1-.089-3.778l.089,0Z" transform="translate(-541.65 -109.01)" fill="#f0decf"/>
      <path id="Path_15736" data-name="Path 15736" d="M1064.856,101.086a1.89,1.89,0,1,1,1.126,3.609c-20.823,6.476-31.012,18.238-31.012,35.522s10.185,28.931,31,35.2a1.89,1.89,0,1,1-1.092,3.619c-22.305-6.721-33.683-19.742-33.683-38.821S1042.559,108.022,1064.856,101.086Z" transform="translate(-598.101 -58.581)" fill="#e9525b"/>
      <path id="Path_15737" data-name="Path 15737" d="M915.584,102.329a1.89,1.89,0,0,1,2.366-1.243c22.3,6.937,33.668,20.059,33.668,39.131s-11.377,32.1-33.684,38.821a1.89,1.89,0,1,1-1.09-3.619c20.812-6.271,30.994-17.925,30.994-35.2s-10.191-29.046-31.011-35.522A1.89,1.89,0,0,1,915.584,102.329Z" transform="translate(-530.999 -58.581)" fill="#719cfd"/>
    </g>
  </g>
</svg>
