<svg id="social_instagram" xmlns="http://www.w3.org/2000/svg" width="70.94" height="70.94" viewBox="0 0 70.94 70.94">
  <rect id="Rectangle_185" data-name="Rectangle 185" width="70.94" height="70.94" rx="13" fill="#f6be67" opacity="0.22"/>
  <g id="Group_420" data-name="Group 420" transform="translate(16.63 16.159)">
    <path id="Path_12581" data-name="Path 12581" d="M1022.032,2295.058a13.744,13.744,0,0,0-.875-4.572,9.648,9.648,0,0,0-5.515-5.513,13.8,13.8,0,0,0-4.572-.877c-2.017-.095-2.658-.117-7.774-.117s-5.758.022-7.767.111a13.746,13.746,0,0,0-4.572.875,9.657,9.657,0,0,0-5.515,5.515,13.773,13.773,0,0,0-.875,4.571c-.1,2.017-.118,2.658-.118,7.775s.023,5.758.11,7.767a13.761,13.761,0,0,0,.877,4.572,9.656,9.656,0,0,0,5.514,5.515,13.818,13.818,0,0,0,4.572.876c2.009.088,2.651.11,7.767.11s5.758-.022,7.767-.11a13.777,13.777,0,0,0,4.572-.876,9.64,9.64,0,0,0,5.515-5.515,13.821,13.821,0,0,0,.875-4.572c.089-2.009.111-2.65.111-7.767S1022.121,2297.068,1022.032,2295.058Zm-3.393,15.387a10.368,10.368,0,0,1-.649,3.5,6.246,6.246,0,0,1-3.578,3.577,10.328,10.328,0,0,1-3.5.648c-1.988.089-2.584.11-7.613.11s-5.631-.021-7.612-.11a10.3,10.3,0,0,1-3.5-.648,5.79,5.79,0,0,1-2.165-1.406,5.884,5.884,0,0,1-1.406-2.164,10.37,10.37,0,0,1-.647-3.5c-.089-1.988-.11-2.585-.11-7.613s.021-5.632.11-7.612a10.341,10.341,0,0,1,.647-3.5,5.744,5.744,0,0,1,1.414-2.165,5.871,5.871,0,0,1,2.165-1.406,10.373,10.373,0,0,1,3.5-.647c1.988-.089,2.585-.112,7.613-.112s5.632.022,7.612.112a10.342,10.342,0,0,1,3.5.647,5.806,5.806,0,0,1,2.165,1.406,5.869,5.869,0,0,1,1.406,2.165,10.413,10.413,0,0,1,.649,3.5c.088,1.988.11,2.583.11,7.612S1018.727,2308.457,1018.639,2310.446Z" transform="translate(-984.449 -2283.978)" fill="#f6be67"/>
    <path id="Path_12582" data-name="Path 12582" d="M1001.041,2290.889a9.681,9.681,0,1,0,9.681,9.681A9.683,9.683,0,0,0,1001.041,2290.889Zm0,15.961a6.28,6.28,0,1,1,6.28-6.281A6.281,6.281,0,0,1,1001.041,2306.85Z" transform="translate(-982.194 -2281.723)" fill="#f6be67"/>
    <path id="Path_12583" data-name="Path 12583" d="M1009.063,2291.156a2.26,2.26,0,1,1-2.26-2.26A2.26,2.26,0,0,1,1009.063,2291.156Z" transform="translate(-977.891 -2282.373)" fill="#f6be67"/>
  </g>
</svg>
