<svg xmlns="http://www.w3.org/2000/svg" xmlns:xlink="http://www.w3.org/1999/xlink" width="678" height="501.035" viewBox="0 0 678 501.035">
  <defs>
    <clipPath id="clip-path">
      <path id="Path_16357" data-name="Path 16357" d="M242.912,281.017l-.116-.01c-2.383-.155-4.3,2.209-4.3,5.346V435.021c.061,3.113,2.012,5.423,4.41,5.185l54.949-5.433.115-.013c2.383-.31,4.3-2.85,4.3-5.741V292.064c-.062-2.878-2.012-5.377-4.41-5.614l-10.9-1.078-.688,2.644a1.888,1.888,0,0,1-1.824,1.56l-.091-.006-28.336-2.636a2.408,2.408,0,0,1-1.914-1.984l-.688-2.894Z" transform="translate(-238.5 -281)" fill="#e9f0f6"/>
    </clipPath>
  </defs>
  <g id="Illustration_Home_1" transform="translate(16050 3590.979)">
    <ellipse id="Ellipse_550" data-name="Ellipse 550" cx="135.359" cy="135.359" rx="135.359" ry="135.359" transform="translate(-16050 -3590.979)" fill="#f9f5e8"/>
    <path id="Path_15935" data-name="Path 15935" d="M631.537,51A168.538,168.538,0,1,1,463,219.538,168.538,168.538,0,0,1,631.537,51Zm0,1.923A166.614,166.614,0,1,0,798.152,219.538,166.613,166.613,0,0,0,631.537,52.923Z" transform="translate(-16499.057 -3617.456)" fill="#f0decf"/>
    <g id="Shape" transform="translate(-15888.433 -3507.802)">
      <path id="Path_15551" data-name="Path 15551" d="M99.434,33H527.542c13.47,0,24.451,9.227,24.451,20.7V314.754c0,11.473-10.98,20.7-24.451,20.7H99.434c-13.469,0-24.451-9.227-24.451-20.7V53.7C74.982,42.227,85.965,33,99.434,33Zm428.109,1.923H99.434c-12.473,0-22.528,8.447-22.528,18.777V314.754c0,10.33,10.055,18.777,22.528,18.777H527.542c12.475,0,22.528-8.447,22.528-18.777V53.7C550.07,43.371,540.017,34.923,527.542,34.923Z" transform="translate(-71.616 -17.132)" fill="#f0decf"/>
      <path id="Path_15552" data-name="Path 15552" d="M567.493,0H123.641C118.871,0,115,3.426,115,7.652V292.879c0,4.226,3.871,7.652,8.641,7.652H567.493c4.772,0,8.641-3.426,8.641-7.652V7.652C576.135,3.426,572.266,0,567.493,0Z" transform="translate(-115)" fill="#f4fbfc" fill-rule="evenodd"/>
      <path id="Path_15553" data-name="Path 15553" d="M861.63,163.677c.125,0,.251.005.377.015a4.575,4.575,0,0,1,2.713,1.116l.171.163a3.611,3.611,0,0,1,.411.5,5.047,5.047,0,0,1-.409,5.711,8.355,8.355,0,0,1-1.173,1.29l6.127-.272a1.053,1.053,0,1,1,.048,2.1l-9.754.433a1.1,1.1,0,0,1-1.052-.732,1.028,1.028,0,0,1,.455-1.206l.661-.408a10.038,10.038,0,0,0,2.872-2.408,3.075,3.075,0,0,0,.374-3.366,2.127,2.127,0,0,0-1.616-.826c-.068-.005-.136-.007-.2-.007a2.28,2.28,0,0,0-1.207.322l.052.674a1.07,1.07,0,0,1-1.021,1.127h-.124l-.049,0a1.073,1.073,0,0,1-1.01-.971l-.093-1.194a1.024,1.024,0,0,1,.279-.781A4.357,4.357,0,0,1,861.63,163.677Zm-27.654-12.5a1.227,1.227,0,0,1,.444.084l.218.139.04-.02a1.19,1.19,0,0,1,.345-.05,1.126,1.126,0,0,1,1.076.73L839.853,163a1.045,1.045,0,0,1,.85,1.038.992.992,0,0,1-.279.622l.845,2.465.035.128.017.127a1.053,1.053,0,0,1-.789,1.058,1.22,1.22,0,0,1-.342.049,1.174,1.174,0,0,1-.855-.36,1.028,1.028,0,0,1-.224-.369l-.953-2.776-8.672-.355-1.314,2.846a1.137,1.137,0,0,1-1.041.636,1.2,1.2,0,0,1-.444-.084,1.018,1.018,0,0,1-.6-1.373l6.843-14.839A1.137,1.137,0,0,1,833.975,151.174Zm15.907,10.1a.976.976,0,1,1,0,1.923H844.51a.976.976,0,1,1,0-1.923ZM834.35,154.06,830.6,162.9l6.64.3Zm22.412,3.366h.049l13.6.785a1.076,1.076,0,0,1,1.048,1.114,1.091,1.091,0,0,1-1.115.986l-.07,0-13.6-.785a1.075,1.075,0,0,1-1.047-1.114A1.092,1.092,0,0,1,856.761,157.426Zm-7.858,0a1.08,1.08,0,0,1,1.1.92,1.05,1.05,0,0,1-1.012,1.106l-4.4.374-.105,0a1.084,1.084,0,0,1-1.116-.92,1.047,1.047,0,0,1,1.012-1.1l4.394-.373A1.238,1.238,0,0,1,848.9,157.426Zm13.692-13.459.689,10.451a1.1,1.1,0,0,1-1.119,1.082l-.069,0a1.128,1.128,0,0,1-1.184-.968l-.688-10.45A1.094,1.094,0,0,1,861.341,143h.053A1.138,1.138,0,0,1,862.595,143.966Z" transform="translate(-750.876 -74.238)" fill="#e9525b" fill-rule="evenodd"/>
      <path id="Path_15554" data-name="Path 15554" d="M644.353,151.931l.275-2.388a.962.962,0,0,1,1.911.22l-.276,2.388a.962.962,0,1,1-1.91-.22Zm.992-8.6.275-2.388a.962.962,0,1,1,1.911.22l-.275,2.388a.961.961,0,1,1-1.91-.22Zm.992-8.6.275-2.388a.962.962,0,1,1,1.91.22l-.275,2.388a.962.962,0,1,1-1.911-.22Zm.991-8.6.276-2.388a.961.961,0,1,1,1.91.22l-.275,2.388a.962.962,0,0,1-1.911-.22Zm.992-8.6.275-2.388a.962.962,0,1,1,1.911.22l-.276,2.388a.962.962,0,1,1-1.911-.22Zm.992-8.6.275-2.388a.962.962,0,0,1,1.911.22l-.276,2.388a.962.962,0,1,1-1.911-.22Zm.991-8.6.276-2.388a.962.962,0,1,1,1.911.22l-.276,2.388a.962.962,0,0,1-1.911-.22Zm.991-8.6.276-2.388a.962.962,0,1,1,1.911.22l-.276,2.388a.962.962,0,0,1-1.911-.22Zm.992-8.6.275-2.388a.962.962,0,0,1,1.911.22l-.276,2.388a.962.962,0,0,1-1.911-.22Zm.992-8.6.275-2.388a.962.962,0,0,1,1.911.22l-.276,2.388a.962.962,0,1,1-1.91-.22Z" transform="translate(-448.871 -37.019)" fill="#6f97f8"/>
      <path id="Path_15555" data-name="Path 15555" d="M633.434,186.017l-.2-2.4a.962.962,0,0,1,1.917-.162l.2,2.4a.962.962,0,1,1-1.917.162Zm-.727-8.625-.2-2.4a.962.962,0,1,1,1.917-.162l.2,2.4a.962.962,0,1,1-1.916.162Zm-.727-8.625-.2-2.4a.961.961,0,1,1,1.916-.162l.2,2.4a.962.962,0,0,1-1.917.162Zm-.728-8.625-.2-2.4a.962.962,0,1,1,1.917-.162l.2,2.4a.962.962,0,0,1-1.917.162Zm-.727-8.625-.2-2.4a.962.962,0,0,1,1.917-.162l.2,2.4a.962.962,0,1,1-1.917.162Zm-.727-8.625-.2-2.4a.961.961,0,1,1,1.916-.162l.2,2.4a.962.962,0,1,1-1.917.162Zm-.728-8.625-.2-2.4a.962.962,0,0,1,1.917-.162l.2,2.4a.962.962,0,1,1-1.917.162Zm-.728-8.625-.2-2.4a.962.962,0,1,1,1.917-.162l.2,2.4a.962.962,0,0,1-1.917.162Zm-.727-8.625-.2-2.4a.961.961,0,1,1,1.916-.162l.2,2.4a.962.962,0,0,1-1.917.162Zm-.727-8.625-.2-2.4a.962.962,0,1,1,1.917-.162l.2,2.4a.962.962,0,1,1-1.917.162Zm-.728-8.625-.2-2.4a.962.962,0,1,1,1.917-.162l.2,2.4a.962.962,0,0,1-1.917.162Zm-.727-8.625-.2-2.4a.961.961,0,1,1,1.916-.162l.2,2.4a.962.962,0,0,1-1.917.162Zm-.727-8.625-.2-2.4a.962.962,0,0,1,1.917-.162l.2,2.4a.962.962,0,0,1-1.917.162Z" transform="translate(-419.212 -41.056)" fill="#6f97f8"/>
      <path id="Path_15556" data-name="Path 15556" d="M618.962,441h7.213a.961.961,0,0,1,.962.962v7.213a.961.961,0,0,1-.962.962h-7.213a.961.961,0,0,1-.962-.962v-7.213A.961.961,0,0,1,618.962,441Zm.962,1.923v5.289h5.289v-5.289Z" transform="translate(-407.869 -228.945)" fill="#e9525b"/>
      <path id="Path_15557" data-name="Path 15557" d="M65.5,436.233v38.708H75.6V436.233a5.049,5.049,0,1,0-10.1,0Z" transform="translate(409.339 -223.849)" fill="#585f74" fill-rule="evenodd"/>
      <path id="Path_15558" data-name="Path 15558" d="M65.5,560.184V699.15H75.6V560.184Z" transform="translate(409.339 -290.82)" fill="#585f74" fill-rule="evenodd"/>
      <path id="Path_15559" data-name="Path 15559" d="M52.9,381.184a2.4,2.4,0,0,0-2.4,2.4v5.289a2.4,2.4,0,0,0,2.4,2.4h.481v5.289h4.328v-5.289h.481a2.4,2.4,0,0,0,2.4-2.4v-5.289a2.4,2.4,0,0,0-2.4-2.4Z" transform="translate(431.552 -197.892)" fill="#585f74" fill-rule="evenodd"/>
      <path id="Path_15560" data-name="Path 15560" d="M54.828,381.184H52.9a2.4,2.4,0,0,0-2.4,2.4v5.289a2.4,2.4,0,0,0,2.4,2.4h1.923a2.4,2.4,0,0,0,2.4-2.4v-5.289A2.4,2.4,0,0,0,54.828,381.184Z" transform="translate(434.917 -197.892)" fill="#697084" fill-rule="evenodd"/>
      <path id="Path_15561" data-name="Path 15561" d="M15.387,537.088a2.4,2.4,0,0,0-2.4-2.4H7.694a2.4,2.4,0,0,0-2.4,2.4v.481H0V541.9H5.289v.481a2.4,2.4,0,0,0,2.4,2.4h5.289a2.4,2.4,0,0,0,2.4-2.4Z" transform="translate(501.045 -277.581)" fill="#697084" fill-rule="evenodd"/>
      <path id="Path_15562" data-name="Path 15562" d="M10.1,546.012v-1.923a2.4,2.4,0,0,0-2.4-2.4H2.4a2.4,2.4,0,0,0-2.4,2.4v1.923a2.4,2.4,0,0,0,2.4,2.4H7.694A2.4,2.4,0,0,0,10.1,546.012Z" transform="translate(506.334 -281.215)" fill="#585f74" fill-rule="evenodd"/>
      <path id="Path_15563" data-name="Path 15563" d="M65.177,412.258l15.764-2.074H90.957v25H80.941l-15.764-2.074a2.885,2.885,0,0,1-2.509-2.861V415.118A2.885,2.885,0,0,1,65.177,412.258Z" transform="translate(395.341 -212.947)" fill="#697084" fill-rule="evenodd"/>
      <path id="Path_15564" data-name="Path 15564" d="M65.553,519.184h25.4v25H80.941l-16.121-4.242a2.885,2.885,0,0,1-2.151-2.79V522.069A2.885,2.885,0,0,1,65.553,519.184Z" transform="translate(395.341 -269.535)" fill="#697084" fill-rule="evenodd"/>
      <path id="Path_15565" data-name="Path 15565" d="M49.657,410.184H33.308a4.808,4.808,0,0,0-4.808,4.808V430.38a4.808,4.808,0,0,0,4.808,4.809H49.657a5.289,5.289,0,0,0,5.289-5.289V415.473A5.289,5.289,0,0,0,49.657,410.184Z" transform="translate(447.781 -212.947)" fill="#585f74" fill-rule="evenodd"/>
      <path id="Path_15566" data-name="Path 15566" d="M49.657,519.184H33.308a4.808,4.808,0,0,0-4.808,4.808V539.38a4.809,4.809,0,0,0,4.808,4.808H49.657a5.289,5.289,0,0,0,5.289-5.289V524.473A5.289,5.289,0,0,0,49.657,519.184Z" transform="translate(447.781 -269.535)" fill="#585f74" fill-rule="evenodd"/>
      <ellipse id="Ellipse_525" data-name="Ellipse 525" cx="7.213" cy="7.213" rx="7.213" ry="7.213" transform="translate(482.051 254.939)" fill="#697084"/>
      <ellipse id="Ellipse_526" data-name="Ellipse 526" cx="7.213" cy="7.213" rx="7.213" ry="7.213" transform="translate(482.051 202.526)" fill="#697084"/>
      <path id="Path_15567" data-name="Path 15567" d="M143.94,425.184H98.5v10.1h45.44a5.049,5.049,0,0,0,0-10.1Z" transform="translate(320.079 -220.734)" fill="#585f74" fill-rule="evenodd"/>
      <path id="Path_15568" data-name="Path 15568" d="M236.445,375.184l-11.038,1.522a3.366,3.366,0,0,0-2.906,3.334v49.328a3.366,3.366,0,0,0,3.02,3.348l10.925,1.13Z" transform="translate(172.999 -194.777)" fill="#585f74" fill-rule="evenodd"/>
      <path id="Path_15569" data-name="Path 15569" d="M242.871,280.332V429.585c0,6.116,3.771,10.678,8.423,10.188a68.068,68.068,0,0,0,8.073,0q16.167-1.7,46.876-5.789c4.652-.49,8.423-5.408,8.423-10.985V286.918c0-5.577-3.771-10.5-8.423-10.985q-31.465-4.128-47.575-5.825-1.613-.17-6.847-.072C246.854,270.128,242.871,274.711,242.871,280.332Z" transform="translate(84.982 -140.171)" fill="#506d7c"/>
      <path id="Path_15570" data-name="Path 15570" d="M238.923,270.26c-4.652-.49-8.423,4.071-8.423,10.188V429.7c0,6.116,3.771,10.678,8.423,10.188l54.949-5.789c4.652-.49,8.423-5.408,8.423-10.985V287.035c0-5.577-3.771-10.5-8.423-10.985Z" transform="translate(103.302 -140.287)" fill="#607d8c"/>
      <ellipse id="Ellipse_527" data-name="Ellipse 527" cx="1.202" cy="1.683" rx="1.202" ry="1.683" transform="translate(379.15 138.092)" fill="#506d7c"/>
      <path id="Path_15571" data-name="Path 15571" d="M242.912,281.017l-.116-.01c-2.383-.155-4.3,2.209-4.3,5.346V435.021c.061,3.113,2.012,5.423,4.41,5.185l54.949-5.433.115-.013c2.383-.31,4.3-2.85,4.3-5.741V292.064c-.062-2.878-2.012-5.377-4.41-5.614l-10.9-1.078-.688,2.644a1.888,1.888,0,0,1-1.824,1.56l-.091-.006-28.336-2.636a2.408,2.408,0,0,1-1.914-1.984l-.688-2.894Z" transform="translate(99.477 -145.881)" fill="#e9f0f6"/>
      <path id="Path_15582" data-name="Path 15582" d="M289.944,285.185l19.308,1.767a.57.57,0,0,1,.444.6c0,.308-.2.539-.444.516l-19.308-1.816a.553.553,0,0,1-.444-.574A.443.443,0,0,1,289.944,285.185Z" transform="translate(67.531 -148.053)" fill="#506d7c" fill-rule="evenodd"/>
      <path id="Path_15583" data-name="Path 15583" d="M203.5,375.184h5.289a3.847,3.847,0,0,1,3.847,3.847V430a3.847,3.847,0,0,1-3.847,3.847H203.5Z" transform="translate(205.943 -194.777)" fill="#697084" fill-rule="evenodd"/>
      <path id="Path_15584" data-name="Path 15584" d="M401.445,375.184l-11.038,1.522a3.366,3.366,0,0,0-2.906,3.334v49.328a3.366,3.366,0,0,0,3.02,3.348l10.925,1.13Z" transform="translate(-71.341 -194.777)" fill="#585f74" fill-rule="evenodd"/>
      <path id="Path_15585" data-name="Path 15585" d="M368.5,375.184h5.289a3.847,3.847,0,0,1,3.847,3.847V430a3.847,3.847,0,0,1-3.847,3.847H368.5Z" transform="translate(-38.397 -194.777)" fill="#697084" fill-rule="evenodd"/>
      <path id="Path_15586" data-name="Path 15586" d="M204.77,66H342.293a5.77,5.77,0,0,1,5.77,5.77V97.736H199V71.77A5.77,5.77,0,0,1,204.77,66Zm0,1.923-.12,0a3.847,3.847,0,0,0-3.727,3.845V95.813H346.14V71.77a3.847,3.847,0,0,0-3.847-3.847Z" transform="translate(72.68 -34.264)" fill="#e9525b"/>
      <path id="Path_15587" data-name="Path 15587" d="M352,75.144v87.445h1.923V75.144Z" transform="translate(-6.75 -39.011)" fill="#e9525b"/>
      <path id="Path_15588" data-name="Path 15588" d="M204.77,75.144V209a3.847,3.847,0,0,1-3.727,3.845l-.12,0H199v1.923h1.923a5.771,5.771,0,0,0,5.768-5.624l0-.147V75.144Z" transform="translate(214.05 -39.011)" fill="#e9525b"/>
      <path id="Path_15589" data-name="Path 15589" d="M403.012,75.144V209a5.771,5.771,0,0,0,5.624,5.768l.147,0h45.194v-1.923H408.782a3.847,3.847,0,0,1-3.845-3.727l0-.12V75.144Z" transform="translate(-131.332 -39.011)" fill="#e9525b"/>
      <path id="Path_15590" data-name="Path 15590" d="M423.6,97.868a4.738,4.738,0,0,0,2.039-.434,4.448,4.448,0,0,0,1.573-1.23,5.583,5.583,0,0,0,.99-1.879,7.9,7.9,0,0,0,.341-2.382,7.008,7.008,0,0,0-.611-3.04,4.476,4.476,0,0,0-1.719-1.957,4.861,4.861,0,0,0-2.58-.675,4.649,4.649,0,0,0-2.141.445A6.831,6.831,0,0,0,419.79,88h0V83.633a1.79,1.79,0,0,0-.368-1.209A1.313,1.313,0,0,0,418.374,82a1.231,1.231,0,0,0-1.011.445A2.041,2.041,0,0,0,417,83.758h0V96.235a1.765,1.765,0,0,0,.373,1.219,1.281,1.281,0,0,0,1,.414,1.355,1.355,0,0,0,1.016-.414,1.686,1.686,0,0,0,.4-1.219h0v-.283q.487.545.784.816a4.6,4.6,0,0,0,.719.529,3.825,3.825,0,0,0,1.022.413A5.044,5.044,0,0,0,423.6,97.868Zm-.5-2.4a2.451,2.451,0,0,1-1.981-.908,3.966,3.966,0,0,1-.755-2.6,5.065,5.065,0,0,1,.355-1.987,2.919,2.919,0,0,1,.973-1.276,2.363,2.363,0,0,1,1.408-.441,2.157,2.157,0,0,1,1.347.441,2.8,2.8,0,0,1,.892,1.251,5.34,5.34,0,0,1,.314,1.93,4.124,4.124,0,0,1-.755,2.662A2.255,2.255,0,0,1,423.1,95.464Z" transform="translate(-35.894 -42.57)" fill="#e9525b" fill-rule="evenodd"/>
      <path id="Path_15591" data-name="Path 15591" d="M268.3,87.93a9.262,9.262,0,0,1,3.376.5A3.112,3.112,0,0,1,273.411,90a6.483,6.483,0,0,1,.5,2.63l0,.219,0,1.738h0l-.019,1.9h0a6.293,6.293,0,0,0,.3,1.874l.11.363a4.087,4.087,0,0,1,.195.893,1.167,1.167,0,0,1-.471.893,1.6,1.6,0,0,1-1.067.4,1.456,1.456,0,0,1-.991-.461,6.866,6.866,0,0,1-1.038-1.337,10.114,10.114,0,0,1-2.285,1.349,6.511,6.511,0,0,1-2.475.45,4.773,4.773,0,0,1-2.2-.485,3.592,3.592,0,0,1-1.461-1.314,3.354,3.354,0,0,1-.513-1.8,3.178,3.178,0,0,1,.847-2.23,4.172,4.172,0,0,1,2.144-1.2l.444-.1h0l1.806-.366q.767-.157,1.378-.3l.2-.046q.877-.2,1.9-.5a3.269,3.269,0,0,0-.519-1.85,2.35,2.35,0,0,0-1.9-.59,4.037,4.037,0,0,0-1.867.339,3,3,0,0,0-1.074,1.016l-.269.4q-.239.349-.363.493a1.052,1.052,0,0,1-.793.216,1.4,1.4,0,0,1-.948-.344,1.111,1.111,0,0,1-.4-.881,2.659,2.659,0,0,1,.608-1.635,4.347,4.347,0,0,1,1.9-1.308A8.71,8.71,0,0,1,268.3,87.93Zm2.357,6.732-.1.037a15.774,15.774,0,0,1-1.731.466l-1.19.263q-.545.123-.831.2a2.494,2.494,0,0,0-.972.527,1.354,1.354,0,0,0-.463,1.093,1.628,1.628,0,0,0,.544,1.234,2,2,0,0,0,1.424.509,3.67,3.67,0,0,0,1.73-.415,2.745,2.745,0,0,0,1.163-1.07,4.659,4.659,0,0,0,.427-2.2v-.638Z" transform="translate(40.179 -45.649)" fill="#e9525b" fill-rule="evenodd"/>
      <path id="Path_15631" data-name="Path 15631" d="M235.371,148.861v1.923h42.617v-1.923Z" transform="translate(125.266 -77.281)" fill="#e9525b"/>
      <path id="Path_15632" data-name="Path 15632" d="M251.78,164v1.923h11.783V164Zm-16.409,0v1.923h7.109V164Z" transform="translate(139.692 -85.141)" fill="#e9525b"/>
      <path id="Path_15633" data-name="Path 15633" d="M247.968,199.5v1.923h30.02V199.5Zm-12.6,0v1.923h6.294V199.5Z" transform="translate(125.266 -103.57)" fill="#e9525b"/>
      <path id="Path_15634" data-name="Path 15634" d="M235.371,214.639v1.923h28.192v-1.923Z" transform="translate(139.692 -111.43)" fill="#e9525b"/>
      <path id="Path_15635" data-name="Path 15635" d="M258.036,250.5v1.923h19.952V250.5Zm-22.665,0v1.923h15.405V250.5Z" transform="translate(125.266 -130.047)" fill="#e9525b"/>
      <path id="Path_15636" data-name="Path 15636" d="M235.371,265.639v1.923h28.192v-1.923Z" transform="translate(139.692 -137.907)" fill="#e9525b"/>
      <path id="Path_15637" data-name="Path 15637" d="M393,148.861v1.923h42.617v-1.923Z" transform="translate(-108.159 -77.281)" fill="#e9525b"/>
      <path id="Path_15638" data-name="Path 15638" d="M407.852,164v1.923h13.339V164ZM393,164v1.923h9.9V164Z" transform="translate(-93.733 -85.141)" fill="#e9525b"/>
      <path id="Path_15639" data-name="Path 15639" d="M422.7,199.5v1.923h12.921V199.5Zm-29.7,0v1.923h21.932V199.5Z" transform="translate(-108.159 -103.57)" fill="#e9525b"/>
      <path id="Path_15640" data-name="Path 15640" d="M393,214.639v1.923h28.192v-1.923Z" transform="translate(-93.733 -111.43)" fill="#e9525b"/>
      <path id="Path_15641" data-name="Path 15641" d="M393,250.5v1.923h42.617V250.5Z" transform="translate(-108.159 -130.047)" fill="#e9525b"/>
      <path id="Path_15642" data-name="Path 15642" d="M404.832,265.639v1.923h16.36v-1.923Zm-11.832,0v1.923h5.683v-1.923Z" transform="translate(-93.733 -137.907)" fill="#e9525b"/>
      <path id="Path_15643" data-name="Path 15643" d="M590.7,237.245l51.193,14.929a.962.962,0,0,1,.133,1.8L609.572,268.9a.963.963,0,0,1-.671.049l-51.193-14.929a.962.962,0,0,1-.133-1.8l32.45-14.929A.962.962,0,0,1,590.7,237.245Zm-.193,1.947-29.784,13.7L609.094,267l29.785-13.7Z" transform="translate(-393.989 -123.146)" fill="#6f97f8"/>
      <path id="Path_15644" data-name="Path 15644" d="M600.751,66.582a.962.962,0,0,0-1.732-.073l-.034.073-41.822,97.254,1.767.76,40.938-95.2,40.938,95.2,1.767-.76Z" transform="translate(-394.052 -34.264)" fill="#6f97f8"/>
      <path id="Path_15645" data-name="Path 15645" d="M782.386,59.242c-9.434-4.129-14.315,1.755-14.412,16.6v.453c0,3,.051,5.687.17,9.506l.188,5.729c.292,9.219.235,12.457-.369,16.116-.815,4.944-2.655,7.659-6.079,8.688a.962.962,0,0,0-.143,1.787c4.874,2.359,7.4,12.079,7.258,29.122l-.022,2.21c-.1,13.273.463,20.463,2.109,25.032,1.807,5.014,5.017,7.022,10.7,7.073H782v-1.923c-9.231,0-11.3-5.241-11.1-30.292l.015-1.558c.184-16.127-1.916-26.182-6.53-30.194l-.159-.136.138-.074c2.959-1.607,4.662-4.632,5.453-9.173l.083-.5c.605-3.8.644-7.212.334-16.828l-.159-4.805c-.123-3.868-.177-6.567-.18-9.526v-.254c0-13.867,3.75-18.647,11.483-15.39l.236.1Z" transform="translate(-631.975 -30.088)" fill="#e9525b"/>
      <path id="Path_15646" data-name="Path 15646" d="M633.88,57.135h2.4a.962.962,0,1,1,0,1.923h-2.4a.962.962,0,1,1,0-1.923Zm8.655,0h2.4a.962.962,0,1,1,0,1.923h-2.4a.962.962,0,0,1,0-1.923Zm8.655,0h2.4a.962.962,0,0,1,0,1.923h-2.4a.962.962,0,1,1,0-1.923Zm8.655,0h2.4a.962.962,0,0,1,0,1.923h-2.4a.962.962,0,1,1,0-1.923Zm8.655,0h2.4a.962.962,0,1,1,0,1.923h-2.4a.962.962,0,1,1,0-1.923Zm8.655,0h2.4a.962.962,0,1,1,0,1.923h-2.4a.962.962,0,0,1,0-1.923Zm8.655,0h2.4a.962.962,0,1,1,0,1.923h-2.4a.962.962,0,1,1,0-1.923Z" transform="translate(-477.083 -29.662)" fill="#e9525b"/>
      <path id="Path_15647" data-name="Path 15647" d="M633.592,311H636a.962.962,0,0,1,0,1.923h-2.4a.962.962,0,0,1,0-1.923Zm8.655,0h2.4a.962.962,0,1,1,0,1.923h-2.4a.962.962,0,0,1,0-1.923Zm8.655,0h2.4a.962.962,0,0,1,0,1.923h-2.4a.962.962,0,1,1,0-1.923Zm8.655,0h2.4a.962.962,0,0,1,0,1.923h-2.4a.962.962,0,1,1,0-1.923Zm8.655,0h2.4a.962.962,0,1,1,0,1.923h-2.4a.962.962,0,1,1,0-1.923Zm8.655,0h2.4a.962.962,0,1,1,0,1.923h-2.4a.962.962,0,0,1,0-1.923Zm8.655,0h2.4a.962.962,0,0,1,0,1.923h-2.4a.962.962,0,0,1,0-1.923Z" transform="translate(-476.658 -161.456)" fill="#e9525b"/>
      <path id="Path_15648" data-name="Path 15648" d="M572.137,424.96v73.089a.961.961,0,0,1-.962.962H450.963a.962.962,0,0,1-.5-1.783l120.212-73.089A.962.962,0,0,1,572.137,424.96Zm-1.923,1.71L454.4,497.088H570.214Z" transform="translate(-272.087 -220.118)" fill="#6f97f8"/>
      <path id="Path_15649" data-name="Path 15649" d="M450.962,554H461.54a.962.962,0,0,1,.962.962V565.54a.962.962,0,0,1-.962.962H450.962a.962.962,0,0,1-.962-.962V554.962A.962.962,0,0,1,450.962,554Zm.962,1.923v8.655h8.655v-8.655Z" transform="translate(-162.452 -287.609)" fill="#6f97f8"/>
      <path id="Path_15650" data-name="Path 15650" d="M575.631,373A40.632,40.632,0,1,1,535,413.632,40.632,40.632,0,0,1,575.631,373Zm0,1.923a38.708,38.708,0,1,0,38.708,38.708A38.708,38.708,0,0,0,575.631,374.923Z" transform="translate(-357.086 -193.643)" fill="#e9525b"/>
      <path id="Path_15651" data-name="Path 15651" d="M652.621,375.962v2.4a.962.962,0,0,1-1.924,0v-2.4a.962.962,0,0,1,1.924,0Zm0,8.655v2.4a.962.962,0,0,1-1.924,0v-2.4a.962.962,0,0,1,1.924,0Zm0,8.655v2.4a.962.962,0,0,1-1.924,0v-2.4a.962.962,0,0,1,1.924,0Zm0,8.655v2.4a.962.962,0,0,1-1.924,0v-2.4a.962.962,0,0,1,1.924,0Zm0,8.655v2.4a.962.962,0,0,1-1.924,0v-2.4a.962.962,0,0,1,1.924,0Zm-5.289,5.289h-2.4a.962.962,0,1,1,0-1.923h2.4a.962.962,0,1,1,0,1.923Zm-8.655,0h-2.4a.962.962,0,0,1,0-1.923h2.4a.962.962,0,1,1,0,1.923Zm-8.655,0h-2.4a.962.962,0,0,1,0-1.923h2.4a.962.962,0,1,1,0,1.923Zm-8.655,0h-2.4a.962.962,0,1,1,0-1.923h2.4a.962.962,0,1,1,0,1.923Z" transform="translate(-433.354 -194.681)" fill="#e9525b"/>
      <path id="Path_15652" data-name="Path 15652" d="M626.346,341.06a1.025,1.025,0,0,0,.679-.228.688.688,0,0,0,.274-.545,1.69,1.69,0,0,0-.372-.821l-1.955-2.707,1.671-2.172a3.306,3.306,0,0,0,.34-.5.931.931,0,0,0,.111-.438.682.682,0,0,0-.271-.541,1.034,1.034,0,0,0-.682-.225.931.931,0,0,0-.6.191,3.515,3.515,0,0,0-.569.633l-1.312,1.783-1.35-1.783a3.741,3.741,0,0,0-.561-.626.918.918,0,0,0-.606-.2.988.988,0,0,0-.679.228.7.7,0,0,0-.26.538,1.6,1.6,0,0,0,.435.935l1.67,2.172-1.884,2.607a1.813,1.813,0,0,0-.427.906.711.711,0,0,0,.279.549,1,1,0,0,0,.675.239.9.9,0,0,0,.591-.191,3.824,3.824,0,0,0,.568-.641l1.548-2.143,1.51,2.143a3.424,3.424,0,0,0,.568.633A.937.937,0,0,0,626.346,341.06Zm13.12-6.732a.967.967,0,0,0-.973-.962h-5.84a.962.962,0,1,0,0,1.923h5.84A.967.967,0,0,0,639.466,334.328Zm0,2.885a.967.967,0,0,0-.973-.962h-5.84a.962.962,0,1,0,0,1.923h5.84A.967.967,0,0,0,639.466,337.213Zm11.659,3.847a1,1,0,0,0,.747-.255.862.862,0,0,0,.247-.622.78.78,0,0,0-.311-.653,1.457,1.457,0,0,0-.9-.24h-3.962a4.551,4.551,0,0,1,.3-.4l.074-.085a10.545,10.545,0,0,1,1.292-1.208l.982-.8q.6-.494.92-.777a5.275,5.275,0,0,0,.952-1.193,3.171,3.171,0,0,0,.467-1.691,3.012,3.012,0,0,0-.224-1.143,3.051,3.051,0,0,0-.626-.971,2.985,2.985,0,0,0-.934-.66,4.91,4.91,0,0,0-1.981-.36,4.591,4.591,0,0,0-1.681.281,3.488,3.488,0,0,0-1.184.739,3.1,3.1,0,0,0-.7,1.019,2.8,2.8,0,0,0-.236,1.08.907.907,0,0,0,.25.675.861.861,0,0,0,.63.248.8.8,0,0,0,.657-.27,2.555,2.555,0,0,0,.4-.772l.067-.185a2.539,2.539,0,0,1,.187-.429,1.78,1.78,0,0,1,1.564-.863,1.836,1.836,0,0,1,.869.21,1.593,1.593,0,0,1,.861,1.447,2.121,2.121,0,0,1-.216.9,3.478,3.478,0,0,1-.63.9,6.678,6.678,0,0,1-1.036.873,11.97,11.97,0,0,0-1.161.971q-.812.739-1.822,1.773a2.574,2.574,0,0,0-.447.7,1.84,1.84,0,0,0-.2.716.989.989,0,0,0,.318.731,1.219,1.219,0,0,0,.888.311Zm8.735,0a1.09,1.09,0,0,0,.706-.253.725.725,0,0,0,.312-.563,3.511,3.511,0,0,0-.2-.79,3.794,3.794,0,0,1-.2-1.18l.014-1.394q0-.4,0-.9a4.067,4.067,0,0,0-.335-1.794,2.027,2.027,0,0,0-1.148-.989,6.42,6.42,0,0,0-2.234-.313,6.026,6.026,0,0,0-2.124.324,2.882,2.882,0,0,0-1.255.823,1.627,1.627,0,0,0-.4,1.029.685.685,0,0,0,.264.555.959.959,0,0,0,.628.217.725.725,0,0,0,.525-.136l.063-.075q.125-.156.355-.488a1.956,1.956,0,0,1,.711-.64,2.791,2.791,0,0,1,1.236-.213,1.6,1.6,0,0,1,1.259.371,1.985,1.985,0,0,1,.344,1.165q-.679.184-1.259.313l-.305.066-.333.069-1.773.347h0a2.865,2.865,0,0,0-1.539.779,1.949,1.949,0,0,0-.56,1.4,2.033,2.033,0,0,0,.34,1.132,2.344,2.344,0,0,0,.967.827,3.292,3.292,0,0,0,1.456.3,4.5,4.5,0,0,0,1.638-.283,6.8,6.8,0,0,0,1.512-.849,4.346,4.346,0,0,0,.687.841A.983.983,0,0,0,659.86,341.06Zm-3.554-1.443a1.415,1.415,0,0,1-.917-.283.853.853,0,0,1-.35-.686.709.709,0,0,1,.3-.607,1.687,1.687,0,0,1,.626-.292l.278-.059q.209-.043.51-.1l.394-.075a11.434,11.434,0,0,0,1.3-.3v.253a2.417,2.417,0,0,1-.276,1.326,1.7,1.7,0,0,1-.749.594A2.674,2.674,0,0,1,656.306,339.617Zm10.276,1.923a3.353,3.353,0,0,0,1.461-.316,3.193,3.193,0,0,0,1.128-.894,4.072,4.072,0,0,0,.71-1.367,5.82,5.82,0,0,0,.244-1.732,5.159,5.159,0,0,0-.438-2.211,3.243,3.243,0,0,0-1.233-1.424,3.447,3.447,0,0,0-1.849-.491,3.291,3.291,0,0,0-1.535.324,4.889,4.889,0,0,0-1.217.932v-3.174a1.315,1.315,0,0,0-.264-.879.936.936,0,0,0-.752-.308.877.877,0,0,0-.725.324,1.5,1.5,0,0,0-.26.955v9.074a1.3,1.3,0,0,0,.268.887.911.911,0,0,0,.717.3.964.964,0,0,0,.729-.3,1.239,1.239,0,0,0,.287-.887v-.205l.166.186q.236.26.4.408a3.3,3.3,0,0,0,.515.384,2.729,2.729,0,0,0,.733.3A3.578,3.578,0,0,0,666.582,341.54ZM666.3,340.1a1.749,1.749,0,0,1-1.458-.727,3.367,3.367,0,0,1-.556-2.08,4.369,4.369,0,0,1,.261-1.59,2.32,2.32,0,0,1,.716-1.021,1.645,1.645,0,0,1,1.036-.353,1.506,1.506,0,0,1,.992.353,2.242,2.242,0,0,1,.657,1,4.6,4.6,0,0,1,.231,1.545,3.509,3.509,0,0,1-.556,2.13A1.622,1.622,0,0,1,666.3,340.1Zm11.53-2.4a1.063,1.063,0,0,0,.8-.267,1.057,1.057,0,0,0,0-1.389,1.065,1.065,0,0,0-.793-.267H675.56a1.064,1.064,0,0,0-.793.267.955.955,0,0,0-.262.7.93.93,0,0,0,.269.691,1.07,1.07,0,0,0,.786.267Zm9.207,3.847a4.473,4.473,0,0,0,1.638-.289,3.888,3.888,0,0,0,1.281-.8,3.453,3.453,0,0,0,1.095-2.523,2.865,2.865,0,0,0-.205-1.09,2.833,2.833,0,0,0-.612-.921,4.206,4.206,0,0,0-1-.74,4.441,4.441,0,0,0,.947-1.075,2.517,2.517,0,0,0,.331-1.321,2.644,2.644,0,0,0-.228-1.094,2.541,2.541,0,0,0-.677-.894,3.127,3.127,0,0,0-1.057-.589,4.208,4.208,0,0,0-1.345-.2,4.545,4.545,0,0,0-1.529.243,3.5,3.5,0,0,0-1.144.643,3.068,3.068,0,0,0-.7.844,1.776,1.776,0,0,0-.24.843.892.892,0,0,0,.255.667.784.784,0,0,0,.559.25,1.06,1.06,0,0,0,.456-.093.537.537,0,0,0,.274-.254q.129-.3.285-.64a2.622,2.622,0,0,1,.331-.555,1.231,1.231,0,0,1,.475-.347,1.927,1.927,0,0,1,.764-.131,1.423,1.423,0,0,1,1.088.428,1.437,1.437,0,0,1,.4,1.021,1.458,1.458,0,0,1-.506,1.194,1.837,1.837,0,0,1-1.205.416h-.311a1.25,1.25,0,0,0-.814.227.738.738,0,0,0-.274.6.763.763,0,0,0,.228.589.913.913,0,0,0,.646.212l.1,0c.059,0,.137-.01.234-.019l.076-.007q.319-.031.472-.031a1.778,1.778,0,0,1,1.353.512,1.972,1.972,0,0,1,.487,1.414,2,2,0,0,1-.285,1.071,1.909,1.909,0,0,1-1.631.932,1.6,1.6,0,0,1-1.274-.52,5.2,5.2,0,0,1-.848-1.591.6.6,0,0,0-.258-.3.75.75,0,0,0-.411-.127.988.988,0,0,0-.711.273.953.953,0,0,0-.285.721,2.258,2.258,0,0,0,.239.878,3.762,3.762,0,0,0,1.9,1.857A3.879,3.879,0,0,0,687.036,341.54Zm9.718,0a3.353,3.353,0,0,0,1.461-.316,3.2,3.2,0,0,0,1.128-.894,4.075,4.075,0,0,0,.709-1.367,5.824,5.824,0,0,0,.244-1.732,5.16,5.16,0,0,0-.438-2.211,3.245,3.245,0,0,0-1.233-1.424,3.447,3.447,0,0,0-1.85-.491,3.29,3.29,0,0,0-1.535.324,4.889,4.889,0,0,0-1.217.932v-3.174a1.315,1.315,0,0,0-.264-.879.935.935,0,0,0-.752-.308.876.876,0,0,0-.724.324,1.5,1.5,0,0,0-.26.955v9.074a1.3,1.3,0,0,0,.268.887.911.911,0,0,0,.717.3.964.964,0,0,0,.729-.3,1.24,1.24,0,0,0,.287-.887v-.205l.166.186q.236.26.4.408a3.319,3.319,0,0,0,.516.384,2.723,2.723,0,0,0,.733.3A3.577,3.577,0,0,0,696.754,341.54Zm-.769-1.443a1.749,1.749,0,0,1-1.458-.727,3.368,3.368,0,0,1-.556-2.08,4.369,4.369,0,0,1,.261-1.59,2.321,2.321,0,0,1,.716-1.021,1.646,1.646,0,0,1,1.037-.353,1.507,1.507,0,0,1,.992.353,2.244,2.244,0,0,1,.656,1,4.6,4.6,0,0,1,.231,1.545,3.51,3.51,0,0,1-.556,2.13A1.621,1.621,0,0,1,695.985,340.1Z" transform="translate(-481.513 -171.32)" fill="#e9525b" fill-rule="evenodd"/>
      <path id="Path_15653" data-name="Path 15653" d="M739.961,383.4h2.4a.962.962,0,0,1,0,1.923h-2.4a.962.962,0,1,1,0-1.923Zm8.655,0h2.4a.962.962,0,1,1,0,1.923h-2.4a.962.962,0,1,1,0-1.923Zm8.655,0h2.4a.962.962,0,1,1,0,1.923h-2.4a.962.962,0,1,1,0-1.923Zm8.655,0h2.4a.962.962,0,1,1,0,1.923h-2.4a.962.962,0,1,1,0-1.923Zm8.655,0h2.4a.962.962,0,0,1,0,1.923h-2.4a.962.962,0,0,1,0-1.923Zm8.655,0h2.4a.962.962,0,0,1,0,1.923h-2.4a.962.962,0,1,1,0-1.923Zm8.655,0h2.4a.962.962,0,1,1,0,1.923h-2.4a.962.962,0,0,1,0-1.923Zm5.695,4.884v2.4a.962.962,0,1,1-1.923,0v-2.4a.962.962,0,1,1,1.923,0Zm0,8.655v2.4a.962.962,0,1,1-1.923,0v-2.4a.962.962,0,0,1,1.923,0Zm0,8.655V408a.962.962,0,1,1-1.923,0v-2.4a.962.962,0,1,1,1.923,0Zm0,8.655v2.4a.962.962,0,1,1-1.923,0v-2.4a.962.962,0,1,1,1.923,0Zm0,8.655v2.4a.962.962,0,1,1-1.923,0v-2.4a.962.962,0,1,1,1.923,0Zm0,8.655v2.4a.962.962,0,1,1-1.923,0v-2.4a.962.962,0,0,1,1.923,0Zm0,8.655v2.4a.962.962,0,1,1-1.923,0v-2.4a.962.962,0,1,1,1.923,0Zm0,8.655v2.4a.962.962,0,1,1-1.923,0v-2.4a.962.962,0,1,1,1.923,0Zm0,8.655v2.4a.962.962,0,1,1-1.923,0v-2.4a.962.962,0,1,1,1.923,0Zm0,8.655v2.4a.962.962,0,1,1-1.923,0v-2.4a.962.962,0,1,1,1.923,0Zm0,8.655v2.137a.961.961,0,0,1-.962.962h-.267a.962.962,0,0,1,0-1.923h.267v.962h-.962v-2.137a.962.962,0,1,1,1.923,0Zm-7.48,3.1h-2.4a.962.962,0,0,1,0-1.923h2.4a.962.962,0,1,1,0,1.923Zm-8.655,0h-2.4a.962.962,0,1,1,0-1.923h2.4a.962.962,0,1,1,0,1.923Zm-8.655,0h-2.4a.962.962,0,1,1,0-1.923h2.4a.962.962,0,0,1,0,1.923Zm-8.655,0h-2.4a.962.962,0,0,1,0-1.923h2.4a.962.962,0,0,1,0,1.923Zm-8.655,0h-2.4a.962.962,0,1,1,0-1.923h2.4a.962.962,0,1,1,0,1.923Zm-8.655,0h-2.4a.962.962,0,0,1,0-1.923h2.4a.962.962,0,1,1,0,1.923Z" transform="translate(-636.503 -199.042)" fill="#e9525b"/>
      <g id="Mask_Group_45" data-name="Mask Group 45" transform="translate(337.977 135.119)" clip-path="url(#clip-path)">
        <g id="Group_4678" data-name="Group 4678" transform="translate(-27.312 28.413)">
          <path id="Path_16329" data-name="Path 16329" d="M292.479,287.989a26.136,26.136,0,0,0,3.854-5.617c.586-1.59,6.184-7.295,8.306-13.578a38.173,38.173,0,0,1,4.444-4.762c1.161-.868,1.52,1.226.76,2.673a6.2,6.2,0,0,1-1.607,2.089l-1.6,2.982-.991,3.87,7.219.262q5.088,2.544,5.088,2.895a2.025,2.025,0,0,1-1,1.466q-.326,1.522-1.406,1.519a4.582,4.582,0,0,1-1.954-.413,7.212,7.212,0,0,1-2.414,0l-2.084.795-.007.2a8.872,8.872,0,0,1,4.8,1.243c1.663,1.15.435,2.134-.291,2.134a14.9,14.9,0,0,1-3.1-.686h-1.181q-3.659,4.545-5.6,5.243c-1.944.7-3.507,3.178-4.774,4.183Q297.662,295.495,292.479,287.989Z" transform="translate(-188.835 -238.43)" fill="#cde2f4" fill-rule="evenodd"/>
          <path id="Path_16330" data-name="Path 16330" d="M301.408,334.615l-7.219-.262-.333,1.261a.335.335,0,0,0,.478.383l.858-.444-.137.462q-3.322,11.222-2.361,12.8,1.873-.984,5.069-4.936l.088-.109h1.181l.184.053.36.1a12.754,12.754,0,0,0,2.528.532h.029c.726,0,1.954-.984.291-2.134a8.75,8.75,0,0,0-4.674-1.239l-.122,0,.007-.2,2.084-.795a7.215,7.215,0,0,0,2.414,0,4.582,4.582,0,0,0,1.954.413q1.08,0,1.406-1.519a2.025,2.025,0,0,0,1-1.466q0-.33-4.5-2.6Z" transform="translate(-177.38 -297.137)" fill="#cde2f4" fill-rule="evenodd"/>
          <path id="Path_16331" data-name="Path 16331" d="M302.846,348.4l-.139-.079-6.34,1.557a.4.4,0,0,0,.165.787l.027-.006,6.032-1.481.019.01a26.562,26.562,0,0,0,4.839,1.731l.257.072a.4.4,0,0,0,.215-.775l-.251-.07a25.5,25.5,0,0,1-4.726-1.691Z" transform="translate(-179.7 -308.764)" fill="#cde2f4"/>
          <path id="Path_16332" data-name="Path 16332" d="M328.063,339.146a29.143,29.143,0,0,0,5.15-7.049c1.5-3.158,4.913-2.978,4.913-5.945q0-2.967-5.031,1.219l-4.444,2.25-2.377,1.178" transform="translate(-214.672 -289.285)" fill="#cde2f4" fill-rule="evenodd"/>
          <path id="Path_16333" data-name="Path 16333" d="M358.906,370.568a.4.4,0,0,0-.523.224,7.589,7.589,0,0,1-2.861,3.786l-.072.044-.212.128.22,2.907a.4.4,0,0,0,.8-.033V377.6l-.183-2.418.017-.011a8.415,8.415,0,0,0,2.991-3.967l.044-.109A.4.4,0,0,0,358.906,370.568Z" transform="translate(-240.559 -327.259)" fill="#cde2f4"/>
          <path id="Path_16314" data-name="Path 16314" d="M429.562,360q-22.639,10.714-26.253,14.717c-3.615,4-2.411,7.146-.923,14.261s6.282,38.23,7.722,39.735a3.661,3.661,0,0,0,3.413,1.18l-1.195,12.4a5.7,5.7,0,0,0,3.384,5.765,56.828,56.828,0,0,0,23.028,4.442,79.589,79.589,0,0,0,25.942-4.462l.283-.1a5.7,5.7,0,0,0,3.736-6.426l-4.692-25.166-.151-.8q-.517-2.716,2.7-16.773,9.434,10.576,15.1,10.576,5.5,0,29.282-32.02l.482-.65a2.346,2.346,0,0,0,.059-2.71,20.977,20.977,0,0,0-3.186-3.758,18.679,18.679,0,0,0-3.577-2.55l-.168-.092a2.346,2.346,0,0,0-2.731.359l-.649.614q-15.766,14.9-17.587,14.9-1.655,0-10.811-12.291a16.757,16.757,0,0,0-8.439-5.983L447.786,360Z" transform="translate(-400.933 -318.486)" fill="#b9d5ee" fill-rule="evenodd"/>
          <path id="Path_16315" data-name="Path 16315" d="M698.221,436.752a.335.335,0,0,0-.655.142l.005.024,1.208,4.713a16.416,16.416,0,0,1,.294,6.759l-.026.153-.831,4.743a.335.335,0,0,0,.655.14l.005-.024.831-4.743a17.091,17.091,0,0,0-.241-7.041l-.039-.153Z" transform="translate(-638.73 -382.166)" fill="#a1bdd5"/>
          <path id="Path_16334" data-name="Path 16334" d="M800.1,393.6l-6.569,6.418-9.731-6.088,5.045-1.171,2.332,1.4,2.1,1.84,1.473-1.84,2.566-2.931Z" transform="translate(-753.314 -344.486)" fill="#a1bdd5" fill-rule="evenodd"/>
          <path id="Path_16320" data-name="Path 16320" d="M588.967,527.474l8.111-24.268a3.184,3.184,0,0,1,3.466-2.143l15.754,2.232a1.675,1.675,0,0,1,1.326,2.267l-8.607,22.091a3.184,3.184,0,0,1-2.967,2.028h-15.5a1.676,1.676,0,0,1-1.589-2.207Z" transform="translate(-538.293 -435.884)" fill="#b6d4e5" fill-rule="evenodd"/>
          <path id="Path_16321" data-name="Path 16321" d="M585.967,529.474l8.111-24.268a3.184,3.184,0,0,1,3.466-2.143l15.754,2.232a1.676,1.676,0,0,1,1.326,2.267l-8.606,22.091a3.184,3.184,0,0,1-2.967,2.028h-15.5a1.676,1.676,0,0,1-1.589-2.207Z" transform="translate(-534.789 -437.548)" fill="#e9f0f6" fill-rule="evenodd"/>
          <path id="Path_16323" data-name="Path 16323" d="M685.911,557l-5.321,3.655-6.725,6.651-1.848.7h0q3.126,2.936,3.226,8.771l2.351-2.1,7.893-1.59,4.254-1.344,3.274-2.747h0a1.229,1.229,0,0,0,.16-1.7l-.028-.034L689.2,569.65l-3.285.555,3.6-1.364,3.631-2.7.036-.02a1.1,1.1,0,0,0,.486-1.323l-.015-.039-.2-.5,1.194-1.392a1.375,1.375,0,0,0,.282-1.258.508.508,0,0,0-.08-.165.5.5,0,0,0-.674-.123l-.026.018-4.406,3.252-4.849,1.423a.146.146,0,0,1-.186-.139.273.273,0,0,1,.161-.249l.023-.009,4.851-1.687,3.765-3.537a.973.973,0,0,0,.233-1.083.588.588,0,0,0-.048-.091.559.559,0,0,0-.745-.179l-.028.017-4.395,2.874-4.3.382Z" transform="translate(-629.46 -482.474)" fill="#cde2f4" fill-rule="evenodd"/>
          <path id="Path_16335" data-name="Path 16335" d="M807,281.791v-2.055l-5.239-11.218-9.857-2.534-2.607,4.949-.512,10.857,12.131,9.954a4.874,4.874,0,0,0,3.442-2.453A29.834,29.834,0,0,0,807,281.791Z" transform="translate(-761.052 -240.225)" fill="#cde2f4" fill-rule="evenodd"/>
          <path id="Path_16352" data-name="Path 16352" d="M737.573,175.461q1.22,6.189-3.943,8.063l-4.681-5.876,3.648-4.495Z" transform="translate(-681.831 -162.95)" fill="#a1bdd5" fill-rule="evenodd"/>
          <path id="Path_16336" data-name="Path 16336" d="M753.417,170.458q10.506,4.328,15.117,2.164,3.629-9.773,3.245-14.426t-.623-14.359q-6.217-7.183-19.01-5.187t-5.721,31.235Z" transform="translate(-718.347 -133.867)" fill="#cde2f4" fill-rule="evenodd"/>
          <path id="Path_16337" data-name="Path 16337" d="M790.745,274.05l-.951,3.6-.512,10.857,8.974,7.364.133.017c-3.6-5.778,1.484-9,4.288-8.467l.084.017a5.036,5.036,0,0,0,4.652-1.021,12.216,12.216,0,0,0-2.6-.33h-.158a5.9,5.9,0,0,1-3.144-1.22l-.937-.43a53.624,53.624,0,0,0-5.106-2.168q-1.01-.275-1.468-3.377C791.287,277.648,792.739,275.015,790.745,274.05Z" transform="translate(-761.549 -246.939)" fill="#cde2f4" fill-rule="evenodd"/>
          <path id="Path_16338" data-name="Path 16338" d="M807.14,388.487l-4.9,7.815-8.47-8.3,4.945,1.713,1.238.718,1.975,1.751,1.486-1.751,2.923-3.665Z" transform="translate(-762.027 -340.767)" fill="#a1bdd5" fill-rule="evenodd"/>
          <path id="Path_16339" data-name="Path 16339" d="M771.574,364.706q2.765-2.979,5.522,1.044l.141-.408q2.213-6.448,1.6-8.175l-.013-.035h0a1.931,1.931,0,0,0-1.8-1.24h-.934Z" transform="translate(-730.139 -315.066)" fill="#a1bdd5" fill-rule="evenodd"/>
          <path id="Path_16340" data-name="Path 16340" d="M837.9,358.818l10.194,8.338-.06-.033c-.524-.282-4.336-2.184-6.3,1.063-3.953-3.162-4.835-6.158-5.074-8.074l-.007-.058h0a1.1,1.1,0,0,1,.966-1.228,1.091,1.091,0,0,1,.131-.008Z" transform="translate(-810.173 -317.502)" fill="#a1bdd5" fill-rule="evenodd"/>
          <path id="Path_16341" data-name="Path 16341" d="M771.159,293.7a.4.4,0,0,0-.657.464,5.761,5.761,0,0,0,5.9,2.435.4.4,0,0,0-.109-.8A4.962,4.962,0,0,1,771.159,293.7Z" transform="translate(-727.723 -263.155)" fill="#cde2f4"/>
          <ellipse id="Ellipse_568" data-name="Ellipse 568" cx="0.752" cy="1.171" rx="0.752" ry="1.171" transform="translate(50.795 21.243)" fill="#cde2f4"/>
          <ellipse id="Ellipse_569" data-name="Ellipse 569" cx="0.752" cy="1.171" rx="0.752" ry="1.171" transform="translate(42.94 21.076)" fill="#cde2f4"/>
          <path id="Path_16353" data-name="Path 16353" d="M766.265,244.906a.4.4,0,1,0-.77.231l.223.74q.993,3.285,1.483,4.6l.033.088-.012.016a1.6,1.6,0,0,1-2.153.521l-.051-.023a.4.4,0,0,0-.342.728,2.45,2.45,0,0,0,3.344-.956.4.4,0,0,0,.041-.376l-.045-.115Q767.494,249.008,766.265,244.906Z" transform="translate(-718.064 -222.439)" fill="#cde2f4"/>
          <path id="Path_16354" data-name="Path 16354" d="M791.08,217.913l.3-.083.3-.079q4.474-1.172,5.091-.316c.72,1-.715,2.642-2.808,2.258a11.224,11.224,0,0,1-2.807-.9l-.147-.071a.442.442,0,0,1-.2-.569A.408.408,0,0,1,791.08,217.913Z" transform="translate(-751.348 -199.51)" fill="#a1bdd5" fill-rule="evenodd"/>
          <path id="Path_16355" data-name="Path 16355" d="M744.013,218.711l-.262-.065q-4.1-1-4.661-.267c-.632.823.594,2.149,2.409,1.813a10.341,10.341,0,0,0,2.437-.766l.128-.06a.358.358,0,0,0,.175-.467A.337.337,0,0,0,744.013,218.711Z" transform="translate(-689.966 -200.341)" fill="#a1bdd5" fill-rule="evenodd"/>
          <path id="Path_16342" data-name="Path 16342" d="M747.052,126.152q5.364,2.509,5.363-7.044l-2.309.705a10.584,10.584,0,0,0-1.158-5.385l-1.9,2.19a4.614,4.614,0,0,0-1.733-4.355,50.474,50.474,0,0,1-11.8,1.32h-.275c-6.318-.046-13.372,2.285-15.2,4.544s-2.493,10.126-1.761,12.328l.41,1.215q1.268,3.73,5.58,16.223,2.115-4.868,1.2-8.518a3.5,3.5,0,0,1-3.124-4.206c.333-3.509,5.107-2.646,5.107-.574l.344,2.979a1.747,1.747,0,0,0,1.726-1.474l.536-3.383a3.736,3.736,0,0,0,2.235-3.422v-1.911a21.6,21.6,0,0,0-3.882-1.919c.241-.129,3.97,1.537,4.215,1.423a15.843,15.843,0,0,1,6.681-1.433l.4.009Q741.385,125.563,747.052,126.152Z" transform="translate(-694.268 -112.263)" fill="#a1bdd5" fill-rule="evenodd"/>
          <path id="Path_16343" data-name="Path 16343" d="M809.916,300.774a.4.4,0,1,0-.793.137c.321,1.862.918,3.089,1.831,3.664l.079.048a85.477,85.477,0,0,0,8.022,3.486.4.4,0,0,0,.3-.746l-.925-.373a70.513,70.513,0,0,1-7.049-3.1C810.705,303.468,810.2,302.434,809.916,300.774Z" transform="translate(-777.068 -268.907)" fill="#cde2f4"/>
          <path id="Path_16326" data-name="Path 16326" d="M818.2,620.428a1.341,1.341,0,0,0-1.447-.415l-.563.185q-13.425,4.419-17.744,6.852l-.1.055h-.089c-2.2,0-3.455.392-3.737,1.308l-.011.038c-.293,1.071-1.652,2.081-3.81,2.663a.335.335,0,1,0,.174.647c2.365-.636,3.914-1.789,4.283-3.133.15-.547,1.227-.875,3.274-.852a.336.336,0,0,0,.172-.045q4.231-2.451,18.356-7.081a.67.67,0,0,1,.723.207,11,11,0,0,1,2.213,3.64l.029.1a22.018,22.018,0,0,1,.479,4.511.67.67,0,0,1-.264.556q-16.4,12.484-32.808,16.272a.335.335,0,0,0,.151.653q16.55-3.824,33.063-16.391a1.341,1.341,0,0,0,.528-1.112l-.014-.367a20.1,20.1,0,0,0-.521-4.413A11.6,11.6,0,0,0,818.2,620.428Z" transform="translate(-774.838 -534.873)" fill="#a1bdd5"/>
          <path id="Path_16327" data-name="Path 16327" d="M938.326,526a.336.336,0,0,0-.3.364q.942,10.445,2.179,21.554a.335.335,0,0,0,.333.3h.067c.753.025.829.479.145,1.754a.335.335,0,0,0,.591.317l.057-.109c.762-1.48.613-2.45-.508-2.61l-.05-.007-.057-.511q-1.138-10.287-2.022-20l-.068-.747a.335.335,0,0,0-.339-.3Z" transform="translate(-920.928 -456.668)" fill="#a1bdd5"/>
          <path id="Path_16351" data-name="Path 16351" d="M821.367,440a.335.335,0,0,0-.335.309v.025L821,447.958a.335.335,0,0,0,.669.028v-.025l.031-7.624A.335.335,0,0,0,821.367,440Z" transform="translate(-781.152 -385.08)" fill="#a1bdd5"/>
          <path id="Path_16356" data-name="Path 16356" d="M888.012,243.608c-1.689-.087-2.559.722-2.392,2.278a.4.4,0,0,0,.8-.086c-.111-1.039.333-1.452,1.55-1.389a.4.4,0,1,0,.041-.8Z" transform="translate(-858.668 -221.593)" fill="#a1bdd5"/>
        </g>
      </g>
    </g>
    <path id="Path_15936" data-name="Path 15936" d="M292.479,333.156q9.376-11.554,11.06-16.117c1.683-4.563,17.744-20.932,23.833-38.962q9.421-11.173,12.752-13.663c3.33-2.491,4.362,3.518,2.181,7.67a17.792,17.792,0,0,1-4.612,5.994l-4.594,8.557-2.843,11.106,20.714.752q14.6,7.3,14.6,8.306c0,1.005-.754,2.736-2.876,4.207q-.936,4.368-4.036,4.358a13.148,13.148,0,0,1-5.606-1.185,20.708,20.708,0,0,1-6.928,0l-5.98,2.28-.02.581q8.992.265,13.763,3.566c4.77,3.3,1.247,6.124-.835,6.124q-2.082,0-8.9-1.969h-3.39q-10.5,13.041-16.077,15.045c-5.578,2-10.063,9.118-13.7,12Q307.351,354.694,292.479,333.156Z" transform="translate(-15995.785 -3665.445)" fill="#fdb4a3" fill-rule="evenodd"/>
    <path id="Path_15937" data-name="Path 15937" d="M318.1,335.105l-20.713-.752-.954,3.619a.962.962,0,0,0,1.372,1.1l2.462-1.274-.394,1.326q-9.533,32.2-6.775,36.725,5.374-2.822,14.546-14.163l.252-.313h3.39l.527.151,1.032.29a36.579,36.579,0,0,0,7.255,1.526h.084c2.082,0,5.606-2.824.835-6.124q-4.677-3.236-13.412-3.554l-.351-.012.02-.581,5.98-2.28a20.708,20.708,0,0,0,6.928,0,13.147,13.147,0,0,0,5.606,1.185q3.1.009,4.036-4.358c2.122-1.471,2.876-3.2,2.876-4.207q0-.946-12.915-7.459Z" transform="translate(-15962.918 -3702.058)" fill="#f69883" fill-rule="evenodd"/>
    <path id="Path_15938" data-name="Path 15938" d="M315.531,348.547l-.4-.226-18.192,4.467a1.154,1.154,0,0,0,.473,2.258l.077-.016,17.31-4.251.055.03c2.823,1.5,7.44,3.149,13.885,4.966l.737.206a1.154,1.154,0,0,0,.618-2.224l-.72-.2c-6.41-1.807-10.942-3.432-13.56-4.852Z" transform="translate(-15962.879 -3709.31)" fill="#2e363a"/>
    <path id="Path_15939" data-name="Path 15939" d="M331.408,365.74q10.466-11.163,14.778-20.226c4.312-9.063,14.1-8.544,14.1-17.06q0-8.515-14.438,3.5l-12.751,6.457-6.82,3.382" transform="translate(-16006.75 -3697.162)" fill="#fdb4a3" fill-rule="evenodd"/>
    <path id="Path_15940" data-name="Path 15940" d="M365.762,370.622a1.154,1.154,0,0,0-1.5.642c-2.053,5.124-4.794,8.733-8.209,10.865l-.206.126-.609.366.63,8.34a1.154,1.154,0,0,0,2.305-.1l0-.079-.525-6.94.048-.031q5.395-3.585,8.584-11.382l.127-.313A1.154,1.154,0,0,0,365.762,370.622Z" transform="translate(-16026.881 -3720.844)" fill="#2e363a"/>
    <path id="Path_15941" data-name="Path 15941" d="M483.085,360q-64.964,30.744-75.332,42.232c-10.372,11.488-6.919,20.507-2.65,40.922s18.027,109.7,22.158,114.019a10.507,10.507,0,0,0,9.793,3.386l-3.429,35.583a16.35,16.35,0,0,0,9.71,16.542q29.078,12.746,66.079,12.746a228.383,228.383,0,0,0,74.44-12.8l.812-.28a16.349,16.349,0,0,0,10.72-18.439l-13.463-72.213q-.284-1.512-.433-2.294-1.482-7.793,7.743-48.131,27.072,30.348,43.315,30.348,15.771,0,84.023-91.881l1.385-1.866a6.732,6.732,0,0,0,.169-7.777,60.2,60.2,0,0,0-9.143-10.782,53.586,53.586,0,0,0-10.264-7.316l-.481-.264a6.731,6.731,0,0,0-7.838,1.03l-1.863,1.762Q643.3,427.27,638.07,427.27q-4.747,0-31.023-35.269a48.082,48.082,0,0,0-24.216-17.168L535.376,360Z" transform="translate(-16401.646 -3715.373)" fill="#229581" fill-rule="evenodd"/>
    <path id="Path_15942" data-name="Path 15942" d="M699.454,437.223a.962.962,0,0,0-1.878.408l.015.07,3.468,13.524a47.118,47.118,0,0,1,.845,19.4l-.074.44-2.384,13.61a.962.962,0,0,0,1.88.4l.015-.07,2.384-13.61a49.045,49.045,0,0,0-.691-20.2l-.111-.44Z" transform="translate(-16529.461 -3755.087)" fill="#0d594c"/>
    <path id="Path_15943" data-name="Path 15943" d="M830.572,398.028l-18.851,18.417L783.8,398.977l14.477-3.361,6.691,4.03,6.034,5.28,4.226-5.28,7.364-8.412Z" transform="translate(-16697.043 -3731.588)" fill="#177666" fill-rule="evenodd"/>
    <path id="Path_15944" data-name="Path 15944" d="M443,565.316a28.92,28.92,0,0,1-10.718,1.62q9.5,6.148,16.814,6.148,14.289,0,71.656-75.42L516.57,501.5Q449.868,562.628,443,565.316Z" transform="translate(-16218.194 -3786.841)" fill="#177666" fill-rule="evenodd"/>
    <path id="Path_15945" data-name="Path 15945" d="M881.4,596.327l-1.193,1,.03.762c0,.128.009.258.013.388a2.887,2.887,0,0,1-1.041,2.318l-.1.075-.944.716q-46.288,34.979-92.628,45.928l-.579.135-.094.212-.235.217-3.4,35.281a16.349,16.349,0,0,0,9.71,16.542A153.111,153.111,0,0,0,837.9,711.743q-2.559-5.34-5.451-10.283c-15.561-26.586,40.919-77.236,47.844-87.315q6.851-9.972,1.229-17.652ZM798.8,528l-.25,0,6.25,61.828,2.886,1.36v3.762q2.544-1.3,8.564-1.231a95.32,95.32,0,0,1,9.459-4.624c-9.18-13.408-15-29.556-14.852-40.021q.288-20.818-11.809-21.071Z" transform="translate(-16749.254 -3802.588)" fill="#177666" fill-rule="evenodd"/>
    <path id="Path_15946" data-name="Path 15946" d="M585.413,498.243a.961.961,0,0,0-1.358.08l-1.592,1.8q-10.6,12.015-15.3,18.472a.962.962,0,1,0,1.556,1.131l.278-.38q5.019-6.828,16.493-19.743A.962.962,0,0,0,585.413,498.243Z" transform="translate(-16347.944 -3787.015)" fill="#0d594c"/>
    <path id="Path_15947" data-name="Path 15947" d="M592.19,496.726q-13.175-2.309-23.664,2.736a.962.962,0,0,0,.835,1.733q9.91-4.777,22.5-2.574a.962.962,0,1,0,.332-1.895Z" transform="translate(-16355.678 -3785.977)" fill="#0d594c"/>
    <path id="Path_15948" data-name="Path 15948" d="M589.129,576.909,612.4,507.271a9.136,9.136,0,0,1,9.946-6.15l45.205,6.4a4.809,4.809,0,0,1,3.806,6.506l-24.7,63.389a9.135,9.135,0,0,1-8.513,5.82H593.689a4.809,4.809,0,0,1-4.56-6.333Z" transform="translate(-16444.432 -3788.589)" fill="#b6d4e5" fill-rule="evenodd"/>
    <path id="Path_15949" data-name="Path 15949" d="M586.129,578.909,609.4,509.271a9.136,9.136,0,0,1,9.946-6.15l45.205,6.4a4.809,4.809,0,0,1,3.806,6.506l-24.7,63.389a9.135,9.135,0,0,1-8.513,5.82H590.689a4.808,4.808,0,0,1-4.56-6.333Z" transform="translate(-16439.992 -3789.627)" fill="#e9f0f6" fill-rule="evenodd"/>
    <path id="Path_15950" data-name="Path 15950" d="M660.533,591.983a8.248,8.248,0,0,0,7.822-6.491A5.3,5.3,0,0,0,662.93,579a8.248,8.248,0,0,0-7.822,6.492A5.3,5.3,0,0,0,660.533,591.983Z" transform="translate(-16472.998 -3829.067)" fill="#b6d4e5" fill-rule="evenodd"/>
    <path id="Path_15951" data-name="Path 15951" d="M711.884,557l-15.267,10.489-19.3,19.085-5.3,2h0q8.969,8.426,9.256,25.167l6.745-6.033,22.65-4.563,12.206-3.857,9.394-7.882h0a3.527,3.527,0,0,0,.46-4.876l-.081-.1L721.31,593.3l-9.426,1.593,10.343-3.915,10.421-7.737.1-.057a3.142,3.142,0,0,0,1.394-3.8l-.043-.112-.584-1.439,3.427-3.994a3.943,3.943,0,0,0,.81-3.608,1.436,1.436,0,0,0-2.163-.828l-.074.052-12.642,9.333-13.913,4.084a.417.417,0,0,1-.535-.4.784.784,0,0,1,.461-.714l.066-.026,13.921-4.841,10.8-10.149a2.792,2.792,0,0,0,.667-3.106,1.6,1.6,0,0,0-2.276-.776l-.08.05-12.611,8.246-12.327,1.1Z" transform="translate(-16550.613 -3817.646)" fill="#fdb4a3" fill-rule="evenodd"/>
    <path id="Path_15952" data-name="Path 15952" d="M704.864,599.434a.962.962,0,0,0-1.264-.316l-.068.04L693.5,605.748l-12.8,3.872a.961.961,0,0,0-.66,1.13l.018.069a.962.962,0,0,0,1.13.66l.069-.018,13.064-3.952,10.266-6.743A.962.962,0,0,0,704.864,599.434Z" transform="translate(-16521.588 -3839.449)" fill="#583e40"/>
    <path id="Path_15953" data-name="Path 15953" d="M736.759,581.061a.962.962,0,0,0-1.209.494l-.029.069-1.443,3.847a.962.962,0,0,0,1.772.744l.029-.069,1.443-3.847A.962.962,0,0,0,736.759,581.061Z" transform="translate(-16579.914 -3830.105)" fill="#583e40"/>
    <path id="Path_15954" data-name="Path 15954" d="M841.054,311.34v-5.9L826.02,273.255l-28.286-7.27-7.482,14.2-1.468,31.154L823.594,339.9q6.2-1.028,9.877-7.038T841.054,311.34Z" transform="translate(-16709.92 -3666.565)" fill="#fdb4a3" fill-rule="evenodd"/>
    <path id="Path_15955" data-name="Path 15955" d="M753.7,179.776q3.5,17.759-11.313,23.136l-13.433-16.861,10.469-12.9Z" transform="translate(-16594.455 -3618.371)" fill="#2e363a" fill-rule="evenodd"/>
    <path id="Path_15956" data-name="Path 15956" d="M771.195,230.733q30.146,12.42,43.379,6.21,10.412-28.044,9.311-41.395t-1.788-41.2q-17.839-20.613-54.548-14.884T751.131,229.09Z" transform="translate(-16671.277 -3600.233)" fill="#fdb4a3" fill-rule="evenodd"/>
    <path id="Path_15957" data-name="Path 15957" d="M793.479,274.05l-2.727,10.323-1.468,31.154,25.753,21.13.382.049c-10.32-16.581,4.259-25.818,12.3-24.3l.241.05q7.991,1.757,13.349-2.929a35.044,35.044,0,0,0-7.461-.948l-.452,0q-3.837,0-9.022-3.5l-2.687-1.235q-12.034-5.508-14.653-6.221-2.9-.789-4.214-9.691C795.035,284.373,799.2,276.819,793.479,274.05Z" transform="translate(-16710.418 -3670.752)" fill="#f69883" fill-rule="evenodd"/>
    <path id="Path_15958" data-name="Path 15958" d="M832.134,391.7l-14.056,22.424-24.307-23.816,14.19,4.914,3.553,2.061,5.667,5.026,4.265-5.026,8.388-10.518Z" transform="translate(-16703.396 -3729.269)" fill="#d8d8d8" fill-rule="evenodd"/>
    <path id="Path_15959" data-name="Path 15959" d="M771.574,381.182q7.934-8.549,15.846,3l.4-1.17q6.352-18.5,4.589-23.458l-.038-.1h0a5.543,5.543,0,0,0-5.175-3.557h-2.68Z" transform="translate(-16653.387 -3713.24)" fill="#fff" fill-rule="evenodd"/>
    <path id="Path_15960" data-name="Path 15960" d="M840.245,358.818,869.5,382.743l-.173-.1c-1.5-.81-12.442-6.266-18.07,3.05-11.345-9.075-13.874-17.671-14.558-23.168l-.02-.166h0a3.169,3.169,0,0,1,3.148-3.545Z" transform="translate(-16761.377 -3714.759)" fill="#fff" fill-rule="evenodd"/>
    <path id="Path_15961" data-name="Path 15961" d="M772.525,294.019a1.154,1.154,0,1,0-1.886,1.331c3.978,5.636,9.68,7.98,16.924,6.986a1.154,1.154,0,0,0-.314-2.287C780.842,300.929,776,298.936,772.525,294.019Z" transform="translate(-16648.6 -3680.865)" fill="#2e363a"/>
    <ellipse id="Ellipse_551" data-name="Ellipse 551" cx="2.158" cy="3.36" rx="2.158" ry="3.36" transform="translate(-15854.96 -3413.539)" fill="#2e363a"/>
    <ellipse id="Ellipse_552" data-name="Ellipse 552" cx="2.158" cy="3.36" rx="2.158" ry="3.36" transform="translate(-15877.495 -3414.019)" fill="#2e363a"/>
    <path id="Path_15962" data-name="Path 15962" d="M769.67,245.442a1.154,1.154,0,1,0-2.211.662l.638,2.124q2.848,9.426,4.254,13.2l.1.254-.036.046c-1.7,2.16-3.658,2.625-6.177,1.495l-.146-.067a1.154,1.154,0,1,0-.98,2.089c3.821,1.793,7.147.834,9.594-2.742a1.152,1.152,0,0,0,.119-1.079l-.13-.331Q773.2,257.215,769.67,245.442Z" transform="translate(-16632.07 -3655.472)" fill="#2e363a"/>
    <path id="Path_15963" data-name="Path 15963" d="M791.642,219.483l.873-.238.859-.228q12.84-3.363,14.608-.906c2.065,2.869-2.052,7.581-8.058,6.478A32.2,32.2,0,0,1,791.87,222l-.423-.2a1.268,1.268,0,0,1-.562-1.633A1.172,1.172,0,0,1,791.642,219.483Z" transform="translate(-16678.348 -3641.173)" fill="#2e363a" fill-rule="evenodd"/>
    <path id="Path_15964" data-name="Path 15964" d="M753.531,219.906l-.753-.185q-11.769-2.856-13.374-.766c-1.814,2.362,1.705,6.165,6.912,5.2a29.669,29.669,0,0,0,6.994-2.2l.368-.171a1.027,1.027,0,0,0,.5-1.339A.967.967,0,0,0,753.531,219.906Z" transform="translate(-16599.158 -3641.691)" fill="#2e363a" fill-rule="evenodd"/>
    <path id="Path_15965" data-name="Path 15965" d="M805.132,152.116q15.391,7.2,15.391-20.213l-6.625,2.023q-.1-10.251-3.322-15.452l-5.444,6.285q1.122-7.094-4.971-12.5a144.835,144.835,0,0,1-33.87,3.788l-.788,0c-18.131-.133-38.372,6.558-43.625,13.039s-7.155,29.056-5.054,35.375L718,167.948q3.64,10.7,16.012,46.552,6.067-13.968,3.429-24.441-9.918-2-8.964-12.069c.955-10.069,14.656-7.592,14.656-1.648l.986,8.549a5.015,5.015,0,0,0,4.953-4.23l1.539-9.709a10.721,10.721,0,0,0,6.414-9.818v-5.485q0-.536-11.14-5.507c.691-.371,11.392,4.412,12.1,4.084a45.463,45.463,0,0,1,19.17-4.111l1.137.027Q788.87,150.427,805.132,152.116Z" transform="translate(-16654.379 -3586.76)" fill="#2e363a" fill-rule="evenodd"/>
    <path id="Path_15966" data-name="Path 15966" d="M811.409,301.4a1.154,1.154,0,0,0-2.274.392c.922,5.343,2.634,8.864,5.255,10.514l.228.139c2.609,1.555,10.234,4.865,23.02,10a1.154,1.154,0,0,0,.861-2.141l-2.653-1.07c-11.4-4.616-18.184-7.6-20.227-8.885C813.673,309.127,812.23,306.159,811.409,301.4Z" transform="translate(-16717.861 -3684.452)" fill="#2e363a"/>
    <path id="Path_15967" data-name="Path 15967" d="M876.385,621.328a3.846,3.846,0,0,0-4.15-1.19l-1.616.531Q832.1,633.349,819.7,640.332l-.276.157h-.254c-6.305-.013-9.914,1.124-10.722,3.755l-.031.108c-.842,3.073-4.739,5.973-10.934,7.641a.962.962,0,0,0,.5,1.857c6.786-1.827,11.232-5.135,12.289-8.99.43-1.569,3.522-2.512,9.393-2.444a.966.966,0,0,0,.493-.129q12.141-7.033,52.673-20.319a1.924,1.924,0,0,1,2.075.595q5.06,6.059,6.349,10.446l.083.291c.706,2.584,1.17,6.912,1.375,12.944a1.924,1.924,0,0,1-.757,1.6q-47.072,35.821-94.142,46.691a.962.962,0,0,0,.433,1.874q47.492-10.973,94.874-47.035a3.849,3.849,0,0,0,1.515-3.192l-.039-1.052c-.237-5.865-.73-10.074-1.5-12.663Q881.68,627.649,876.385,621.328Z" transform="translate(-16752.684 -3850.324)" fill="#0d594c"/>
    <path id="Path_15968" data-name="Path 15968" d="M938.9,526a.962.962,0,0,0-.871,1.044q2.7,29.971,6.252,61.848a.962.962,0,0,0,.956.855l.193,0c2.162.071,2.378,1.375.417,5.033a.962.962,0,1,0,1.7.909l.165-.313c2.186-4.246,1.76-7.031-1.459-7.489l-.144-.019-.163-1.466q-3.266-29.518-5.8-57.393l-.194-2.142a.962.962,0,0,0-.973-.875Z" transform="translate(-16889.688 -3801.552)" fill="#0d594c"/>
    <path id="Path_15969" data-name="Path 15969" d="M417.654,423.313a.962.962,0,0,0-1.421,1.3q11.049,12.117,21.456,17.051a.962.962,0,0,0,.823-1.739Q428.475,435.17,417.654,423.313Z" transform="translate(-16128.666 -3748.079)" fill="#0d594c"/>
    <path id="Path_15970" data-name="Path 15970" d="M413.99,443.282a.962.962,0,0,0-1.3-.056l-.062.056-3.366,3.366a.962.962,0,0,0,1.3,1.416l.061-.056,3.366-3.366A.961.961,0,0,0,413.99,443.282Z" transform="translate(-16100.51 -3758.462)" fill="#0d594c"/>
    <path id="Path_15971" data-name="Path 15971" d="M420.943,438.238a.962.962,0,0,0-1.3.03l-.057.06-3.366,3.847a.962.962,0,0,0,1.39,1.327l.057-.06,3.366-3.847A.962.962,0,0,0,420.943,438.238Z" transform="translate(-16110.876 -3755.866)" fill="#0d594c"/>
    <path id="Path_15972" data-name="Path 15972" d="M426.952,432.282a.962.962,0,0,0-1.3-.056l-.062.056-4.328,4.328a.962.962,0,0,0,1.3,1.416l.061-.056,4.328-4.328A.962.962,0,0,0,426.952,432.282Z" transform="translate(-16119.241 -3752.752)" fill="#0d594c"/>
    <path id="Path_15973" data-name="Path 15973" d="M434.915,424.247a.962.962,0,0,0-1.3.012l-.058.059-4.328,4.808a.962.962,0,0,0,1.371,1.346l.058-.059,4.328-4.808A.962.962,0,0,0,434.915,424.247Z" transform="translate(-16131.088 -3748.598)" fill="#0d594c"/>
    <path id="Path_15974" data-name="Path 15974" d="M443.915,416.246a.962.962,0,0,0-1.3.013l-.058.059-4.328,4.809a.962.962,0,0,0,1.371,1.346l.058-.059,4.328-4.808A.962.962,0,0,0,443.915,416.246Z" transform="translate(-16144.414 -3744.445)" fill="#0d594c"/>
    <path id="Path_15975" data-name="Path 15975" d="M452.952,409.282a.962.962,0,0,0-1.3-.056l-.062.056-4.328,4.328a.962.962,0,0,0,1.3,1.416l.061-.056,4.328-4.328A.962.962,0,0,0,452.952,409.282Z" transform="translate(-16157.743 -3740.811)" fill="#0d594c"/>
    <path id="Path_15982" data-name="Path 15982" d="M822.055,440a.963.963,0,0,0-.963.886l0,.072L821,462.834a.962.962,0,0,0,1.921.079l0-.072.089-21.876A.962.962,0,0,0,822.055,440Z" transform="translate(-16707.371 -3756.905)" fill="#0d594c"/>
    <path id="Path_15983" data-name="Path 15983" d="M698.131,841.415,682,846l1.388,7.013,16.131-4.582Z" transform="translate(-16517.037 -3965.299)" fill="#0e5e50" fill-rule="evenodd"/>
    <path id="Path_16000" data-name="Path 16000" d="M892.521,243.62c-4.846-.251-7.342,2.071-6.863,6.537a1.154,1.154,0,1,0,2.3-.246c-.32-2.98.955-4.167,4.448-3.986a1.154,1.154,0,1,0,.119-2.305Z" transform="translate(-16809.033 -3654.945)" fill="#2e363a"/>
  </g>
</svg>
