<svg xmlns="http://www.w3.org/2000/svg" xmlns:xlink="http://www.w3.org/1999/xlink" width="766" height="375.627" viewBox="0 0 766 375.627">
  <defs>
    <linearGradient id="linear-gradient" x1="1" y1="0.5" x2="0" y2="0.5" gradientUnits="objectBoundingBox">
      <stop offset="0" stop-color="#fdeed0"/>
      <stop offset="1" stop-color="#fbdaa1"/>
    </linearGradient>
    <linearGradient id="linear-gradient-2" x1="1" y1="0.5" x2="0" y2="0.5" gradientUnits="objectBoundingBox">
      <stop offset="0" stop-color="#f0f9f7"/>
      <stop offset="1" stop-color="#ecf8f6"/>
    </linearGradient>
    <linearGradient id="linear-gradient-3" x1="0.002" y1="0.486" x2="0.935" y2="0.5" gradientUnits="objectBoundingBox">
      <stop offset="0" stop-color="#e9f7f4"/>
      <stop offset="0.629" stop-color="#e9f7f4" stop-opacity="0.635"/>
      <stop offset="1" stop-color="#e9f7f4" stop-opacity="0"/>
    </linearGradient>
  </defs>
  <g id="Illustration_Home_2" transform="translate(10220 4041)">
    <ellipse id="Ellipse_556" data-name="Ellipse 556" cx="109" cy="109.5" rx="109" ry="109.5" transform="translate(-10172 -4004)" fill="#e9f4f7"/>
    <path id="Path_16056" data-name="Path 16056" d="M127.654,126.585l256.551.066V128.2l-256.551-.066Z" transform="translate(-10298.118 -4109.151)" fill="#f0decf"/>
    <path id="Path_16057" data-name="Path 16057" d="M375.72,552v1.552H98V552Z" transform="translate(-10279.972 -4369.486)" fill="#f0decf"/>
    <path id="Path_16058" data-name="Path 16058" d="M375.72,732v1.552H98V732Z" transform="translate(-10279.972 -4479.638)" fill="#f0decf"/>
    <path id="Path_16059" data-name="Path 16059" d="M146.179,64a7.179,7.179,0,1,0,7.179,7.179A7.179,7.179,0,0,0,146.179,64Zm0,1.552a5.627,5.627,0,1,1-5.627,5.627A5.627,5.627,0,0,1,146.179,65.552Z" transform="translate(-10305.062 -4070.852)" fill="#f0decf"/>
    <path id="Path_16060" data-name="Path 16060" d="M205.194,66H192V79.194h13.194Zm-1.552,1.552V77.641H193.552V67.552Z" transform="translate(-10337.495 -4072.076)" fill="#f0decf"/>
    <path id="Path_16064" data-name="Path 16064" d="M26.94,419H43.626a1.94,1.94,0,0,1,1.94,1.94v91.967H25V420.94A1.94,1.94,0,0,1,26.94,419Z" transform="translate(-10235.299 -4288.097)" fill="#f7c066" fill-rule="evenodd"/>
    <path id="Path_16065" data-name="Path 16065" d="M56,419h6.209a1.94,1.94,0,0,1,1.94,1.94v91.967H56Z" transform="translate(-10254.27 -4288.097)" fill="#dda549" fill-rule="evenodd"/>
    <path id="Path_16066" data-name="Path 16066" d="M96.626,439H80.716A2.716,2.716,0,0,0,78,441.716v84.206H99.342V441.716A2.716,2.716,0,0,0,96.626,439Zm0,1.552.068,0a1.164,1.164,0,0,1,1.1,1.162V524.37H79.552V441.716a1.164,1.164,0,0,1,1.164-1.164Z" transform="translate(-10267.732 -4300.335)" fill="#d7d5d5"/>
    <path id="Path_16067" data-name="Path 16067" d="M110,441h6.209a1.94,1.94,0,0,1,1.94,1.94v83.43H110Z" transform="translate(-10287.315 -4301.559)" fill="#d7d5d5" fill-rule="evenodd"/>
    <path id="Path_16068" data-name="Path 16068" d="M132.94,419h16.686a1.94,1.94,0,0,1,1.94,1.94v91.967H131V420.94A1.94,1.94,0,0,1,132.94,419Z" transform="translate(-10300.166 -4288.097)" fill="#e9525b" fill-rule="evenodd"/>
    <path id="Path_16069" data-name="Path 16069" d="M172,419h2.716a1.94,1.94,0,0,1,1.94,1.94v91.967H172Z" transform="translate(-10325.257 -4288.097)" fill="#d12f38" fill-rule="evenodd"/>
    <path id="Path_16070" data-name="Path 16070" d="M185.94,441h16.686a1.94,1.94,0,0,1,1.94,1.94v83.43H184V442.94A1.94,1.94,0,0,1,185.94,441Z" transform="translate(-10332.6 -4301.559)" fill="#6f97f8" fill-rule="evenodd"/>
    <path id="Path_16071" data-name="Path 16071" d="M101.6,513H95.776a.776.776,0,0,0-.776.776v45.013a.776.776,0,0,0,.776.776H101.6a.776.776,0,0,0,.776-.776V513.776A.776.776,0,0,0,101.6,513Zm-.776,1.552v43.461H96.552V514.552Z" transform="translate(-10278.136 -4345.62)" fill="#3cb49f"/>
    <path id="Path_16072" data-name="Path 16072" d="M95.015,466a6.015,6.015,0,1,0,6.015,6.015A6.015,6.015,0,0,0,95.015,466Zm0,1.552a4.463,4.463,0,1,1-4.463,4.463A4.463,4.463,0,0,1,95.015,467.552Z" transform="translate(-10274.464 -4316.858)" fill="#3cb49f"/>
    <path id="Path_16073" data-name="Path 16073" d="M48.6,478H42.776a.776.776,0,0,0-.776.776v58.595a.776.776,0,0,0,.776.776H48.6a.776.776,0,0,0,.776-.776V478.776A.776.776,0,0,0,48.6,478Zm-.776,1.552v57.043H43.552V479.552Z" transform="translate(-10245.702 -4324.201)" fill="#fff"/>
    <path id="Path_16074" data-name="Path 16074" d="M36.746,446.5a.776.776,0,0,1,.058,1.55l-.058,0H22.776a.776.776,0,0,1-.058-1.55l.058,0Z" transform="translate(-10233.463 -4304.925)" fill="#fff"/>
    <path id="Path_16075" data-name="Path 16075" d="M36.746,459.5a.776.776,0,0,1,.058,1.55l-.058,0H22.776a.776.776,0,0,1-.058-1.55l.058,0Z" transform="translate(-10233.463 -4312.88)" fill="#fff"/>
    <path id="Path_16076" data-name="Path 16076" d="M154.276,475a.777.777,0,0,1,.774.718l0,.058v56.267a.776.776,0,0,1-1.55.058l0-.058V475.776A.776.776,0,0,1,154.276,475Z" transform="translate(-10313.936 -4322.366)" fill="#f7c066"/>
    <path id="Path_16077" data-name="Path 16077" d="M164.974,490a.776.776,0,0,1,.771.722l0,.058-.194,43.677a.776.776,0,0,1-1.55.051l0-.058.194-43.677A.776.776,0,0,1,164.974,490Z" transform="translate(-10320.36 -4331.545)" fill="#f7c066"/>
    <path id="Path_16078" data-name="Path 16078" d="M142.974,490a.776.776,0,0,1,.771.722l0,.058-.194,43.677a.776.776,0,0,1-1.55.051l0-.058.194-43.677A.776.776,0,0,1,142.974,490Z" transform="translate(-10306.897 -4331.545)" fill="#f7c066"/>
    <path id="Path_16079" data-name="Path 16079" d="M141.746,446.5a.776.776,0,0,1,.058,1.55l-.058,0h-13.97a.776.776,0,0,1-.058-1.55l.058,0Z" transform="translate(-10297.718 -4304.925)" fill="#f7c066"/>
    <path id="Path_16080" data-name="Path 16080" d="M141.746,459.5a.776.776,0,0,1,.058,1.55l-.058,0h-13.97a.776.776,0,0,1-.058-1.55l.058,0Z" transform="translate(-10297.718 -4312.88)" fill="#f7c066"/>
    <path id="Path_16081" data-name="Path 16081" d="M195.746,454.5a.776.776,0,0,1,.058,1.55l-.058,0h-13.97a.776.776,0,0,1-.058-1.55l.058,0Z" transform="translate(-10330.765 -4309.821)" fill="#fff"/>
    <path id="Path_16082" data-name="Path 16082" d="M202.015,487h-1.164A4.85,4.85,0,0,0,196,491.851V542.3a4.85,4.85,0,0,0,4.851,4.851h1.164a4.85,4.85,0,0,0,4.851-4.851V491.851A4.85,4.85,0,0,0,202.015,487Zm-1.164,1.552h1.164a3.3,3.3,0,0,1,3.3,3.3V542.3a3.3,3.3,0,0,1-3.3,3.3h-1.164a3.3,3.3,0,0,1-3.3-3.3V491.851A3.3,3.3,0,0,1,200.851,488.552Z" transform="translate(-10339.943 -4329.709)" fill="#fff"/>
    <path id="Path_16083" data-name="Path 16083" d="M195.746,466.5a.776.776,0,0,1,.058,1.55l-.058,0h-13.97a.776.776,0,0,1-.058-1.55l.058,0Z" transform="translate(-10330.765 -4317.164)" fill="#fff"/>
    <path id="Path_16084" data-name="Path 16084" d="M225,441h2.716a1.94,1.94,0,0,1,1.94,1.94v83.43H225Z" transform="translate(-10357.689 -4301.559)" fill="#406dd9" fill-rule="evenodd"/>
    <path id="Path_16085" data-name="Path 16085" d="M102.444,658.5a.776.776,0,0,1,.058,1.55l-.058,0H.776a.776.776,0,0,1-.058-1.55l.058,0Z" transform="translate(-10220 -4434.66)" fill="#583e40"/>
    <path id="Path_16086" data-name="Path 16086" d="M136.444,677.5a.776.776,0,0,1,.058,1.55l-.058,0H34.776a.776.776,0,0,1-.058-1.55l.058,0Z" transform="translate(-10240.807 -4446.287)" fill="#583e40"/>
    <path id="Path_16148" data-name="Path 16148" d="M260.473,96v1.552H243.95V96Z" transform="translate(-10369.287 -4090.435)" fill="#f0decf"/>
    <g id="Online-Classroom" transform="translate(-10096.214 -4031.687)">
      <g id="Shape" transform="translate(0 0)">
        <path id="Path_16001" data-name="Path 16001" d="M46.612,285.682l-11.5,73.373H23V285.682Zm118.411,0-11.5,73.373H36.639l11.5-73.373Zm118.411,0-11.5,73.373H155.05l11.5-73.373Zm118.411,0-11.5,73.373H273.46l11.5-73.373ZM66.289,160.186,46.849,284.168H23V160.186Zm378.9,0V284.168H403.613l19.437-123.982Zm-260.493,0L165.26,284.168H48.381L67.82,160.186Zm118.411,0L283.671,284.168H166.791l19.439-123.982Zm118.412,0L402.081,284.168H285.2l19.439-123.982Zm23.671-76.255v74.741h-21.9L435.01,83.932Zm-248.537,0-11.719,74.741H68.058L79.777,83.932Zm118.411,0-11.719,74.741H186.469l11.719-74.741Zm118.411,0-11.719,74.741H304.879L316.6,83.932Z" transform="translate(-14.075 -51.362)" opacity="0.5" fill="url(#linear-gradient)"/>
        <path id="Path_16002" data-name="Path 16002" d="M413.015,59.941a.774.774,0,0,1,.652.829l0,.058-11.874,75.7h24.284a.776.776,0,0,1,.058,1.55l-.058,0H401.545L382.114,261.969h43.959a.776.776,0,0,1,.058,1.55l-.058,0h-44.2l-11.908,75.922a.776.776,0,0,1-1.541-.183l.007-.057,11.87-75.682H263.477l-11.908,75.922a.776.776,0,0,1-1.54-.183l.007-.057,11.87-75.682H145.083l-11.908,75.922a.776.776,0,0,1-1.54-.183l.007-.057,11.87-75.682H26.689L14.782,339.444a.776.776,0,0,1-1.54-.183l.007-.057,11.87-75.682H.776a.776.776,0,0,1-.058-1.55l.058,0H25.362L44.793,138.083H.776a.776.776,0,0,1-.058-1.55l.058,0h44.26L56.947,60.587a.776.776,0,0,1,1.54.183l-.007.058-11.874,75.7H163.43l11.911-75.943a.776.776,0,0,1,1.54.183l-.007.058L165,136.53H281.824l11.911-75.943a.776.776,0,0,1,1.541.183l-.007.058-11.874,75.7H400.218l11.909-75.943A.78.78,0,0,1,413.015,59.941ZM163.186,138.083H46.364L26.933,261.969H143.755Zm118.394,0H164.758L145.327,261.969H262.149Zm118.393,0H283.151L263.721,261.969H380.543Z" transform="translate(0 -36.675)" fill="#f0decf"/>
        <path id="Path_16003" data-name="Path 16003" d="M163.864,3.672l-1.253.588a15.787,15.787,0,0,0-9.083,14.293V337.987A19.014,19.014,0,0,0,172.541,357h19.331L195.436,0H180.341A38.805,38.805,0,0,0,163.864,3.672Z" transform="translate(-93.952)" fill="#719cfe" fill-rule="evenodd"/>
        <path id="Path_16004" data-name="Path 16004" d="M176.388,44.761v315.7H176V44.761Z" transform="translate(-107.704 -27.392)" fill="#bea8ff"/>
        <path id="Path_16005" data-name="Path 16005" d="M223.742,0q.674,0,1.347.035L341.638,6.15c12.277.644,21.867,9.816,21.867,20.913v308.99c0,11.57-10.393,20.948-23.215,20.948H223.742c-12.821,0-23.215-9.379-23.215-20.948V20.948C200.527,9.379,210.921,0,223.742,0Z" transform="translate(-122.714)" fill="#4c669e" fill-rule="evenodd"/>
        <path id="Path_16006" data-name="Path 16006" d="M238.3,21.932c.178,0,.355,0,.533.009l.266.012,16.045.84a3.728,3.728,0,0,1,3.532,3.617v.106a7.761,7.761,0,0,0,7.277,7.746l.135.007,70.624,3.181q.174.008.349.008a7.761,7.761,0,0,0,7.76-7.627V29.7a2.1,2.1,0,0,1,2.1-2.1l.109,0,8.881.465.218.013c7.106.472,12.642,5.755,12.752,12.17l0,.195V349.46l0,.2c-.121,6.686-6.118,12.085-13.543,12.194H238.07c-7.425-.11-13.422-5.51-13.541-12.2l0-.2V34.33l0-.2C224.651,27.372,230.768,21.932,238.3,21.932Z" transform="translate(-137.4 -13.421)" fill-rule="evenodd" fill="url(#linear-gradient-2)"/>
        <path id="Path_16007" data-name="Path 16007" d="M275.214,327.624a8.061,8.061,0,0,1,8.038,7.971V357.15a8.2,8.2,0,0,1-7.891,8.214l-.135,0-21.178.284a8,8,0,0,1-8.047-7.97v-21.8a8.141,8.141,0,0,1,7.9-8.216l.134,0Zm47.729-.388a8.023,8.023,0,0,1,8.038,7.892v21.324a8.159,8.159,0,0,1-7.891,8.136l-.135,0-21.178.286a7.962,7.962,0,0,1-8.046-7.892V335.413a8.1,8.1,0,0,1,7.9-8.137h.134Zm-47.726,1.94-21.178.038a6.583,6.583,0,0,0-6.485,6.539v21.791A6.455,6.455,0,0,0,253.9,364.1h.123l21.178-.284a6.645,6.645,0,0,0,6.494-6.539V335.73a6.513,6.513,0,0,0-6.359-6.554Zm95.456-1.94a7.948,7.948,0,0,1,8.038,7.737v20.862a8.076,8.076,0,0,1-7.89,7.977l-.137,0-21.178.284a7.888,7.888,0,0,1-8.047-7.736V335.255a8.017,8.017,0,0,1,7.9-7.979l.135,0Zm-47.726,1.552-21.178.039a6.544,6.544,0,0,0-6.485,6.46v21.561a6.413,6.413,0,0,0,6.352,6.476h.123l21.178-.285a6.607,6.607,0,0,0,6.494-6.462V335.263a6.471,6.471,0,0,0-6.359-6.474Zm47.729,0-21.178.038a6.468,6.468,0,0,0-6.485,6.305v21.1a6.332,6.332,0,0,0,6.35,6.318h.125l21.178-.284a6.531,6.531,0,0,0,6.494-6.305V335.106a6.39,6.39,0,0,0-6.359-6.317Zm-95.462-49.282a8.061,8.061,0,0,1,8.038,7.971v21.555a8.2,8.2,0,0,1-7.891,8.214l-.135,0-21.178.284a8,8,0,0,1-8.047-7.97v-21.8a8.141,8.141,0,0,1,7.9-8.216l.134,0Zm47.729-.388a8.023,8.023,0,0,1,8.038,7.892v21.324a8.159,8.159,0,0,1-7.891,8.136l-.135,0-21.178.286a7.962,7.962,0,0,1-8.046-7.892V287.3a8.1,8.1,0,0,1,7.9-8.137h.134Zm-47.726,1.94-21.178.038a6.583,6.583,0,0,0-6.485,6.539v21.791a6.455,6.455,0,0,0,6.352,6.555h.123L275.2,315.7a6.645,6.645,0,0,0,6.494-6.539V287.613a6.513,6.513,0,0,0-6.359-6.554Zm95.456-1.94a7.948,7.948,0,0,1,8.038,7.737v20.862a8.076,8.076,0,0,1-7.89,7.977l-.137,0-21.178.284a7.888,7.888,0,0,1-8.047-7.736V287.137a8.017,8.017,0,0,1,7.9-7.979l.135,0Zm-47.726,1.552-21.178.039a6.544,6.544,0,0,0-6.485,6.46V308.73a6.413,6.413,0,0,0,6.352,6.476h.123l21.178-.285a6.607,6.607,0,0,0,6.494-6.462V287.145a6.471,6.471,0,0,0-6.359-6.474Zm47.729,0-21.178.038a6.468,6.468,0,0,0-6.485,6.305v21.1a6.332,6.332,0,0,0,6.35,6.318h.125l21.178-.284a6.531,6.531,0,0,0,6.494-6.305V286.988a6.39,6.39,0,0,0-6.359-6.317ZM254.048,230.613l21.178.29a8.2,8.2,0,0,1,8.025,8.081v21.552a8.061,8.061,0,0,1-7.9,8.1h-.134l-21.178-.045A8.137,8.137,0,0,1,246,260.514v-21.8a8,8,0,0,1,7.913-8.1Zm47.729.388,21.178.292a8.161,8.161,0,0,1,8.025,8v21.32a8.019,8.019,0,0,1-7.9,8.023h-.135l-21.178-.045a8.1,8.1,0,0,1-8.034-8V239.025A7.962,7.962,0,0,1,301.643,231Zm47.594.775h.135l21.178.29a8.084,8.084,0,0,1,8.026,7.847v20.86a7.939,7.939,0,0,1-7.9,7.866h-.135l-21.178-.045a8.022,8.022,0,0,1-8.034-7.847v-21.1A7.882,7.882,0,0,1,349.371,231.777Zm-95.345.388a6.445,6.445,0,0,0-6.473,6.425v21.787a6.592,6.592,0,0,0,6.364,6.665l.123,0,21.178.045a6.506,6.506,0,0,0,6.482-6.425V239.122a6.651,6.651,0,0,0-6.371-6.663l-.125,0Zm47.729.388a6.406,6.406,0,0,0-6.473,6.347v21.556a6.55,6.55,0,0,0,6.362,6.586l.125,0,21.178.045a6.468,6.468,0,0,0,6.482-6.347V239.432a6.609,6.609,0,0,0-6.371-6.584l-.125,0Zm47.73.776a6.333,6.333,0,0,0-6.473,6.191v21.094a6.467,6.467,0,0,0,6.362,6.428h.125l21.178.045a6.394,6.394,0,0,0,6.482-6.193V240.049a6.526,6.526,0,0,0-6.369-6.426l-.126,0ZM341.459,192.2a7.757,7.757,0,0,1,7.925-7.769l.134,0,21.178.617a8.229,8.229,0,0,1,8.013,7.97V213.92a7.813,7.813,0,0,1-7.915,7.767l-.136,0-21.178-.372a8.165,8.165,0,0,1-8.022-7.969V192.2ZM293.729,191.2a7.834,7.834,0,0,1,7.927-7.925l.133,0,21.178.621a8.308,8.308,0,0,1,8.013,8.126v21.354a7.891,7.891,0,0,1-7.917,7.923l-.134,0-21.178-.374a8.243,8.243,0,0,1-8.022-8.126V191.2ZM246,190.112a7.877,7.877,0,0,1,7.927-8l.133,0,21.178.619a8.347,8.347,0,0,1,8.013,8.2V212.52a7.932,7.932,0,0,1-7.917,8l-.134,0-21.178-.373a8.283,8.283,0,0,1-8.022-8.2V190.112Zm103.474-4.122a6.207,6.207,0,0,0-6.461,6.091v21.128a6.611,6.611,0,0,0,6.374,6.55l.125,0,21.178.372a6.267,6.267,0,0,0,6.47-6.092V193.161a6.672,6.672,0,0,0-6.381-6.549l-.127-.005Zm-47.73-1.164a6.278,6.278,0,0,0-6.461,6.245V212.66a6.7,6.7,0,0,0,6.374,6.708l.125,0,21.178.374a6.338,6.338,0,0,0,6.47-6.245V192.159a6.757,6.757,0,0,0-6.383-6.707l-.125,0Zm-47.73-1.164a6.317,6.317,0,0,0-6.461,6.324v21.821a6.739,6.739,0,0,0,6.375,6.787l.123,0,21.178.373a6.376,6.376,0,0,0,6.47-6.326V191.07a6.8,6.8,0,0,0-6.383-6.785l-.125-.005Zm87.445-38.9A7.633,7.633,0,0,1,349.4,137.1l.135.005,21.178.948a8.379,8.379,0,0,1,8,8.092v20.925a7.687,7.687,0,0,1-7.929,7.666l-.134,0-21.178-.7a8.313,8.313,0,0,1-8.01-8.093V144.764Zm-47.729-2.173a7.708,7.708,0,0,1,7.939-7.822l.133.005,21.178.954a8.46,8.46,0,0,1,8,8.249V165.36a7.763,7.763,0,0,1-7.929,7.821l-.135,0-21.178-.707a8.394,8.394,0,0,1-8.01-8.25v-21.63Zm55.732-3.938a6.083,6.083,0,0,0-6.449,5.988V165.8a6.759,6.759,0,0,0,6.386,6.672l.125.005,21.178.7a6.141,6.141,0,0,0,6.458-5.989V146.278a6.822,6.822,0,0,0-6.393-6.67l-.127-.007ZM246,140.731a7.75,7.75,0,0,1,7.939-7.9l.133,0,21.178.95a8.5,8.5,0,0,1,8,8.327v21.617a7.8,7.8,0,0,1-7.93,7.9l-.133,0-21.178-.7a8.432,8.432,0,0,1-8.01-8.327V140.731Zm55.732-4.407a6.152,6.152,0,0,0-6.449,6.142v21.618a6.846,6.846,0,0,0,6.386,6.83l.125.005,21.178.707a6.209,6.209,0,0,0,6.458-6.142v-21.37a6.909,6.909,0,0,0-6.395-6.829l-.125-.007ZM254,134.384a6.191,6.191,0,0,0-6.449,6.222v21.851a6.89,6.89,0,0,0,6.386,6.909l.125.005,21.178.7a6.248,6.248,0,0,0,6.458-6.222v-21.6a6.952,6.952,0,0,0-6.395-6.908l-.125-.007Zm87.457-37.059a7.511,7.511,0,0,1,7.951-7.564l.133.007,21.178,1.279a8.533,8.533,0,0,1,7.989,8.215v20.952a7.564,7.564,0,0,1-7.941,7.563l-.134-.005-21.178-1.033a8.464,8.464,0,0,1-8-8.215v-21.2Zm7.99-6.008a5.961,5.961,0,0,0-6.437,5.886v21.184a6.91,6.91,0,0,0,6.4,6.793l.127.007,21.178,1.033a6.017,6.017,0,0,0,6.446-5.886V99.4a6.975,6.975,0,0,0-6.4-6.792l-.127-.009Zm-55.72,3.057a7.584,7.584,0,0,1,7.951-7.718l.133.007,21.178,1.287a8.616,8.616,0,0,1,7.989,8.372v21.409a7.637,7.637,0,0,1-7.942,7.717l-.133-.005-21.178-1.04a8.547,8.547,0,0,1-8-8.371V94.374Zm7.99-6.162a6.028,6.028,0,0,0-6.437,6.037v21.644a7,7,0,0,0,6.4,6.952l.125.007,21.178,1.04a6.084,6.084,0,0,0,6.446-6.038V96.459a7.065,7.065,0,0,0-6.407-6.951L322.9,89.5ZM246,91.74a7.626,7.626,0,0,1,7.95-7.8l.134.007,21.178,1.281a8.655,8.655,0,0,1,7.989,8.449v21.644a7.679,7.679,0,0,1-7.942,7.8l-.133-.005L254,122.08a8.587,8.587,0,0,1-8-8.45V91.74Zm7.99-6.244a6.067,6.067,0,0,0-6.437,6.118v21.879a7.044,7.044,0,0,0,6.4,7.03l.125.007,21.178,1.035a6.123,6.123,0,0,0,6.446-6.119V93.815a7.108,7.108,0,0,0-6.407-7.029l-.125-.009Z" transform="translate(-150.541 -51.362)" fill="#7ebdb0"/>
        <path id="Path_16008" data-name="Path 16008" d="M238.3,21.932c.178,0,.355,0,.533.009l.266.012,309.821-.021V369.646L238.07,361.859c-7.425-.11-13.422-5.51-13.543-12.2V34.125C224.651,27.372,230.768,21.932,238.3,21.932Z" transform="translate(-137.4 -13.421)" fill-rule="evenodd" fill="url(#linear-gradient-3)"/>
        <path id="Path_16009" data-name="Path 16009" d="M431.09,918a.776.776,0,0,1,.058,1.55l-.058,0H.776A.776.776,0,0,1,.718,918l.058,0Z" transform="translate(0 -561.775)" fill="#2e363a"/>
        <path id="Path_16010" data-name="Path 16010" d="M175.3,99.932a3.3,3.3,0,0,1,3.3,3.3v39.581a3.3,3.3,0,0,1-6.6,0V103.23A3.3,3.3,0,0,1,175.3,99.932Z" transform="translate(-105.256 -61.154)" fill="#584591"/>
        <path id="Path_16011" data-name="Path 16011" d="M175.3,254.932a3.3,3.3,0,0,1,3.3,3.3v39.581a3.3,3.3,0,1,1-6.6,0V258.23A3.3,3.3,0,0,1,175.3,254.932Z" transform="translate(-105.256 -156.007)" fill="#584591"/>
        <path id="Path_16012" data-name="Path 16012" d="M171.3,99.932a3.3,3.3,0,0,1,3.3,3.3v39.581a3.3,3.3,0,0,1-6.6,0V103.23A3.3,3.3,0,0,1,171.3,99.932Z" transform="translate(-102.809 -61.154)" fill="#fff"/>
        <path id="Path_16013" data-name="Path 16013" d="M171.3,254.932a3.3,3.3,0,0,1,3.3,3.3v39.581a3.3,3.3,0,1,1-6.6,0V258.23A3.3,3.3,0,0,1,171.3,254.932Z" transform="translate(-102.809 -156.007)" fill="#fff"/>
        <path id="Path_16014" data-name="Path 16014" d="M591.882,230.4q-5.3,1.392-7.159,9.313H564.3l6.773-18.626,12.286,5.224Z" transform="translate(-345.324 -135.292)" fill="#f69883" fill-rule="evenodd"/>
        <path id="Path_16015" data-name="Path 16015" d="M608.21,161.275v9.216l2.813,8.547a4.807,4.807,0,0,1-3.229,1.759c-1.5,0-.818,7.9-2.252,8.464s-6.851,1.347-12.09,0-12.55-6.875-13.187-9.752q-.637-2.877-2.769-17.748,9.67-5.558,10.444-5.558t13-1.121l4.6.718Z" transform="translate(-353.402 -94.903)" fill="#fdb4a3" fill-rule="evenodd"/>
        <path id="Path_16016" data-name="Path 16016" d="M595.956,213.864q3.135,2.754.992,6.459l-.074.126q-1.376,2.294.77,3.685a29.544,29.544,0,0,1-8.409-5.9l4.469-2.905Z" transform="translate(-360.585 -130.875)" fill="#f69883" fill-rule="evenodd"/>
        <ellipse id="Ellipse_553" data-name="Ellipse 553" cx="0.931" cy="1.397" rx="0.931" ry="1.397" transform="translate(250.171 74.148)" fill="#583e40"/>
        <path id="Path_16017" data-name="Path 16017" d="M634.578,180.459l.289-.273q4.223-3.955,5.456-3.446c1.52.627.858,3.48-1.919,4.505a16.623,16.623,0,0,1-2.726.754l-.306.054a.931.931,0,0,1-.794-1.594Z" transform="translate(-388.156 -108.121)" fill="#7d4347" fill-rule="evenodd"/>
        <path id="Path_16018" data-name="Path 16018" d="M580.118,154.565h2.606l-.813-8.213q10.314,0,21.49-9.1a10.822,10.822,0,0,0-10.452-4.544,22.131,22.131,0,0,0,10.292-3.827q-8.4-6.012-20.517-2.767c-12.12,3.245-22.446,5.376-26,15.792s5.726,22.6,5.275,30.61L571.219,166l4.343-6.534q-3.328-3.754-2.8-7.592c.527-3.839,5.355-2.91,6.015-1.216Z" transform="translate(-340.191 -76.478)" fill="#7d4347" fill-rule="evenodd"/>
        <path id="Path_16019" data-name="Path 16019" d="M644.25,223.25a5.261,5.261,0,0,1-4.354-.968,2.659,2.659,0,0,0,1.2,1.98C642.3,225.243,644.793,223.25,644.25,223.25Z" transform="translate(-391.588 -136.027)" fill="#583e40" fill-rule="evenodd"/>
        <path id="Path_16020" data-name="Path 16020" d="M603.647,235.269a.776.776,0,0,1,1.075-.219q4.573,3.028,12.3,3.038a.776.776,0,1,1,0,1.552q-8.157,0-13.154-3.3A.776.776,0,0,1,603.647,235.269Z" transform="translate(-369.326 -143.761)" fill="#583e40"/>
        <path id="Path_16021" data-name="Path 16021" d="M605.868,192.094a.776.776,0,0,1,.74,1.364c-1.242.674-1.4,1.7-.391,3.494a.776.776,0,1,1-1.352.763C603.466,195.236,603.773,193.229,605.868,192.094Z" transform="translate(-369.627 -117.495)" fill="#583e40"/>
        <path id="Path_16022" data-name="Path 16022" d="M712.349,854.035a30.8,30.8,0,0,0,9.925,3.845c4.076.6,14.655-.161,16.75.436a3.985,3.985,0,0,1,2.785,2.2,116.315,116.315,0,0,1-15.5,9.756q-10.605.984-12.955,2.938l1.067,2.966q-7.23,3.424-8.695,2.912c-1.465-.512-5.849-7.844-6.338-12.492a24.783,24.783,0,0,0-3.3-9.6Z" transform="translate(-425.97 -522.631)" fill="#2e363a" fill-rule="evenodd"/>
        <path id="Path_16023" data-name="Path 16023" d="M437.479,828.413l12.15,11.214a30.788,30.788,0,0,0,2.9,10.241,52.4,52.4,0,0,0,3.877,5.548h-16.38q-3.315-3.028-5.108-3.451l-1.726,2.637-.612-.323-.587-.314q-5.928-3.206-6.359-4.554c-.468-1.463,2.679-9.229,6.056-12.479l.106-.1A24.78,24.78,0,0,0,437.479,828.413Z" transform="translate(-260.442 -506.952)" fill="#6b7476" fill-rule="evenodd"/>
        <path id="Path_16024" data-name="Path 16024" d="M625.121,286.287q3.955,8.077,1.977,25.19c-1.977,17.112.217,30.1,1.951,41.328q1.735,11.226,2.114,47.2l1.735,16.767H619.57l1.069-70.445.987-49.553Z" transform="translate(-379.149 -175.195)" fill="#2e363a" fill-rule="evenodd"/>
        <path id="Path_16025" data-name="Path 16025" d="M623.614,550q10.808,35.079,17.061,46.31c6.253,11.23,6.285,17.278,10,26.355s15.025,41.4,15.025,44.686-14.927,8.391-17.239,5.837-9.928-25.5-12.853-30.373-14.623-23.984-16.254-35.244Q617.727,596.31,623.614,550Z" transform="translate(-378.803 -336.575)" fill="#4763af" fill-rule="evenodd"/>
        <path id="Path_16026" data-name="Path 16026" d="M626.413,638.464l-.051.484-.324-.648c-3.126-6.28-5.94-13.008-6.681-18.119q-1.485-10.254,3.264-49.573l.218,2.047q5.216,49.293,3.574,65.809Z" transform="translate(-378.803 -349.187)" fill="#303d78" fill-rule="evenodd"/>
        <path id="Path_16027" data-name="Path 16027" d="M617.11,642.834l.976,1.675a.776.776,0,1,0,1.342-.78l-.978-1.678a.776.776,0,1,0-1.34.783Zm3.494,6.04.643,1.127.317.557a.776.776,0,1,0,1.35-.767l-.638-1.121-.324-.567a.776.776,0,0,0-1.348.771Zm3.429,6.076.629,1.135.309.56a.776.776,0,1,0,1.36-.749l-.623-1.129-.318-.572a.776.776,0,1,0-1.357.754Zm3.338,6.119.459.863q.227.427.447.848a.776.776,0,0,0,1.374-.723l-.45-.852q-.228-.43-.461-.867a.776.776,0,1,0-1.369.731Zm3.206,6.183q.445.888.857,1.732a.776.776,0,0,0,1.395-.681q-.416-.852-.864-1.746a.776.776,0,0,0-1.388.695Zm2.986,6.276.321.724q.221.5.458,1.045a.776.776,0,1,0,1.423-.62l-.461-1.053q-.166-.378-.324-.73a.776.776,0,1,0-1.417.633Zm2.757,6.4.748,1.787a.776.776,0,0,0,1.433-.6l-.6-1.443-.146-.348a.776.776,0,1,0-1.431.6Zm2.673,6.443.735,1.794a.776.776,0,1,0,1.437-.587l-.735-1.8a.776.776,0,1,0-1.436.589Zm2.634,6.467.727,1.8a.776.776,0,1,0,1.439-.581l-.727-1.8a.776.776,0,1,0-1.439.582Zm2.608,6.475.721,1.8a.776.776,0,0,0,1.441-.577l-.722-1.8a.776.776,0,1,0-1.44.577Zm2.59,6.484.717,1.8a.776.776,0,0,0,1.442-.573l-.717-1.8a.776.776,0,1,0-1.442.574Zm2.577,6.49.714,1.8a.776.776,0,0,0,1.444-.571l-.714-1.8a.776.776,0,0,0-1.443.572Zm2.568,6.5.712,1.8a.776.776,0,0,0,1.444-.569l-.712-1.805a.776.776,0,0,0-1.444.57Z" transform="translate(-377.579 -392.671)" fill="#709cfd"/>
        <path id="Path_16028" data-name="Path 16028" d="M518.236,566.6l-1.017,1.929q-16.083,30.571-19.592,42.632l-.072.249c-3.485,12.238-7.687,16.574-11.447,25.437l-.355.841c-4.139,9.7-18.459,39.379-20.733,41.654-2.32,2.321-16.489-4.622-16.317-8.063s11.012-25.053,12.388-30.565l.592-2.372c1.957-7.781,6.776-25.93,12.837-34.043Q481.327,595.186,518.236,566.6Z" transform="translate(-274.584 -346.736)" fill="#4763af" fill-rule="evenodd"/>
        <path id="Path_16029" data-name="Path 16029" d="M468.2,696.147l12.034,32.91-.886,1.871c-5.692,11.978-12.786,26.147-14.33,27.691-2.32,2.32-16.489-4.622-16.317-8.063s11.012-25.053,12.388-30.565l.592-2.372.436-1.716A193.282,193.282,0,0,1,468.2,696.147Z" transform="translate(-274.584 -426.011)" fill="#a2b6d5" fill-rule="evenodd"/>
        <path id="Path_16030" data-name="Path 16030" d="M491.912,724.988l-.7,1.81a.776.776,0,0,0,1.448.56l.7-1.81a.776.776,0,1,0-1.448-.56Zm-2.519,6.515-.7,1.809a.776.776,0,0,0,1.448.56l.7-1.81a.776.776,0,1,0-1.448-.56Zm-2.518,6.515-.7,1.809a.776.776,0,1,0,1.448.56l.7-1.81a.776.776,0,1,0-1.448-.56Zm-2.519,6.515-.7,1.809a.776.776,0,0,0,1.448.56l.7-1.81a.776.776,0,1,0-1.448-.56Zm-2.519,6.515-.7,1.81a.776.776,0,0,0,1.448.56l.7-1.81a.776.776,0,1,0-1.448-.56Zm-2.518,6.515-.7,1.809a.776.776,0,1,0,1.447.56l.7-1.81a.776.776,0,1,0-1.447-.56Zm-2.519,6.515-.7,1.81a.776.776,0,1,0,1.448.56l.7-1.81a.776.776,0,1,0-1.448-.56Z" transform="translate(-291.32 -443.356)" fill="#c6d6e5"/>
        <path id="Path_16031" data-name="Path 16031" d="M485.806,252.177q5.346-2.994,14.285-2.994a56.1,56.1,0,0,1,17.889,2.994l-3.929,11.4q1.743,10.179-1.295,32.82c-3.038,22.641,1.442,70.125,0,83.867s-1.4,55.227-7.165,58.987-57.994,1.089-67.521-16.1q13.878-63.356,16.72-80.629T485.806,252.177Z" transform="translate(-268.08 -152.489)" fill="#ec9564" fill-rule="evenodd"/>
        <ellipse id="Ellipse_554" data-name="Ellipse 554" cx="2" cy="1.5" rx="2" ry="1.5" transform="translate(243.215 100.687)" fill="#9d5c38"/>
        <path id="Path_16032" data-name="Path 16032" d="M583.73,330.353q-8.5,40.4-8.5,44.273t4.252,29.356l-17.356-12.33L561,355.505s9.988-16.41,11.363-16.788Q573.743,338.339,583.73,330.353Z" transform="translate(-343.309 -202.161)" fill="#cb7545" fill-rule="evenodd"/>
        <path id="Path_16033" data-name="Path 16033" d="M499.745,440.288l-1.692,1.79q-11.953,12.612-20.938,21.247l.322-1.705q.683-3.638,1.13-6.295l.171-1.02q1.181-6.84,6.115-21.949Q490.829,433.5,499.745,440.288Z" transform="translate(-291.973 -264.583)" fill="#cb7545" fill-rule="evenodd"/>
        <path id="Path_16034" data-name="Path 16034" d="M462.351,278.856Q436.27,333.868,437.917,343c1.647,9.131,6.407,14.337,18.8,12.6s23.708-62.027,24.484-71.89q.776-9.862-1.594-9.558Z" transform="translate(-267.926 -167.764)" fill="#a0a1a1" fill-rule="evenodd"/>
        <path id="Path_16035" data-name="Path 16035" d="M466.44,402.347c7.421-.841,13.043.939,16.773,5.365a.776.776,0,0,1-1.187,1c-3.365-3.993-8.471-5.61-15.412-4.823a.776.776,0,0,1-.175-1.542Z" transform="translate(-285.019 -246.095)" fill="#585858"/>
        <path id="Path_16036" data-name="Path 16036" d="M515.065,274.154q2.37-.3,1.594,9.558l-.025.295c-.028.308-.064.656-.109,1.042a13.379,13.379,0,0,1-9.611,4.174,13.693,13.693,0,0,1-11.154-6.028q.8-1.705,1.631-3.459l.416-.879Z" transform="translate(-303.384 -167.764)" fill="#767777" fill-rule="evenodd"/>
        <ellipse id="Ellipse_555" data-name="Ellipse 555" cx="13.5" cy="15" rx="13.5" ry="15" transform="translate(191.215 89.687)" fill="#a0a1a1"/>
        <path id="Path_16037" data-name="Path 16037" d="M511.705,242c5.376,0,9.7,4.795,9.7,10.671s-4.325,10.671-9.7,10.671-9.7-4.795-9.7-10.671a.776.776,0,1,1,1.552,0c0,5.053,3.667,9.119,8.149,9.119s8.149-4.066,8.149-9.119-3.667-9.119-8.149-9.119a.776.776,0,1,1,0-1.552Z" transform="translate(-307.204 -148.093)" fill="#585858"/>
        <path id="Path_16038" data-name="Path 16038" d="M518.437,254c3.022,0,5.433,2.712,5.433,6.015a.776.776,0,0,1-1.552,0,3.918,3.918,0,1,0-3.88,4.462.776.776,0,0,1,0,1.552c-3.022,0-5.433-2.712-5.433-6.015S515.415,254,518.437,254Z" transform="translate(-313.936 -155.437)" fill="#585858"/>
        <path id="Path_16039" data-name="Path 16039" d="M505.586,231c7.519,0,13.582,6.705,13.582,14.94s-6.062,14.94-13.582,14.94a.776.776,0,0,1,0-1.552c6.625,0,12.029-5.977,12.029-13.388s-5.4-13.388-12.029-13.388-12.029,5.977-12.029,13.388a.776.776,0,0,1-1.552,0C492,237.705,498.066,231,505.586,231Z" transform="translate(-301.084 -141.362)" fill="#585858"/>
        <path id="Path_16040" data-name="Path 16040" d="M525.088,269.677q23.538-1.676,25.981,10.138,2.309,11.162-19.477,49.73l-.509.9h0a.585.585,0,0,0,0,.374l.017.071a1.164,1.164,0,0,1-.842,1.414l-.053.012a.4.4,0,0,0-.286.168q-.232.4.505,1.249a.847.847,0,0,1-.081,1.195l-.03.025h0l-.031.024a1.3,1.3,0,0,0-.46,1.5l.184.5,12.821,29.231-16.559,11.13-4.306-7.271q-3.636-6.154-5.68-9.677l-.552-.953q-14.692-25.454-14.692-29.132c0-4.674,2.056-9.033,5.231-15.214l.513-1q3.62-6.963,19.382-35.392Z" transform="translate(-306.613 -164.903)" fill="#ec9564" fill-rule="evenodd"/>
        <path id="Path_16041" data-name="Path 16041" d="M534.879,269.072a.776.776,0,0,1,.867-.673c8.6,1.083,13.621,4.615,14.859,10.6,1.578,7.63-4.8,24.039-19.125,49.494l-.691,1.224-.167.294.007.028a1.941,1.941,0,0,1-1.007,2.21l-.063.03.012.016c.043.06.094.125.153.2l.062.073a1.622,1.622,0,0,1-.156,2.289c-.038.033-.077.064-.118.094a.524.524,0,0,0-.2.555l.016.051.177.481,12.81,29.207a.776.776,0,0,1-.225.917l-.053.039-16.559,11.13a.776.776,0,0,1-1.08-.216l-.851-1.289c-8.815-13.385-15.209-24.193-19.355-32.436l-.372-.745c-3.2-6.465-4.781-10.927-4.781-12.991l0-.26c.05-4.106,1.3-7.462,5.235-15.153l.594-1.153q3.627-6.978,19.393-35.413a.776.776,0,1,1,1.357.753l-4.295,7.756q-12.415,22.449-15.288,28.026l-.5.966c-3.768,7.385-4.926,10.553-4.95,14.356v.121c0,1.8,1.6,6.263,4.857,12.779l.4.787a341.143,341.143,0,0,0,18.725,31.338l.691,1.05,15.371-10.332-12.56-28.637-.018-.044-.184-.5a2.076,2.076,0,0,1,.661-2.344l.079-.06a.071.071,0,0,0,.007-.1c-.691-.792-.972-1.486-.594-2.145a1.118,1.118,0,0,1,.727-.525l.1-.022a.388.388,0,0,0,.281-.471,1.281,1.281,0,0,1,.059-1.018l.509-.9c14.419-25.526,20.877-42.015,19.393-49.191-1.084-5.241-5.527-8.367-13.533-9.375A.776.776,0,0,1,534.879,269.072Z" transform="translate(-305.389 -164.245)" fill="#9d5c38"/>
        <path id="Path_16042" data-name="Path 16042" d="M554.876,417.678a.776.776,0,0,1,1.1.005,22.972,22.972,0,0,0,7.068,4.651.776.776,0,0,1-.631,1.418,24.489,24.489,0,0,1-7.539-4.977A.776.776,0,0,1,554.876,417.678Z" transform="translate(-339.418 -255.463)" fill="#9d5c38"/>
        <path id="Path_16043" data-name="Path 16043" d="M551.085,427.335c1.436,0,4.476,1.239,9.341,3.748a.776.776,0,0,1-.711,1.38l-.627-.321c-4.175-2.126-6.887-3.218-7.953-3.253h-.051a.776.776,0,0,1,0-1.552Z" transform="translate(-336.765 -261.51)" fill="#9d5c38"/>
        <path id="Path_16044" data-name="Path 16044" d="M432.413,350.932q-18.286,3.031-22.463,14.375c-4.177,11.344-7.742,23.162-4.969,24.471q2.773,1.31,16.365,2.846Z" transform="translate(-247.23 -214.755)" fill="#a0a1a1" fill-rule="evenodd"/>
        <path id="Path_16045" data-name="Path 16045" d="M428.963,349.923a.776.776,0,0,1,.306,1.522c-10.732,2.157-17.3,6.665-19.819,13.5l-.409,1.118a139.461,139.461,0,0,0-4.655,14.79l-.089.387c-.968,4.266-.963,6.852-.213,7.207,1.477.7,5.664,1.493,12.436,2.34a.776.776,0,1,1-.193,1.54l-.544-.068c-6.637-.844-10.719-1.632-12.362-2.408-3.083-1.456-1-10.3,4.572-25.441C410.723,357,417.75,352.177,428.963,349.923Z" transform="translate(-246.002 -214.128)" fill="#585858"/>
        <path id="Path_16046" data-name="Path 16046" d="M460.379,325.043a.776.776,0,0,1,1.457.531l-.021.057-13,31.782a.776.776,0,0,1-1.457-.531l.021-.057Z" transform="translate(-273.741 -198.617)" fill="#585858"/>
        <path id="Path_16047" data-name="Path 16047" d="M422.257,388.347a.776.776,0,0,1,1.486.448l-.329,1.1c-3.454,11.568-4.888,18.37-4.3,19.42l.019.031a.776.776,0,0,1-1.288.865C416.759,408.6,418.232,401.686,422.257,388.347Z" transform="translate(-255.489 -237.313)" fill="#585858"/>
        <path id="Path_16048" data-name="Path 16048" d="M556.717,285.6a.388.388,0,0,1,.457-.3c5.708,1.141,8.295,3.434,7.528,6.87l-.029.123c-.483,1.906-2.9,6.592-9.949,19.527l-4.005,7.346c-7.168,13.175-9.906,18.548-9.906,19.732,0,2.1,5.043,15.19,15.018,38.914a.388.388,0,1,1-.716.3l-.894-2.13c-9.491-22.637-14.184-34.887-14.184-37.085,0-1.4,2.593-6.5,10.174-20.424l4.034-7.4c6.932-12.735,9.321-17.376,9.7-19.075.646-2.9-1.584-4.872-6.923-5.94A.388.388,0,0,1,556.717,285.6Z" transform="translate(-330.478 -174.583)" fill="#f2a87f"/>
        <path id="Path_16049" data-name="Path 16049" d="M569.622,501Q562.629,514.654,542,515.64l11.464,13.61,19.973-14.125Z" transform="translate(-331.682 -306.59)" fill="#ec9564" fill-rule="evenodd"/>
        <path id="Path_16050" data-name="Path 16050" d="M567.707,499.422a.776.776,0,1,1,1.381.708c-4.8,9.375-14.265,14.391-28.272,15.062a.776.776,0,0,1-.074-1.55C554.236,513,563.185,508.251,567.707,499.422Z" transform="translate(-330.458 -305.365)" fill="#9d5c38"/>
        <path id="Path_16051" data-name="Path 16051" d="M528.851,511.936a.388.388,0,0,1,.763.142q-8.793,47.235-6.681,79.665a.388.388,0,0,1-.775.05Q520.041,559.257,528.851,511.936Z" transform="translate(-319.286 -313.088)" fill="#f2a87f"/>
        <path id="Path_16052" data-name="Path 16052" d="M499.569,315.729a.776.776,0,0,1,1.509.359l-.013.056-8.537,30.7a.776.776,0,0,1-1.509-.36l.014-.056Z" transform="translate(-300.472 -192.864)" fill="#585858"/>
        <path id="Path_16053" data-name="Path 16053" d="M446.912,591.945l20.4,55.8c-12.932-2.652-25.109-7.378-29.243-14.838l1.837-8.408Q443.928,606.063,446.912,591.945Z" transform="translate(-268.08 -362.244)" fill="#ead0bb" fill-rule="evenodd"/>
        <path id="Path_16054" data-name="Path 16054" d="M438.441,436.57l9.374,18.276c-5.97-1.429-8.724-5.943-9.9-12.449A16.248,16.248,0,0,1,438.441,436.57Z" transform="translate(-267.926 -267.161)" fill="#cdd6d4" fill-rule="evenodd"/>
        <path id="Path_16055" data-name="Path 16055" d="M409.171,393.494,421.6,417.72l-.252.95-1.125-.129q-12.445-1.447-15.179-2.69l-.06-.028C402.382,414.6,405.35,404.14,409.171,393.494Z" transform="translate(-247.23 -240.801)" fill="#cdd6d4" fill-rule="evenodd"/>
      </g>
    </g>
    <circle id="Ellipse_557" data-name="Ellipse 557" cx="109.235" cy="109.235" r="109.235" transform="translate(-9746.974 -3923.163)" fill="#fef6e7"/>
    <path id="Path_16062" data-name="Path 16062" d="M692.273,708.342l1.5-.4a.776.776,0,0,1,.95.549l8.436,31.485a.776.776,0,0,1-.549.95l-1.5.4a.776.776,0,0,1-.95-.549l-8.437-31.485A.776.776,0,0,1,692.273,708.342Z" transform="translate(-10407.745 -4474.211)" fill="#018fc0" fill-rule="evenodd"/>
    <path id="Path_16063" data-name="Path 16063" d="M692.273,708.342l1.5-.4a.776.776,0,0,1,.95.549l.9,3.373-3,.8-.9-3.374A.776.776,0,0,1,692.273,708.342Z" transform="translate(-10407.745 -4474.211)" fill="#ea697c" fill-rule="evenodd"/>
    <path id="Path_16110" data-name="Path 16110" d="M953.474,466H865v88.474h88.474Zm-1.552,1.552v85.37h-85.37v-85.37Z" transform="translate(-10513.799 -4326.171)" fill="#f0decf"/>
    <path id="Path_16111" data-name="Path 16111" d="M1227.474,578H1139v88.474h88.474Zm-1.552,1.552v85.37h-85.37v-85.37Z" transform="translate(-10681.474 -4394.71)" fill="#f0decf"/>
    <path id="Path_16112" data-name="Path 16112" d="M953.474,740H865v88.474h88.474Zm-1.552,1.552v85.37h-85.37v-85.37Z" transform="translate(-10513.799 -4493.847)" fill="#f0decf"/>
    <path id="Path_16113" data-name="Path 16113" d="M847,448h86.922v86.922H847Z" transform="translate(-10502.782 -4315.156)" fill="#e9525b" fill-rule="evenodd"/>
    <path id="Path_16114" data-name="Path 16114" d="M1121,560h86.922v86.922H1121Z" transform="translate(-10670.459 -4383.695)" fill="#6f97f8" fill-rule="evenodd"/>
    <path id="Path_16115" data-name="Path 16115" d="M847,722h86.922v86.922H847Z" transform="translate(-10502.782 -4482.832)" fill="#f7c066" fill-rule="evenodd"/>
    <path id="Path_16116" data-name="Path 16116" d="M993.29,0H769V158.322H993.29Zm-1.552,1.552V156.77H770.552V1.552Z" transform="translate(-10455.051 -4041)" fill="#f0decf"/>
    <path id="Path_16117" data-name="Path 16117" d="M813.692,55.83l206.171.066v1.552l-206.172-.066Z" transform="translate(-10482.4 -4075.165)" fill="#f0decf"/>
    <path id="Path_16126" data-name="Path 16126" d="M727.011,770.364a.776.776,0,0,1,1.059.287c1.308,2.279,1.971,3.977,1.971,5.173a.776.776,0,0,1-1.552,0c0-.848-.583-2.341-1.764-4.4A.776.776,0,0,1,727.011,770.364Z" transform="translate(-10429.116 -4512.365)" fill="#583e40"/>
    <path id="Path_16130" data-name="Path 16130" d="M837.5,166.551v81.858H971.922ZM839.44,170l125.567,76.465H839.44Z" transform="translate(-10496.97 -4142.922)" fill="#e9525b"/>
    <path id="Path_16131" data-name="Path 16131" d="M851.082,342.5H837.5v13.582h13.582Zm-1.941,1.94v9.7h-9.7v-9.7Z" transform="translate(-10496.97 -4250.595)" fill="#e9525b"/>
    <path id="Path_16132" data-name="Path 16132" d="M1167.071,227.686c.093,0,.19,0,.287.012a3.38,3.38,0,0,1,2.061.9l.128.132a2.931,2.931,0,0,1,.314.4,4.284,4.284,0,0,1-.311,4.609,6.579,6.579,0,0,1-.893,1.041l4.657-.219h0a.85.85,0,0,1,.035,1.7l-7.412.349a.84.84,0,0,1-.8-.591.855.855,0,0,1,.345-.974l.5-.329a7.746,7.746,0,0,0,2.185-1.943,2.6,2.6,0,0,0,.283-2.716,1.586,1.586,0,0,0-1.226-.666c-.054,0-.1-.006-.155-.006a1.657,1.657,0,0,0-.916.26l.039.544a.847.847,0,0,1-.776.909h-.093l-.039,0a.84.84,0,0,1-.765-.783l-.07-.964a.849.849,0,0,1,.209-.63A3.217,3.217,0,0,1,1167.071,227.686ZM1146.058,217.6a.867.867,0,0,1,.338.068l.167.113.031-.016a.839.839,0,0,1,.26-.04.858.858,0,0,1,.819.589l2.852,8.828a.837.837,0,0,1,.648.838.858.858,0,0,1-.213.5l.64,1.99.027.1.016.1a.85.85,0,0,1-.6.854.87.87,0,0,1-.908-.251.886.886,0,0,1-.171-.3l-.726-2.241-6.585-.286-1,2.3a.865.865,0,0,1-1.125.446.838.838,0,0,1-.454-1.108l5.2-11.975A.857.857,0,0,1,1146.058,217.6Zm32.972-1.552a.857.857,0,0,1,.718.82l.2,5.776a4.15,4.15,0,0,1,2.918-1.345,3.294,3.294,0,0,1,1.048.172,3.148,3.148,0,0,1,1.607,1.245l.1.164a3.617,3.617,0,0,1,.349.77,4.052,4.052,0,0,1-.512,3.57,4.52,4.52,0,0,1-.85.882l-.353-.006c.117,0,.237.005.353.006a5.753,5.753,0,0,1-3.566,1.156,6.83,6.83,0,0,1-.99-.072.868.868,0,0,1-.726.442h-.031a.863.863,0,0,1-.753-.442.826.826,0,0,1-.1-.376l-.415-11.884a.838.838,0,0,1,.124-.468C1178.448,216.32,1178.739,216.183,1179.03,216.045Zm12.934,7.682a1.929,1.929,0,0,0-1.409-1.714l-.124-.007a1.859,1.859,0,0,0-1.517,1.281,6.986,6.986,0,0,0-.233,2.76.847.847,0,0,1-.8.882h-.02a.863.863,0,0,1-.889-.773l-.792-9.19a.846.846,0,0,1,.78-.916l.085,0h0a.851.851,0,0,1,.842.776l.38,4.415a3.132,3.132,0,0,1,2.181-.924,3.524,3.524,0,0,1,3.213,3.208c.019.147.027.295.035.441a7.211,7.211,0,0,1-.4,2.384.845.845,0,0,1-.163,1.664l-1.005.064-.054,0a.862.862,0,0,1-.691-.342.846.846,0,0,1-.113-.8c.171-.449.349-.924.485-1.4A4.657,4.657,0,0,0,1191.964,223.726Zm-9.282-1.085a2.729,2.729,0,0,0-2.208,1.654,4.614,4.614,0,0,0-.314.941l-.051.247a9.418,9.418,0,0,0-.14,1.593l.438-.191a.809.809,0,0,1,.326-.07.849.849,0,0,1,.757.481,3.356,3.356,0,0,0,2.363-1.325,2.548,2.548,0,0,0,.268-2.126l-.05-.141a.772.772,0,0,0-.031-.078l-.054-.123a1.507,1.507,0,0,0-.827-.784A1.458,1.458,0,0,0,1182.682,222.641Zm-24.536,3.1a.781.781,0,1,1,0,1.552h-4.082a.781.781,0,1,1,0-1.552Zm-11.8-5.821-2.852,7.134,5.045.239Zm17.027,2.716h.035l10.33.633a.848.848,0,0,1-.05,1.694l-.054,0-10.33-.634a.847.847,0,0,1,.07-1.693Zm-5.972,0a.838.838,0,0,1,.834.743.83.83,0,0,1-.768.893l-3.341.3-.081,0a.84.84,0,0,1-.846-.743.828.828,0,0,1,.768-.891l3.337-.3A.964.964,0,0,1,1157.4,222.641ZM1166.892,211a.88.88,0,0,1,.912.78l.524,8.434a.86.86,0,0,1-.85.874l-.054,0a.874.874,0,0,1-.9-.782l-.524-8.433a.859.859,0,0,1,.85-.873Zm11.832,5.242a.576.576,0,0,1,.081.005c-.256.126-.516.251-.776.375a.76.76,0,0,1,.528-.366l.1-.01A.529.529,0,0,1,1178.724,216.242Z" transform="translate(-10682.087 -4170.123)" fill="#e9525b" fill-rule="evenodd"/>
    <path id="Path_16133" data-name="Path 16133" d="M976.438,14.5a.966.966,0,0,1,.966.906l0,.064V33.156c4.016.321,6.787,3.19,8.514,8.155,1.409,4.052,2.127,9.311,2.464,16.484l.074,1.654c.047,1.144.078,2.28.12,3.944l.078,3.3h8.261l.3-1.59a49.355,49.355,0,0,1,1.851-7.65c.908-2.463,2.068-3.81,3.776-3.717,3.139.171,4.827,4.348,5.805,11.287.074.549.147,1.106.21,1.67h20.155a.97.97,0,0,1,.062,1.938l-.062,0h-19.957c.109,1.209.194,2.437.256,3.665l.027.568c.023.559.043,1.088.054,1.582l.016.534.008.627a.969.969,0,0,1-1.936.073l0-.086,0-.2c0-.188,0-.407-.012-.653-.016-.707-.047-1.5-.089-2.344-.062-1.262-.147-2.524-.264-3.762h-8.588l-.124.622a49.51,49.51,0,0,1-2.282,8.674c-1.207,3.045-2.74,4.882-4.847,5.3a2.547,2.547,0,0,1-2.79-1.405,10.22,10.22,0,0,1-1.071-3.5l-.035-.2a74.388,74.388,0,0,1-.613-9.5h-9.356v33.76a.969.969,0,0,1-1.936.064l0-.064V68.632h-7.59l-.035.9a69.765,69.765,0,0,1-1.308,12.562l-.089.387c-1.335,5.745-3.81,8.852-7.92,8.852-4.179,0-7.1-2.308-8.983-6.545-1.367-3.074-2.156-6.89-2.781-12.477l-.211-2c-.039-.388-.082-.846-.16-1.676h-8.029l-.033,1.016a39.413,39.413,0,0,1-.923,8.42c-.891,3.511-2.6,5.485-5.4,5.485a.97.97,0,0,1-.064-1.938l.064,0c1.718,0,2.82-1.273,3.518-4.022l.061-.247a43.53,43.53,0,0,0,.835-8.712H923.47a.97.97,0,0,1-.064-1.938l.064,0h13l.045-1.78a44.389,44.389,0,0,1,.77-8.816c.757-3.348,2.306-5.153,4.918-4.884,2.185.225,3.558,2.014,4.441,5.138l.047.168a59.707,59.707,0,0,1,1.465,10.172H966l.039-1.154c.02-.658.039-1.343.062-2.058l.078-2.811c.272-8.951.632-13.514,1.607-17.726l.066-.28c1.347-5.631,3.756-8.918,7.613-9.457V15.47A.97.97,0,0,1,976.438,14.5Zm-10.5,54.133H948.34l.2,2.031.052.5c.62,5.918,1.389,9.833,2.726,12.839,1.6,3.591,3.877,5.393,7.21,5.393,3.007,0,4.924-2.445,6.069-7.523l.043-.192A71.41,71.41,0,0,0,965.934,68.633Zm30.613,0H988.7l.039,1.411a64.127,64.127,0,0,0,.536,7.679l.062.394c.408,2.421.966,3.329,1.552,3.213C993.357,80.837,994.917,76.966,996.547,68.633ZM939.18,56.526l-.044.2c-.443,2.055-.585,4.309-.71,9.44l-.013.528h7.8l-.142-1.482a49.163,49.163,0,0,0-1.246-8.18c-.693-2.539-1.608-3.763-2.814-3.887C940.619,53,939.748,54.015,939.18,56.526Zm30.564-13.412-.066.272c-.9,3.91-1.265,8.231-1.529,16.468l-.1,3.247-.058,2.06q-.023.791-.047,1.532h7.52V35.178C972.7,35.731,970.881,38.345,969.744,43.113Zm29.15,23.579h8.017c-.054-.473-.116-.939-.182-1.4l-.054-.4c-.842-5.667-2.278-9.131-3.931-9.221-1.172-.064-2.169,2.482-3.415,8.75ZM977.408,35.106V66.692h9.309l-.089-3.726c-.039-1.557-.074-2.639-.12-3.781l-.043-.936c-.322-7.186-1.021-12.4-2.375-16.3C982.616,37.719,980.466,35.429,977.408,35.106Z" transform="translate(-10548.985 -4049.873)" fill="#e9525b"/>
    <path id="Path_16134" data-name="Path 16134" d="M515,836.991l82.895,22.336,23.5-25.215L560.542,819Z" transform="translate(-10299.613 -4542.191)" fill="#f0decf" fill-rule="evenodd"/>
    <path id="Path_16135" data-name="Path 16135" d="M698.044,716.473a.582.582,0,0,1,.348,1.11l-.054.017-1.594.416a.582.582,0,0,1-.348-1.11l.054-.017Z" transform="translate(-10410.388 -4479.438)" fill="#fff"/>
    <path id="Path_16136" data-name="Path 16136" d="M699.529,721.519a.582.582,0,0,1,.348,1.109l-.054.017-1.594.416a.582.582,0,0,1-.348-1.109l.054-.017Z" transform="translate(-10411.296 -4482.526)" fill="#fff"/>
    <path id="Path_16137" data-name="Path 16137" d="M678.851,863.154a.777.777,0,0,1-.018,1.049l-.049.046-4.256,3.768a.776.776,0,0,1-1.077-1.116l.048-.047,4.256-3.768A.776.776,0,0,1,678.851,863.154Zm-1.756-5.377a.776.776,0,0,1-.086,1.048l-.049.041-8.29,6.466a.776.776,0,0,1-1-1.183l.049-.041,8.29-6.466A.776.776,0,0,1,677.1,857.777Zm-9.493,1.487a.777.777,0,0,1-.13,1.044l-.05.039-4.21,3.01a.776.776,0,0,1-.953-1.224l.05-.039,4.21-3.01A.776.776,0,0,1,667.6,859.264Zm24.461-7.807a.777.777,0,0,1-.018,1.049l-.048.046L680.87,862.4a.776.776,0,0,1-1.077-1.116l.049-.047,11.126-9.851A.776.776,0,0,1,692.063,851.456Zm-30.522,5.789a.776.776,0,0,1-.173,1.037l-.052.037-5.116,3.343a.776.776,0,0,1-.9-1.262l.052-.037,5.116-3.343A.776.776,0,0,1,661.542,857.245Zm15.347-4.62a.776.776,0,0,1-.13,1.043l-.05.039-7.454,5.329a.776.776,0,0,1-.953-1.224l.05-.039,7.454-5.329A.776.776,0,0,1,676.889,852.625ZM687.07,850a.776.776,0,0,1-.086,1.048l-.049.041-8.017,6.253a.776.776,0,0,1-1-1.183l.049-.041,8.017-6.253A.776.776,0,0,1,687.07,850Zm-10.2-2.766a.776.776,0,0,1-.173,1.037l-.052.037-12.276,8.022a.776.776,0,0,1-.9-1.263l.052-.037,12.276-8.022A.776.776,0,0,1,676.867,847.231Zm5.689,1.343a.777.777,0,0,1-.13,1.044l-.05.039-3.939,2.816a.776.776,0,0,1-.953-1.224l.05-.039,3.939-2.816A.776.776,0,0,1,682.556,848.574Z" transform="translate(-10385.287 -4559.252)" fill="#583e40"/>
    <path id="Path_16138" data-name="Path 16138" d="M945.177,476h-45.4a.776.776,0,0,0-.776.776v60.147a.776.776,0,0,0,.776.776h45.4a.777.777,0,0,0,.776-.776V476.776A.777.777,0,0,0,945.177,476Zm-.776,1.552v58.595H900.552V477.552Z" transform="translate(-10534.605 -4332.291)" fill="#fff"/>
    <path id="Path_16139" data-name="Path 16139" d="M969.342,493H948.776a.776.776,0,0,0-.776.776v14.746a.776.776,0,0,0,.776.776h20.566a.777.777,0,0,0,.776-.776V493.776A.777.777,0,0,0,969.342,493Zm-.776,1.552v13.194H949.552V494.552Z" transform="translate(-10564.591 -4342.694)" fill="#fff"/>
    <path id="Path_16140" data-name="Path 16140" d="M971.684,593.5a.776.776,0,0,1,.058,1.55l-.058,0H953.776a.776.776,0,0,1-.058-1.55l.058,0Z" transform="translate(-10567.65 -4404.195)" fill="#fff"/>
    <path id="Path_16141" data-name="Path 16141" d="M972.805,604.5a.776.776,0,0,1,.058,1.55l-.058,0H958.776a.776.776,0,0,1-.058-1.55l.058,0Z" transform="translate(-10570.711 -4410.927)" fill="#fff"/>
    <path id="Path_16143" data-name="Path 16143" d="M1185.267,606c-16.686,0-30.267,11.257-30.267,25.223v.23c.074,6.662,3.256,12.886,8.747,17.51l.248.206,0,.049c-.314,2.433-1.762,4.34-4.408,5.769a.776.776,0,0,0,.186,1.437l.225.054c6.015,1.405,10.5.772,13.384-1.978l.054-.054.225.08a35.527,35.527,0,0,0,11.61,1.92c16.686,0,30.267-11.257,30.267-25.223S1201.953,606,1185.267,606Zm0,1.552c15.887,0,28.715,10.633,28.715,23.671s-12.829,23.671-28.715,23.671a33.825,33.825,0,0,1-11.769-2.075.777.777,0,0,0-.842.2l-.1.1c-2.169,2.274-5.63,3.03-10.442,2.2l-.144-.025.066-.049a8.511,8.511,0,0,0,3.543-6.368.768.768,0,0,0-.291-.662c-5.553-4.437-8.739-10.514-8.739-17C1156.552,618.185,1169.381,607.552,1185.267,607.552Z" transform="translate(-10691.266 -4411.845)" fill="#fff"/>
    <path id="Path_16144" data-name="Path 16144" d="M1189.463,660a4.462,4.462,0,1,1-4.463,4.462A4.463,4.463,0,0,1,1189.463,660Zm14.357,0a4.462,4.462,0,1,1-4.462,4.462A4.463,4.463,0,0,1,1203.82,660Zm14.358,0a4.462,4.462,0,1,1-4.462,4.462A4.463,4.463,0,0,1,1218.178,660Zm-28.715,1.552a2.91,2.91,0,1,0,2.91,2.91A2.911,2.911,0,0,0,1189.463,661.552Zm14.357,0a2.91,2.91,0,1,0,2.91,2.91A2.911,2.911,0,0,0,1203.82,661.552Zm14.358,0a2.91,2.91,0,1,0,2.91,2.91A2.911,2.911,0,0,0,1218.178,661.552Z" transform="translate(-10709.624 -4444.891)" fill="#fff"/>
    <path id="Path_16145" data-name="Path 16145" d="M928.153,476a.776.776,0,0,1,.774.718l0,.058v59.682a.776.776,0,0,1-1.55.058l0-.058V476.776A.776.776,0,0,1,928.153,476Z" transform="translate(-10551.971 -4332.291)" fill="#fff"/>
    <path id="Path_16146" data-name="Path 16146" d="M910.619,489.636a.777.777,0,0,1,.774.718l0,.058v54.856a.776.776,0,0,1-1.55.058l0-.058V490.412A.776.776,0,0,1,910.619,489.636Z" transform="translate(-10541.24 -4340.635)" fill="#fff"/>
    <path id="Path_16147" data-name="Path 16147" d="M895.662,785.969a.776.776,0,0,1,1.36-.058l.031.058,4.381,8.877,9.8,1.424a.777.777,0,0,1,.508,1.236l-.037.045-.041.043-7.089,6.91,1.674,9.757a.776.776,0,0,1-1.022.864l-.052-.021-.052-.025-8.762-4.607-8.762,4.607a.777.777,0,0,1-1.138-.7l0-.056.008-.057,1.673-9.758-7.088-6.91a.776.776,0,0,1,.314-1.3l.058-.015.058-.011,9.8-1.424Zm.7,2.1-3.866,7.833a.776.776,0,0,1-.522.413l-.062.012-8.644,1.256,6.255,6.1a.775.775,0,0,1,.234.555l0,.069-.008.063-1.477,8.609L896,808.908a.776.776,0,0,1,.595-.053l.064.024.063.03,7.731,4.064-1.477-8.609a.776.776,0,0,1,.137-.586l.043-.054.043-.046,6.255-6.1-8.644-1.256a.776.776,0,0,1-.516-.311l-.038-.057-.03-.056ZM923.6,762.3a.778.778,0,0,1,1.362-.058l.031.058,4.381,8.877,9.794,1.424a.776.776,0,0,1,.508,1.236l-.035.045-.043.043-7.09,6.91,1.672,9.757a.775.775,0,0,1-1.021.864l-.05-.021-.054-.025L924.3,786.8l-8.761,4.607a.777.777,0,0,1-1.138-.7l0-.056.008-.057,1.673-9.758-7.088-6.909a.776.776,0,0,1,.313-1.3l.058-.015.058-.011,9.8-1.424Zm.695,2.1-3.865,7.833a.776.776,0,0,1-.522.413l-.062.012-8.644,1.256,6.255,6.1a.775.775,0,0,1,.234.555l0,.069-.008.063L916.2,789.3l7.731-4.064a.782.782,0,0,1,.6-.053l.062.024.062.029,7.734,4.064-1.478-8.609a.783.783,0,0,1,.136-.586l.043-.054.047-.046,6.255-6.1-8.646-1.256a.779.779,0,0,1-.516-.311l-.039-.057-.031-.056Zm-34.455-12.962a.776.776,0,0,1,1.36-.058l.031.058,4.381,8.877,9.8,1.424a.777.777,0,0,1,.508,1.236l-.037.045-.041.043-7.089,6.91,1.674,9.757a.776.776,0,0,1-1.022.864l-.052-.021-.052-.025-8.762-4.607-8.762,4.607a.777.777,0,0,1-1.138-.7l0-.056.008-.057,1.673-9.758-7.088-6.909a.777.777,0,0,1,.314-1.3l.058-.015.058-.011,9.8-1.424Zm.7,2.1-3.866,7.833a.776.776,0,0,1-.522.413l-.062.012-8.644,1.256,6.255,6.1a.775.775,0,0,1,.234.555l0,.069-.008.063-1.477,8.609,7.732-4.064a.776.776,0,0,1,.595-.053l.064.024.063.029,7.731,4.064-1.477-8.609a.776.776,0,0,1,.137-.586l.043-.054.044-.046,6.255-6.1-8.644-1.256a.776.776,0,0,1-.516-.311l-.038-.057-.03-.056Z" transform="translate(-10519.917 -4500.579)" fill="#fff"/>
    <path id="Path_16149" data-name="Path 16149" d="M591.837,828.757l-26.43,14.069a.776.776,0,0,0,.506,1.449l47.341-8.726a.776.776,0,0,0,.051-1.515l-20.911-5.343A.777.777,0,0,0,591.837,828.757Zm.464,1.511,17.2,4.393-38.931,7.176Z" transform="translate(-10330.207 -4548.106)" fill="#c7b1a7"/>
    <path id="Path_16150" data-name="Path 16150" d="M632.421,831.709a.776.776,0,0,1,.721,1.373l-.054.028-2.965,1.412a.774.774,0,0,1-.408.072l-.069-.01-3.749-.706a.776.776,0,0,1,.23-1.534l.057.009,3.5.659Z" transform="translate(-10367.092 -4549.923)" fill="#c7b1a7"/>
    <path id="Path_16061" data-name="Path 16061" d="M358.523,34v1.552H97.552V329.3H377.343v1.552H96V34ZM517.028,178.769v54.49h-1.552v-54.49Z" transform="translate(-10213.169 -4052.105)" fill="#f0decf"/>
  </g>
</svg>
