<svg xmlns="http://www.w3.org/2000/svg" width="13.365" height="14.85" viewBox="0 0 13.365 14.85">
  <g id="Location" transform="translate(-0.001)">
    <path id="Path_16378" data-name="Path 16378" d="M9.683,3.1C6.574,3.1,3.951,5.357,4.165,8.17A7.487,7.487,0,0,0,4.3,9.2a9.233,9.233,0,0,0,2.416,3.988,21.512,21.512,0,0,0,2.886,2.534.126.126,0,0,0,.155,0,21.516,21.516,0,0,0,2.886-2.534A9.233,9.233,0,0,0,15.062,9.2,7.473,7.473,0,0,0,15.2,8.17C15.414,5.357,12.792,3.1,9.683,3.1ZM3.016,8.249C2.743,4.66,6.061,2,9.683,2s6.939,2.66,6.667,6.249a8.507,8.507,0,0,1-.161,1.183A10.28,10.28,0,0,1,13.5,13.924,22.64,22.64,0,0,1,10.46,16.6a1.322,1.322,0,0,1-1.555,0,22.639,22.639,0,0,1-3.044-2.673A10.281,10.281,0,0,1,3.177,9.433,8.5,8.5,0,0,1,3.016,8.249Z" transform="translate(-2.999 -2)" fill="#e6ba7c" fill-rule="evenodd"/>
    <path id="Path_16379" data-name="Path 16379" d="M11.268,9.016a.916.916,0,1,0,.96.915A.938.938,0,0,0,11.268,9.016Zm-2.112.915a2.114,2.114,0,0,1,4.223,0,2.114,2.114,0,0,1-4.223,0Z" transform="translate(-4.584 -3.524)" fill="#e6ba7c" fill-rule="evenodd"/>
  </g>
</svg>
