<?xml version="1.0" encoding="utf-8"?>
<!-- Generator: Adobe Illustrator 25.4.1, SVG Export Plug-In . SVG Version: 6.00 Build 0)  -->
<svg version="1.1" id="Layer_1" xmlns="http://www.w3.org/2000/svg" xmlns:xlink="http://www.w3.org/1999/xlink" x="0px" y="0px"
	 viewBox="0 0 324.1 134.4" style="enable-background:new 0 0 324.1 134.4;" xml:space="preserve">
<style type="text/css">
	.st0{fill:#229580;}
	.st1{fill:#F6BE67;}
</style>
<g>
	<g>
		<path class="st0" d="M72,63.5c4.8-6,2.7-16.8,2.5-18c-0.4-1.9-2.3-3.2-4.2-2.8c-1.9,0.4-3.2,2.3-2.8,4.2c0.6,2.8,1.1,9.4-1,12
			c-0.4,0.5-1.1,1.1-2.8,1.1c-0.5,0-0.8-0.1-1.2-0.5c-0.7-0.7-2.8-3.8-2.5-14.9c0.1-2-1.5-3.6-3.5-3.7c-0.7,0-1.4,0.2-2,0.6l0,0l0,0
			c0,0-4.1,2.4-11.1,2.6c-1.2,0-2.2,0.6-2.9,1.6c-0.6,1-0.8,2.2-0.4,3.2c0,0.1,3.8,10.8-0.9,18c-2.9,4.4-8.7,6.8-17.1,7.1
			c-5.9,0.2-10.2-1.9-12.5-6.1c-2.9-5.5-1.8-13.4,2.6-19.4c2.9-3.9,9.6-10,22.1-7.5c1.9,0.4,3.8-0.9,4.2-2.8
			c0.4-1.9-0.9-3.8-2.8-4.2c-11.9-2.3-22.6,1.4-29.1,10.3c-6.1,8.2-7.4,19-3.2,27c3.4,6.4,9.7,9.9,17.9,9.9c0.4,0,0.8,0,1.2,0
			c10.8-0.4,18.5-3.9,22.8-10.3c4.5-6.8,3.9-15,2.9-19.9c1.9-0.3,3.5-0.6,4.9-1c0.3,7.1,1.8,11.9,4.5,14.7c1.7,1.8,3.9,2.7,6.3,2.7
			C67.1,67.3,70,66,72,63.5z"/>
		<path class="st0" d="M55,75.1c-1.2,0-2.3,0.5-3.1,1.3c-0.8-0.8-1.9-1.3-3.1-1.3c-2.4,0-4.4,2-4.4,4.4s2,4.4,4.4,4.4
			c1.2,0,2.3-0.5,3.1-1.3c0.8,0.8,1.9,1.3,3.1,1.3c2.4,0,4.4-2,4.4-4.4S57.5,75.1,55,75.1z"/>
		<path class="st0" d="M116.2,43.4c1.2,0,2.3-0.5,3.1-1.3c0.8,0.8,1.9,1.3,3.1,1.3c2.4,0,4.4-2,4.4-4.4c0-2.4-2-4.4-4.4-4.4
			c-1.2,0-2.3,0.5-3.1,1.3c-0.8-0.8-1.9-1.3-3.1-1.3c-2.4,0-4.4,2-4.4,4.4C111.7,41.4,113.7,43.4,116.2,43.4z"/>
		<ellipse transform="matrix(0.9871 -0.1602 0.1602 0.9871 -11.8605 11.991)" class="st0" cx="68.4" cy="79.6" rx="4.4" ry="4.4"/>
		<circle class="st0" cx="25" cy="57.9" r="4.4"/>
		<path class="st0" d="M173.1,43.6c-1.5-1.3-3.7-1.2-5,0.3c-6.2,7-25.1,24.6-37.3,22c-4.7-1-8.3-5.2-10.6-12.5l-0.6-2.1
			c-0.5-1.9-2.4-3-4.3-2.5c-1.9,0.5-3,2.3-2.7,4.2c0.6,2.8,1.1,9.4-1,12c-0.4,0.5-1.1,1.1-2.8,1.1c-0.5,0-0.9-0.1-1.4-0.7
			c-3.5-4.2-2.5-20.1-0.7-30.1c0.4-1.9-0.9-3.8-2.9-4.1c-1.9-0.4-3.8,0.9-4.1,2.9c0,0.3-1.2,6.7-1.6,14.2
			C97.6,59,98.9,66.2,102.1,70c1.8,2.1,4.1,3.2,6.8,3.2c3.4,0,6.3-1.3,8.3-3.8c0.8-0.9,1.3-2,1.8-3.1c2.8,3.4,6.3,5.6,10.3,6.5
			c1.3,0.3,2.6,0.4,4,0.4c7.3,0,15.9-3.8,25.6-11.3c8.2-6.4,14.2-13.1,14.5-13.4C174.7,47.1,174.6,44.9,173.1,43.6z"/>
		<path class="st0" d="M184.3,33.9c-0.4-1.9-2.3-3.2-4.2-2.8c-1.9,0.4-3.2,2.3-2.8,4.2c0,0.1,2.9,15.1-3.3,33.1
			c-0.6,1.9,0.3,3.9,2.2,4.5c0.4,0.1,0.8,0.2,1.2,0.2c1.5,0,2.9-0.9,3.4-2.4C187.6,50.9,184.4,34.6,184.3,33.9z"/>
		<path class="st0" d="M86.5,49.2c-1.6-1.1-3.8-0.7-5,0.9c-1.1,1.6-0.7,3.8,0.9,5c2.6,1.8,5.3,5,4.9,6.5c-0.3,1.1-3,3.3-11.5,4.6
			c-1.9,0.3-3.3,2.1-3,4.1c0.3,1.8,1.8,3,3.5,3c0.2,0,0.4,0,0.6,0c10.5-1.6,16.2-4.9,17.4-10C95.9,56,87.4,49.9,86.5,49.2z"/>
	</g>
	<g>
		<path class="st1" d="M13.1,127c-3.6,0-6.6-1.1-9.1-3.2c-2.6-2.3-4-5.2-4-8.8c0-4.4,1.3-8.4,3.9-12c2.9-4,6.5-6,10.9-6
			c4.2,0,7.3,0.9,9.3,2.8c2.1,2,3.2,5,3.2,9.2c0,4.4-1.2,8.3-3.6,11.9C20.9,125,17.4,127,13.1,127z M14.8,100.9
			c-3.1,0-5.7,1.5-7.9,4.6c-2,2.8-3,6-3,9.4c0,2.4,0.9,4.4,2.7,6c1.7,1.4,3.9,2.2,6.5,2.2c3.1,0,5.6-1.6,7.6-4.7
			c1.8-2.8,2.7-5.9,2.7-9.4c0-3-0.7-5.2-2-6.4C20,101.5,17.8,100.9,14.8,100.9z"/>
		<path class="st1" d="M42.6,111.2c-0.7,0-1.2-0.2-1.5-0.7c-0.2-0.3-0.4-1-0.5-2.1c-1,0.2-2.4,0.7-4.4,1.3c-2,0.8-3.1,1.8-3.1,3
			c0.4,0.1,0.8,0.2,1.1,0.3c2.9,0.5,5.1,1.2,6.5,2.2c2.1,1.3,3.1,3.3,3.1,5.8c0,2.1-0.9,3.6-2.7,4.7c-1.5,0.9-3.4,1.3-5.6,1.3
			c-1.7,0-3.2-0.3-4.8-0.8c-2-0.7-2.9-1.7-2.9-3c0-0.5,0.2-1,0.6-1.3c0.4-0.4,0.9-0.6,1.4-0.6c0.4,0,0.9,0.3,1.5,0.9
			c0.3,0.3,1,0.5,2.1,0.7c0.8,0.2,1.6,0.2,2.2,0.2c1.1,0,2-0.1,2.8-0.4c1.2-0.4,1.8-1,1.8-1.8c0-1.7-1.2-2.9-3.6-3.5l-2-0.4
			c-1.7-0.4-2.9-0.8-3.6-1.3c-1-0.7-1.5-1.8-1.5-3.2c0-2.7,1.2-4.5,3.7-5.7c0.8-0.3,2-0.8,3.7-1.2c1.7-0.5,2.9-0.9,3.6-1.2
			c0.5-0.2,1.1-0.3,1.7-0.3c0.5,0,1,0.2,1.3,0.5c0.3,0.4,0.5,0.8,0.5,1.4c0,0.4,0.1,0.9,0.2,1.6c0.2,0.7,0.2,1.2,0.2,1.6
			c0,0.6-0.2,1-0.5,1.4C43.6,111.1,43.2,111.2,42.6,111.2z"/>
		<path class="st1" d="M60.6,109.6c-0.3,0-0.6,0-0.9,0c-0.4,0-0.7,0-0.9,0c-0.3,0-1.2,0.1-2.6,0.3l0.4,11.2l0,0.8l0,1
			c0.1,2.8-0.6,4.2-2,4.2c-0.5,0-0.9-0.2-1.3-0.5c-0.4-0.3-0.6-0.7-0.6-1.2c0-0.5,0-1.2,0.1-2.2c0-1,0.1-1.7,0.1-2.2l-0.4-11.1
			c-0.9,0-2.3-0.1-4.2-0.3c-1.1-0.2-1.7-0.8-1.7-1.9c0-0.6,0.2-1,0.5-1.4c0.3-0.4,0.8-0.6,1.3-0.6l4,0.3c0-0.6,0-1.5-0.1-2.6
			c-0.1-1.1-0.1-1.9-0.1-2.4c0-0.5,0.2-1,0.6-1.3c0.4-0.3,0.8-0.5,1.4-0.5c1.1,0,1.8,0.9,2,2.8c0,0.5,0.1,1,0.1,1.7l0,1.1l0,1.2
			c1.6-0.2,2.5-0.3,2.7-0.3c1.3,0,2.2,0.1,2.6,0.2c0.8,0.3,1.2,0.8,1.2,1.8c0,0.6-0.2,1-0.5,1.4C61.6,109.4,61.1,109.6,60.6,109.6z"
			/>
		<path class="st1" d="M78.6,127c-0.2,0-0.7-0.3-1.3-0.8c-0.6-0.5-1-1-1.3-1.4c-1.2,0.7-2.3,1.2-3.2,1.5c-0.9,0.3-1.7,0.5-2.3,0.5
			c-3,0-5.1-0.8-6.5-2.5c-1.3-1.6-1.9-4-1.9-7.2c0-3.1,1.1-5.7,3.2-7.9c2.1-2.2,4.6-3.3,7.6-3.3c1.1,0,2.3,0.3,3.7,0.9
			c1.7,0.7,2.6,1.6,2.6,2.6c0,0.3-0.1,0.6-0.4,0.9c-0.1,0.5-0.2,1.3-0.3,2.4c-0.1,1.1-0.1,2.5-0.1,4.2c0,1.6,0.1,2.8,0.3,3.7
			c0.1,0.6,0.5,1.7,1.2,3.3c0.1,0.2,0.2,0.6,0.4,1l0.1,0.3c0,0.5-0.2,0.9-0.5,1.3C79.5,126.9,79.1,127,78.6,127z M74.7,113.8
			c0-0.5,0-1.1,0.1-1.8c0.1-0.6,0.2-1.3,0.3-2c-0.5-0.2-0.9-0.4-1.2-0.5c-0.3-0.1-0.6-0.2-0.8-0.2c-2,0-3.7,0.8-5.1,2.4
			c-1.4,1.6-2.1,3.5-2.1,5.5c0,2.1,0.4,3.6,1.1,4.7c0.7,1,1.8,1.6,3.3,1.6c1.2,0,2.3-0.2,3.1-0.7c0.5-0.2,1.1-0.7,1.9-1.4
			C74.9,118,74.7,115.5,74.7,113.8z"/>
		<path class="st1" d="M100,109.4c-0.2,1.9-0.2,3.7-0.2,5.6c0,4.2,0.2,7.4,0.6,9.6c0,0.2,0,0.3,0,0.4c0,0.5-0.2,0.9-0.5,1.3
			c-0.4,0.3-0.8,0.5-1.2,0.5c-0.8,0-1.4-0.6-1.7-1.7c-0.9,0.7-1.9,1.2-2.8,1.5c-1,0.3-2,0.5-3.1,0.5c-2.6,0-4.8-0.9-6.5-2.6
			c-1.8-1.8-2.7-4.1-2.7-6.9c0-3.4,0.9-6.1,2.7-8.1c1.8-2,4.1-3.1,7-3.1c1.5,0,2.6,0.2,3.4,0.7l1.8,1.3c0.2-5.3,0.4-8.9,0.6-10.8
			c0.2-1.1,0.7-1.7,1.7-1.7c1.2,0,1.7,0.6,1.7,1.8C100.7,99.4,100.5,103.3,100,109.4z M91.5,109.8c-2.1,0-3.7,0.6-4.8,1.9
			c-1.1,1.3-1.6,3.2-1.6,5.7c0,1.6,0.6,3,1.7,4.2c1.2,1.2,2.5,1.8,4.1,1.8c1.1,0,2-0.2,2.7-0.6c0.4-0.2,1.1-0.8,2.1-1.6
			c0.2-0.2,0.4-0.4,0.6-0.6l-0.1-3.3l0-2.2l0-2.2c-0.5-1-1.1-1.8-1.9-2.3C93.6,110.1,92.6,109.8,91.5,109.8z"/>
		<path class="st1" d="M118.3,125.4c-2.9,1.1-6.5,1.7-10.9,1.7c-0.5,0-1.1-0.3-1.6-0.8c-0.5-0.5-0.7-1-0.7-1.6v-5.5
			c0-1.8,0.1-4.4,0.3-7.8c0.3-3.6,0.4-6.3,0.4-7.9c0-1.2,0.1-2.9,0.2-5.2c0.1-0.6,0.3-1.1,0.6-1.3c1.7-0.5,3.7-0.8,5.9-0.8
			c2.2,0,4.4,0.8,6.4,2.3c2.4,1.8,3.6,3.9,3.6,6.5c0,3.3-1.3,5.8-3.8,7.7c1.9,0.8,3.3,1.7,4.3,2.7c0.9,1,1.4,2.1,1.4,3.2
			c0,1.5-0.8,3-2.5,4.5C120.8,124.1,119.6,124.9,118.3,125.4z M114.7,115.3l-2-0.3c-0.2,0-0.4,0-0.8,0c-0.3,0-0.6,0-0.8,0
			c-0.7,0-1.4-0.1-2.2-0.2c-0.1,1.6-0.1,3-0.1,4.3v3.9c3.3-0.1,6-0.6,8.1-1.4c0.9-0.3,1.7-0.9,2.5-1.6c0.8-0.7,1.2-1.2,1.2-1.5
			c0-0.6-0.8-1.3-2.4-2C117,116.1,115.9,115.6,114.7,115.3z M112.6,100.1c-1.4,0-2.4,0-2.9,0.1l0,3.3l-0.4,7.4
			c1.8,0.2,2.8,0.2,2.9,0.2c1.9-0.2,3.5-0.7,4.7-1.8c1.3-1.1,2-2.6,2-4.4c0-1.2-0.7-2.3-2-3.3C115.5,100.6,114.1,100.1,112.6,100.1z
			"/>
		<path class="st1" d="M131.4,118.3c0,0.8,0,1.9,0.1,3.4c0,1.5,0.1,2.7,0.1,3.4c0,0.6-0.2,1-0.5,1.4c-0.3,0.4-0.8,0.5-1.4,0.5
			c-0.5,0-1-0.2-1.3-0.5c-0.3-0.4-0.5-0.8-0.5-1.4c0-0.8,0-1.9-0.1-3.4c0-1.5-0.1-2.7-0.1-3.4c0-1.2,0.1-2.7,0.2-4.5
			c0.1-1.8,0.2-3.3,0.2-4.5c0-0.6,0.2-1,0.5-1.4c0.3-0.4,0.8-0.5,1.3-0.5c0.5,0,1,0.2,1.3,0.5c0.3,0.4,0.5,0.8,0.5,1.4
			c0,1.2-0.1,2.7-0.2,4.5C131.5,115.6,131.4,117.1,131.4,118.3z M130.5,102.8c-0.6,0-1.1-0.2-1.6-0.6c-0.4-0.4-0.7-1-0.7-1.6
			c0-0.6,0.2-1.1,0.7-1.6c0.4-0.4,1-0.6,1.6-0.6c0.6,0,1.1,0.2,1.6,0.6c0.4,0.4,0.7,1,0.7,1.6c0,0.6-0.2,1.1-0.7,1.6
			C131.7,102.6,131.1,102.8,130.5,102.8z"/>
		<path class="st1" d="M150.5,127c-1.1,0-1.7-0.6-1.8-1.8l-0.5-4.2c-0.2-1.5-0.3-2.9-0.3-4.2c0-0.4,0-1,0.1-1.8
			c0-0.8,0.1-1.5,0.1-1.8c0-2.7-0.5-4.1-1.5-4.1c-1.4,0-2.8,0.8-4.1,2.5c-1.2,1.5-2.1,3.5-2.7,5.8c0,0.5-0.1,1.1-0.2,1.9
			c-0.1,0.6-0.1,1.2-0.1,1.8c0,0.4,0,1,0.1,1.7c0.1,0.8,0.1,1.3,0.1,1.7c0,0.6-0.2,1-0.5,1.4c-0.3,0.4-0.8,0.5-1.3,0.5
			c-0.6,0-1-0.2-1.4-0.5c-0.3-0.4-0.5-0.8-0.5-1.4c0-0.4,0-1-0.1-1.7c-0.1-0.8-0.1-1.3-0.1-1.7c0-1.3,0.1-3.1,0.3-5.4
			c0.2-2.3,0.3-4.1,0.3-5.4c0-0.4,0-1-0.1-1.8c0-0.8-0.1-1.4-0.1-1.8c0-0.5,0.2-1,0.5-1.3c0.4-0.3,0.8-0.5,1.3-0.5
			c1.2,0,1.8,0.8,1.9,2.5l0.1,2.2c2.1-2.8,4.3-4.3,6.6-4.3c2,0,3.4,0.9,4.2,2.7c0.5,1.2,0.8,3,0.9,5.3v1.9l0,1.8
			c0,1.1,0.1,2.4,0.4,4.1c0.3,1.7,0.4,3,0.4,4.1c0,0.6-0.2,1-0.5,1.4C151.5,126.9,151,127,150.5,127z"/>
		<path class="st1" d="M157.8,127c-0.7,0-1.2-0.2-1.7-0.7c-0.5-0.5-0.7-1-0.7-1.7c0-0.6,0.2-1.2,0.7-1.7c0.5-0.5,1-0.7,1.7-0.7
			c0.6,0,1.2,0.2,1.7,0.7c0.5,0.5,0.7,1,0.7,1.7c0,0.7-0.2,1.2-0.7,1.7C159,126.8,158.5,127,157.8,127z"/>
		<path class="st1" d="M166.9,118.3c0,0.8,0,1.9,0.1,3.4c0,1.5,0.1,2.7,0.1,3.4c0,0.6-0.2,1-0.5,1.4c-0.3,0.4-0.8,0.5-1.4,0.5
			c-0.5,0-1-0.2-1.3-0.5c-0.3-0.4-0.5-0.8-0.5-1.4c0-0.8,0-1.9-0.1-3.4c0-1.5-0.1-2.7-0.1-3.4c0-1.2,0.1-2.7,0.2-4.5
			c0.1-1.8,0.2-3.3,0.2-4.5c0-0.6,0.2-1,0.5-1.4c0.3-0.4,0.8-0.5,1.3-0.5c0.5,0,1,0.2,1.3,0.5c0.3,0.4,0.5,0.8,0.5,1.4
			c0,1.2-0.1,2.7-0.2,4.5C167,115.6,166.9,117.1,166.9,118.3z M166.1,102.8c-0.6,0-1.1-0.2-1.6-0.6c-0.4-0.4-0.7-1-0.7-1.6
			c0-0.6,0.2-1.1,0.7-1.6c0.4-0.4,1-0.6,1.6-0.6c0.6,0,1.1,0.2,1.6,0.6c0.4,0.4,0.7,1,0.7,1.6c0,0.6-0.2,1.1-0.7,1.6
			C167.2,102.6,166.7,102.8,166.1,102.8z"/>
		<path class="st1" d="M185.1,111.7c-0.1,1.6-0.7,2.4-1.9,2.4c-1.1,0-1.6-0.6-1.6-1.9c0-0.2,0-0.7-0.1-1.3l-0.1-1.6
			c-2,0.2-3.6,0.8-4.8,1.7c-1.1,0.8-2.1,2.1-2.8,3.7l0,10.4c0,1.3-0.6,1.9-1.9,1.9c-1.1,0-1.7-0.6-1.7-1.9v-13.4c0-0.4,0-1,0-1.9
			c0-0.8,0-1.5,0-1.9c0-1.3,0.6-1.9,1.7-1.9c1.2,0,1.9,1.1,1.9,3.2c2.4-2.3,5.1-3.5,8.1-3.5c1,0,1.8,0.4,2.3,1.2
			c0.5,0.8,0.8,1.9,0.8,3.5C185.2,111,185.1,111.5,185.1,111.7z"/>
	</g>
	<g>
		<path class="st1" d="M269,112.6c18.3,0,33.2-14.9,33.2-33.2c0-2.2-1.8-4-4-4s-4,1.8-4,4c0,13.8-11.3,25.1-25.1,25.1
			c-13.8,0-25.1-11.3-25.1-25.1c0-2.2-1.8-4-4-4c-2.2,0-4,1.8-4,4C235.8,97.7,250.7,112.6,269,112.6z"/>
		<path class="st0" d="M323.9,27.1c0.1-0.4,0.2-0.9,0.2-1.3c0-1.6-1-3-2.5-3.6l-51-21.9c-1-0.4-2.2-0.4-3.2,0l-51,21.9
			c-1.4,0.6-2.4,2-2.5,3.6c0,1.6,0.8,3,2.2,3.7l12.3,6.2v18.2c0,0.1,0,0.2,0,0.2c-4.6,7.3-7.3,15.9-7.3,25.1c0,10.1,3,19.7,8.8,27.9
			l0.1,0.1c3.8,5.3,3.2,12.4-1.3,16.9l-1.3,1.3c-1.3,1.3-3.3,1.3-4.6,0c-1.3-1.3-1.3-3.3,0-4.6l4.5-4.5c1.6-1.6,1.6-4.1,0-5.7
			c-1.6-1.6-4.1-1.6-5.7,0l-4.5,4.5c-4.4,4.4-4.4,11.6,0,16c2.2,2.2,5.1,3.3,8,3.3c2.9,0,5.8-1.1,8-3.3l1.3-1.3
			c7.3-7.3,8.2-18.8,2.1-27.3l-0.1-0.1c-4.8-6.8-7.4-14.8-7.3-23.1c0.1-21.6,17.7-39.4,39.3-39.6c0.1,0,0.2,0,0.3,0
			c10.6,0,20.6,4.1,28.1,11.6c7.6,7.6,11.7,17.7,11.6,28.4c-0.2,21.6-17.9,39.3-39.6,39.3c-6.6,0-13.1-1.6-18.8-4.7
			c-2-1.1-4.4-0.3-5.5,1.7c-1.1,2-0.3,4.4,1.7,5.5c6.9,3.7,14.7,5.6,22.5,5.6c0.1,0,0.1,0,0.2,0c26-0.1,47.4-21.3,47.6-47.4
			c0.1-9.3-2.5-18.2-7.3-25.8c0,0,0-0.1,0-0.1V35.7l6.5-3.2v10.1c-2,0.2-3.6,1.9-3.6,4s1.6,3.8,3.6,4v3.3c0,2.2,1.8,4,4,4
			c2.2,0,4-1.8,4-4V28.3C324.1,27.9,324,27.5,323.9,27.1z M303.7,29.6c-1.4,0.7-2.2,2.1-2.2,3.6v11c-9-8.3-20.6-12.8-32.8-12.7
			c-12.3,0.1-23.5,4.9-32,12.8v-8.5c9.4-7,20.6-10.7,32.4-10.7c2.2,0,4-1.8,4-4s-1.8-4-4-4c-13,0-25.8,4.1-36.4,11.7l-5-2.5L269,8.5
			l41.4,17.7L303.7,29.6z"/>
	</g>
</g>
</svg>
