<?xml version="1.0" encoding="utf-8"?>
<!-- Generator: Adobe Illustrator 25.4.1, SVG Export Plug-In . SVG Version: 6.00 Build 0)  -->
<svg version="1.1" id="Layer_1" xmlns="http://www.w3.org/2000/svg" xmlns:xlink="http://www.w3.org/1999/xlink" x="0px" y="0px"
	 viewBox="0 0 136 50.3" style="enable-background:new 0 0 136 50.3;" xml:space="preserve">
<style type="text/css">
	.st0{fill:#229580;}
	.st1{fill:#F6BE67;}
</style>
<g>
	<g>
		<path class="st0" d="M33.4,36.3c2.3-2.8,1.3-7.9,1.2-8.5c-0.2-0.9-1.1-1.5-2-1.3c-0.9,0.2-1.5,1.1-1.3,2c0.3,1.3,0.5,4.4-0.5,5.7
			c-0.2,0.2-0.5,0.5-1.3,0.5c-0.2,0-0.4-0.1-0.6-0.2c-0.3-0.3-1.3-1.8-1.2-7c0-0.9-0.7-1.7-1.6-1.7c-0.3,0-0.7,0.1-1,0.3l0,0l0,0
			c0,0-1.9,1.1-5.2,1.2c-0.5,0-1,0.3-1.3,0.7s-0.4,1-0.2,1.5c0,0.1,1.8,5.1-0.4,8.4c-1.4,2.1-4.1,3.2-8,3.3
			c-2.8,0.1-4.8-0.9-5.9-2.9c-1.4-2.6-0.9-6.3,1.2-9.1c1.3-1.8,4.5-4.7,10.4-3.5c0.9,0.2,1.8-0.4,2-1.3c0.2-0.9-0.4-1.8-1.3-2
			c-5.6-1.1-10.6,0.7-13.7,4.8c-2.9,3.9-3.5,8.9-1.5,12.7c1.6,3,4.6,4.7,8.4,4.7c0.2,0,0.4,0,0.6,0c5.1-0.2,8.7-1.8,10.7-4.8
			c2.1-3.2,1.8-7,1.3-9.4c0.9-0.1,1.6-0.3,2.3-0.5c0.1,3.3,0.8,5.6,2.1,6.9c0.8,0.8,1.8,1.3,3,1.3C31.1,38.1,32.5,37.4,33.4,36.3z"
			/>
		<path class="st0" d="M25.4,41.7c-0.6,0-1.1,0.2-1.5,0.6c-0.4-0.4-0.9-0.6-1.5-0.6c-1.2,0-2.1,0.9-2.1,2.1s0.9,2.1,2.1,2.1
			c0.6,0,1.1-0.2,1.5-0.6c0.4,0.4,0.9,0.6,1.5,0.6c1.2,0,2.1-0.9,2.1-2.1S26.6,41.7,25.4,41.7z"/>
		<path class="st0" d="M54.2,26.8c0.6,0,1.1-0.2,1.5-0.6c0.4,0.4,0.9,0.6,1.5,0.6c1.2,0,2.1-0.9,2.1-2.1s-0.9-2.1-2.1-2.1
			c-0.6,0-1.1,0.2-1.5,0.6c-0.4-0.4-0.9-0.6-1.5-0.6c-1.2,0-2.1,0.9-2.1,2.1S53,26.8,54.2,26.8z"/>
		<circle class="st0" cx="31.7" cy="43.8" r="2.1"/>
		<circle class="st0" cx="11.3" cy="33.7" r="2.1"/>
		<path class="st0" d="M80.9,26.9c-0.7-0.6-1.8-0.6-2.4,0.1c-2.9,3.3-11.8,11.6-17.5,10.3c-2.2-0.5-3.9-2.5-5-5.9l-0.3-1
			c-0.2-0.9-1.1-1.4-2-1.2c-0.9,0.2-1.4,1.1-1.2,2c0.3,1.3,0.5,4.4-0.5,5.7c-0.2,0.2-0.5,0.5-1.3,0.5c-0.2,0-0.4-0.1-0.6-0.3
			c-1.6-2-1.2-9.5-0.3-14.2c0.2-0.9-0.4-1.8-1.3-1.9c-0.9-0.2-1.8,0.4-1.9,1.3c0,0.1-0.6,3.2-0.8,6.7c-0.3,5.1,0.3,8.4,1.8,10.2
			c0.8,1,1.9,1.5,3.2,1.5c1.6,0,3-0.6,3.9-1.8c0.4-0.4,0.6-0.9,0.8-1.5c1.3,1.6,2.9,2.6,4.9,3c0.6,0.1,1.2,0.2,1.9,0.2
			c3.4,0,7.5-1.8,12-5.3c3.9-3,6.7-6.1,6.8-6.3C81.7,28.6,81.6,27.5,80.9,26.9z"/>
		<path class="st0" d="M86.2,22.4c-0.2-0.9-1.1-1.5-2-1.3c-0.9,0.2-1.5,1.1-1.3,2c0,0.1,1.4,7.1-1.6,15.6c-0.3,0.9,0.2,1.8,1,2.1
			c0.2,0.1,0.4,0.1,0.6,0.1c0.7,0,1.3-0.4,1.6-1.1C87.8,30.3,86.2,22.7,86.2,22.4z"/>
		<path class="st0" d="M40.2,29.6c-0.8-0.5-1.8-0.3-2.3,0.4c-0.5,0.8-0.3,1.8,0.4,2.3c1.2,0.9,2.5,2.3,2.3,3
			c-0.1,0.5-1.4,1.5-5.4,2.2c-0.9,0.1-1.5,1-1.4,1.9c0.1,0.8,0.8,1.4,1.7,1.4c0.1,0,0.2,0,0.3,0c4.9-0.8,7.6-2.3,8.2-4.7
			C44.6,32.8,40.7,29.9,40.2,29.6z"/>
	</g>
	<g>
		<path class="st1" d="M115.4,42.1c6.8,0,12.4-5.6,12.4-12.4c0-0.8-0.7-1.5-1.5-1.5s-1.5,0.7-1.5,1.5c0,5.2-4.2,9.4-9.4,9.4
			s-9.4-4.2-9.4-9.4c0-0.8-0.7-1.5-1.5-1.5s-1.5,0.7-1.5,1.5C102.9,36.5,108.5,42.1,115.4,42.1z"/>
		<path class="st0" d="M135.9,10.1c0-0.2,0.1-0.3,0.1-0.5c0-0.6-0.4-1.1-0.9-1.3L116,0.1c-0.4-0.2-0.8-0.2-1.2,0L95.7,8.3
			c-0.5,0.2-0.9,0.8-0.9,1.3c0,0.6,0.3,1.1,0.8,1.4l4.6,2.3v6.8c0,0,0,0.1,0,0.1c-1.7,2.7-2.7,6-2.7,9.4c0,3.8,1.1,7.4,3.3,10.4l0,0
			c1.4,2,1.2,4.6-0.5,6.3l-0.5,0.5c-0.5,0.5-1.2,0.5-1.7,0c-0.5-0.5-0.5-1.2,0-1.7l1.7-1.7c0.6-0.6,0.6-1.5,0-2.1
			c-0.6-0.6-1.6-0.6-2.1,0L96,43c-1.7,1.7-1.7,4.3,0,6c0.8,0.8,1.9,1.2,3,1.2c1.1,0,2.2-0.4,3-1.2l0.5-0.5c2.7-2.7,3.1-7,0.8-10.2
			l0,0c-1.8-2.5-2.8-5.5-2.7-8.6c0-8.1,6.6-14.7,14.7-14.8c0,0,0.1,0,0.1,0c4,0,7.7,1.5,10.5,4.3c2.8,2.8,4.4,6.6,4.3,10.6
			c-0.1,8.1-6.7,14.7-14.8,14.7c-2.5,0-4.9-0.6-7-1.7c-0.7-0.4-1.7-0.1-2,0.6c-0.4,0.7-0.1,1.7,0.6,2c2.6,1.4,5.5,2.1,8.4,2.1
			c0,0,0,0,0.1,0c9.7,0,17.7-8,17.8-17.7c0-3.5-0.9-6.8-2.7-9.7c0,0,0,0,0,0v-6.8l2.4-1.2v3.8c-0.8,0.1-1.4,0.7-1.4,1.5
			s0.6,1.4,1.4,1.5v1.2c0,0.8,0.7,1.5,1.5,1.5c0.8,0,1.5-0.7,1.5-1.5v-9.5C136,10.4,135.9,10.3,135.9,10.1z M128.3,11.1
			c-0.5,0.3-0.8,0.8-0.8,1.4v4.1c-3.4-3.1-7.7-4.8-12.3-4.7c-4.6,0-8.8,1.8-12,4.8v-3.2c3.5-2.6,7.7-4,12.1-4c0.8,0,1.5-0.7,1.5-1.5
			s-0.7-1.5-1.5-1.5c-4.9,0-9.7,1.5-13.6,4.4l-1.9-0.9l15.5-6.6l15.5,6.6L128.3,11.1z"/>
	</g>
</g>
</svg>
