<svg xmlns="http://www.w3.org/2000/svg" width="32.58" height="31.281" viewBox="0 0 32.58 31.281">
  <path id="star_6_" data-name="star (6)" d="M30.849,14.738a2.262,2.262,0,0,0-1.254-3.857L21.96,9.771a1,1,0,0,1-.751-.546L17.795,2.307a2.262,2.262,0,0,0-4.056,0L10.325,9.226a1,1,0,0,1-.752.546L1.938,10.882A2.262,2.262,0,0,0,.684,14.739l5.524,5.385a1,1,0,0,1,.288.884l-1.3,7.6a2.214,2.214,0,0,0,.493,1.834A2.285,2.285,0,0,0,8.474,31L15.3,27.4a1.022,1.022,0,0,1,.929,0L23.06,31a2.238,2.238,0,0,0,1.052.263,2.268,2.268,0,0,0,1.735-.813,2.213,2.213,0,0,0,.493-1.834l-1.3-7.6a1,1,0,0,1,.288-.884Z" transform="translate(0.524 -0.547)" fill="none" stroke="#f6be67" stroke-width="1"/>
</svg>
