<svg xmlns="http://www.w3.org/2000/svg" width="38" height="23.098" viewBox="0 0 38 23.098">
  <g id="Switch" transform="translate(38 23.098) rotate(180)">
    <g id="Track" transform="translate(0 0)" fill="#229581" stroke-linecap="round" stroke-linejoin="round" stroke-miterlimit="10">
      <path d="M 15.72695064544678 22.59815406799316 L 15.39500999450684 22.59807395935059 C 14.17214012145996 22.59796333312988 13.01708984375 22.59786415100098 11.84370994567871 22.53042411804199 C 10.52857971191406 22.45468330383301 9.460619926452637 22.29196357727051 8.482819557189941 22.01834297180176 C 6.160280227661133 21.36915397644043 4.168859958648682 20.02479362487793 2.723720073699951 18.13056373596191 C 1.289729952812195 16.25115394592285 0.5 13.91383361816406 0.5 11.54913330078125 C 0.5 9.184432983398438 1.289729952812195 6.847113132476807 2.723710060119629 4.967723369598389 C 4.168200016021729 3.073643207550049 6.159599781036377 1.729303359985352 8.482680320739746 1.079963326454163 C 9.464329719543457 0.8052632808685303 10.53219032287598 0.6425433158874512 11.84346008300781 0.5678532719612122 C 12.93383979797363 0.505193293094635 14.03756046295166 0.5000032782554626 15.16660976409912 0.5000032782554626 L 15.43457984924316 0.5000532865524292 L 15.70293998718262 0.500113308429718 L 22.27247047424316 0.500113308429718 L 22.54604911804199 0.5000532865524292 L 22.81789970397949 0.5000032782554626 C 23.99894905090332 0.5000032782554626 25.06534004211426 0.5051032900810242 26.15628051757812 0.5678433179855347 C 27.46822929382324 0.6425232887268066 28.53632926940918 0.8052433133125305 29.51792907714844 1.079923272132874 C 31.84114074707031 1.729303359985352 33.83253860473633 3.073633193969727 35.27698135375977 4.967633247375488 C 36.71054077148438 6.84648323059082 37.5 9.183553695678711 37.5 11.54839324951172 C 37.5 13.91419315338135 36.71054077148438 16.25178337097168 35.27703857421875 18.13054275512695 C 33.83187103271484 20.02479362487793 31.8404598236084 21.36915397644043 29.51807022094727 22.01830291748047 C 28.54002952575684 22.29199409484863 27.47183990478516 22.45471382141113 26.15625 22.53043365478516 C 25.07801055908203 22.59243392944336 23.99624061584473 22.59757423400879 22.89056015014648 22.59757423400879 L 22.59435081481934 22.59749412536621 L 22.29780006408691 22.59741401672363 C 22.28889083862305 22.59741401672363 15.77150344848633 22.59814834594727 15.72695064544678 22.59815406799316 Z" stroke="none"/>
      <path d="M 15.16661071777344 1.000003814697266 C 14.04512023925781 1.000003814697266 12.94927024841309 1.005132675170898 11.87188911437988 1.067043304443359 C 10.59754943847656 1.139633178710938 9.563470840454102 1.296733856201172 8.617279052734375 1.561502456665039 C 6.399770736694336 2.181343078613281 4.499298095703125 3.46400260925293 3.121200561523438 5.271013259887695 C 1.753318786621094 7.063783645629883 1 9.293393135070801 1 11.54913330078125 C 1 13.8048734664917 1.753318786621094 16.03448295593262 3.121231079101562 17.82728385925293 C 4.499919891357422 19.6343936920166 6.400419235229492 20.9171028137207 8.617570877075195 21.53684234619141 C 9.559860229492188 21.80053329467773 10.59413909912109 21.95763397216797 11.87240028381348 22.03125381469727 C 13.03121948242188 22.09785270690918 14.17905044555664 22.09795379638672 15.39429092407227 22.09807395935059 L 15.72666931152344 22.09815406799316 C 15.72666931152344 22.09815406799316 22.28886032104492 22.09740257263184 22.29780006408691 22.09740257263184 L 22.89130973815918 22.09756278991699 C 23.98910903930664 22.09756278991699 25.06269073486328 22.09249305725098 26.12751960754395 22.03125381469727 C 27.40629005432129 21.9576530456543 28.44079971313477 21.80055236816406 29.38346862792969 21.53676414489746 C 31.60031890869141 20.9171142578125 33.50082015991211 19.6343936920166 34.87953948974609 17.8272533416748 C 36.24694061279297 16.03510284423828 37 13.80523300170898 37 11.54839324951172 C 37 9.292512893676758 36.24694061279297 7.063163757324219 34.87939834594727 5.270833969116211 C 33.50144195556641 3.46400260925293 31.6009693145752 2.181343078613281 29.3831901550293 1.561422348022461 C 28.43719863891602 1.296703338623047 27.40288925170898 1.139614105224609 26.12757110595703 1.067012786865234 C 25.04999923706055 1.005043029785156 23.99114990234375 1.000003814697266 22.81789970397949 1.000003814697266 L 15.70293998718262 1.000112533569336 L 15.16661071777344 1.000003814697266 M 15.1666088104248 0 C 15.34539413452148 0 15.52410507202148 0.0001125335693359375 15.70293998718262 0.0001125335693359375 C 15.71187973022461 0.0001125335693359375 22.27247047424316 0.0001125335693359375 22.27247047424316 0.0001125335693359375 C 23.59427261352539 0.0001220703125 24.88925933837891 -0.005846023559570312 26.18498039245605 0.06866264343261719 C 27.36297988891602 0.1357231140136719 28.51042938232422 0.2787837982177734 29.65266990661621 0.5984230041503906 C 32.05709838867188 1.270503997802734 34.15678024291992 2.674272537231445 35.6745491027832 4.664422988891602 C 37.18336868286133 6.641912460327148 38 9.062743186950684 38 11.54839324951172 C 38 14.03701305389404 37.18336868286133 16.45635223388672 35.6745491027832 18.4338436126709 C 34.15678024291992 20.42325401306152 32.05709838867188 21.82776260375977 29.65266990661621 22.49984359741211 C 28.51042938232422 22.81948280334473 27.36297988891602 22.9618034362793 26.18498039245605 23.02960395812988 C 24.88925933837891 23.10411262512207 23.59426689147949 23.09740257263184 22.29780006408691 23.09740257263184 C 22.28886032104492 23.09740257263184 15.72677993774414 23.09815406799316 15.72677993774414 23.09815406799316 C 14.40646934509277 23.09740257263184 13.11149024963379 23.10411262512207 11.81501960754395 23.02960395812988 C 10.63776016235352 22.9618034362793 9.490310668945312 22.81948280334473 8.348079681396484 22.49984359741211 C 5.943649291992188 21.82776260375977 3.843959808349609 20.42325401306152 2.326190948486328 18.4338436126709 C 0.8173713684082031 16.45635223388672 0 14.03701305389404 0 11.54913330078125 C 0 9.062743186950684 0.8173713684082031 6.641912460327148 2.326190948486328 4.664422988891602 C 3.843959808349609 2.674272537231445 5.943649291992188 1.270503997802734 8.348079681396484 0.5984230041503906 C 9.490310668945312 0.2787837982177734 10.63776016235352 0.1357231140136719 11.81501960754395 0.06866264343261719 C 12.93265533447266 0.004430770874023438 14.04927825927734 0 15.1666088104248 0 Z" stroke="none" fill="#229581"/>
    </g>
    <g id="Knob" transform="translate(1 1)" fill="#fff" stroke="#229581" stroke-miterlimit="10" stroke-width="1">
      <circle cx="10.5" cy="10.5" r="10.5" stroke="none"/>
      <circle cx="10.5" cy="10.5" r="11" fill="none"/>
    </g>
  </g>
</svg>
