<svg xmlns="http://www.w3.org/2000/svg" width="310.508" height="448.199" viewBox="0 0 310.508 448.199">
  <g id="phone" transform="translate(9382.306 5552.126) rotate(9)">
    <circle id="Ellipse_603" data-name="Ellipse 603" cx="47.966" cy="47.966" r="47.966" transform="matrix(0.848, 0.53, -0.53, 0.848, -10040.855, -3927.882)" fill="#d19c49"/>
    <path id="Path_16620" data-name="Path 16620" d="M59.723,0A59.723,59.723,0,1,1,0,59.723,59.723,59.723,0,0,1,59.723,0Zm0,.682a59.042,59.042,0,1,0,59.042,59.042A59.042,59.042,0,0,0,59.723.682Z" transform="matrix(0.848, 0.53, -0.53, 0.848, -10040.818, -3920.221)" fill="#229581"/>
    <g id="Online-Classroom" transform="translate(-10036.639 -4031.687)">
      <g id="Shape" transform="translate(0 0)">
        <path id="Path_16003" data-name="Path 16003" d="M190.672,4.32l1.475.692a18.573,18.573,0,0,1,10.687,16.816V397.647a22.371,22.371,0,0,1-22.37,22.371H157.72L153.527,0h17.759A45.655,45.655,0,0,1,190.672,4.32Z" transform="translate(10.371)" fill="#719cfe" fill-rule="evenodd"/>
        <path id="Path_16004" data-name="Path 16004" d="M176,44.761V416.192h.457V44.761Z" transform="translate(26.488 -24.326)" fill="#bea8ff"/>
        <path id="Path_16005" data-name="Path 16005" d="M364.961,0q-.793,0-1.585.042L226.254,7.235c-14.445.758-25.727,11.548-25.727,24.6V395.372c0,13.612,12.228,24.646,27.312,24.646H364.961c15.085,0,27.313-11.034,27.313-24.646V24.646C392.274,11.034,380.046,0,364.961,0Z" transform="translate(-200.527)" fill="#4c669e" fill-rule="evenodd"/>
        <path id="Path_16006" data-name="Path 16006" d="M378.159,21.932c-.209,0-.418,0-.627.011l-.313.014-18.877.988a4.387,4.387,0,0,0-4.155,4.256v.125a9.131,9.131,0,0,1-8.562,9.113l-.158.008-83.091,3.743q-.2.009-.41.009a9.131,9.131,0,0,1-9.13-8.974v-.157a2.467,2.467,0,0,0-2.468-2.467q-.064,0-.129,0l-10.448.547-.257.015c-8.36.556-14.873,6.771-15,14.318l0,.229V407.274l0,.241c.142,7.866,7.2,14.218,15.934,14.346H378.427c8.735-.13,15.791-6.483,15.931-14.349l0-.239V36.519l0-.241C394.214,28.333,387.017,21.932,378.159,21.932Z" transform="translate(-213.57 -11.919)" fill="#fffcf8" fill-rule="evenodd"/>
        <path id="Path_16010" data-name="Path 16010" d="M175.881,99.932A3.881,3.881,0,0,0,172,103.812V150.38a3.881,3.881,0,1,0,7.761,0V103.812A3.881,3.881,0,0,0,175.881,99.932Z" transform="translate(25.01 -54.309)" fill="#584591"/>
        <path id="Path_16011" data-name="Path 16011" d="M175.881,254.932A3.881,3.881,0,0,0,172,258.813V305.38a3.881,3.881,0,1,0,7.761,0V258.813A3.881,3.881,0,0,0,175.881,254.932Z" transform="translate(25.01 -138.545)" fill="#584591"/>
        <path id="Path_16012" data-name="Path 16012" d="M171.881,99.932A3.881,3.881,0,0,0,168,103.812V150.38a3.881,3.881,0,1,0,7.761,0V103.812A3.881,3.881,0,0,0,171.881,99.932Z" transform="translate(30.836 -54.309)" fill="#fff"/>
        <path id="Path_16013" data-name="Path 16013" d="M171.881,254.932A3.881,3.881,0,0,0,168,258.813V305.38a3.881,3.881,0,1,0,7.761,0V258.813A3.881,3.881,0,0,0,171.881,254.932Z" transform="translate(30.836 -138.545)" fill="#fff"/>
      </g>
    </g>
    <g id="Logo_Header" transform="translate(-9989.444 -3945.011)">
      <g id="Group_5845" data-name="Group 5845" transform="translate(0 115.068)">
        <path id="Path_16575" data-name="Path 16575" d="M37.58,40.569c2.588-3.641,1.463-10.272,1.35-11.052a1.932,1.932,0,0,0-2.251-1.69,2.229,2.229,0,0,0-1.463,2.6c.338,1.69.563,5.721-.563,7.412a1.68,1.68,0,0,1-1.463.65,1.458,1.458,0,0,1-.675-.26c-.338-.39-1.463-2.341-1.35-9.1a2.057,2.057,0,0,0-1.8-2.21,1.965,1.965,0,0,0-1.125.39h0a11.982,11.982,0,0,1-5.851,1.56,1.868,1.868,0,0,0-1.463.91,2.346,2.346,0,0,0-.225,1.95c0,.13,2.025,6.631-.45,10.922-1.575,2.731-4.614,4.161-9,4.291A6.472,6.472,0,0,1,4.61,43.17C3.035,39.789,3.6,34.978,5.96,31.337c1.463-2.341,5.064-6.111,11.7-4.551a1.932,1.932,0,0,0,2.251-1.69,2.229,2.229,0,0,0-1.463-2.6A13.964,13.964,0,0,0,3.035,28.737C-.229,33.808-.9,40.309,1.347,45.25A10.007,10.007,0,0,0,10.8,51.362h.675c5.739-.26,9.79-2.341,12.04-6.241,2.363-4.161,2.025-9.1,1.463-12.223a13.116,13.116,0,0,0,2.588-.65q.169,6.436,2.363,8.972A4.41,4.41,0,0,0,33.3,42.91,5.312,5.312,0,0,0,37.58,40.569Z" transform="translate(-0.028 -20.625)" fill="#229580"/>
        <path id="Path_16576" data-name="Path 16576" d="M26.039,41.7a2.141,2.141,0,0,0-1.688.78,2.141,2.141,0,0,0-1.688-.78A2.506,2.506,0,0,0,20.3,44.431a2.506,2.506,0,0,0,2.363,2.731,2.141,2.141,0,0,0,1.688-.78,2.14,2.14,0,0,0,1.688.78A2.506,2.506,0,0,0,28.4,44.431,2.506,2.506,0,0,0,26.039,41.7Z" transform="translate(2.511 -14.734)" fill="#229580"/>
        <path id="Path_16577" data-name="Path 16577" d="M54.463,28.061a2.141,2.141,0,0,0,1.688-.78,2.141,2.141,0,0,0,1.688.78A2.506,2.506,0,0,0,60.2,25.331,2.506,2.506,0,0,0,57.839,22.6a2.141,2.141,0,0,0-1.688.78,2.14,2.14,0,0,0-1.688-.78A2.506,2.506,0,0,0,52.1,25.331,2.506,2.506,0,0,0,54.463,28.061Z" transform="translate(6.494 -20.469)" fill="#229580"/>
        <ellipse id="Ellipse_597" data-name="Ellipse 597" cx="2.363" cy="2.731" rx="2.363" ry="2.731" transform="translate(33.276 26.966)" fill="#229580"/>
        <ellipse id="Ellipse_598" data-name="Ellipse 598" cx="2.363" cy="2.731" rx="2.363" ry="2.731" transform="translate(10.32 13.833)" fill="#229580"/>
        <path id="Path_16578" data-name="Path 16578" d="M85.306,28.683a1.756,1.756,0,0,0-2.7.13C79.342,33.1,69.327,43.9,62.913,42.206c-2.476-.65-4.388-3.251-5.626-7.672l-.338-1.3a1.841,1.841,0,0,0-2.251-1.56,2.165,2.165,0,0,0-1.35,2.6c.338,1.69.563,5.721-.563,7.412a1.68,1.68,0,0,1-1.463.65.929.929,0,0,1-.675-.39c-1.8-2.6-1.35-12.353-.338-18.464a2.016,2.016,0,0,0-1.463-2.471A1.786,1.786,0,0,0,46.71,22.7c0,.13-.675,4.161-.9,8.712-.338,6.631.338,10.922,2.025,13.263a4.224,4.224,0,0,0,3.6,1.95,5.046,5.046,0,0,0,4.388-2.341,4.956,4.956,0,0,0,.9-1.95,9.114,9.114,0,0,0,5.514,3.9,10.853,10.853,0,0,0,2.138.26c3.826,0,8.439-2.341,13.5-6.891a56.522,56.522,0,0,0,7.652-8.192C86.206,30.894,86.094,29.463,85.306,28.683Z" transform="translate(5.695 -20.961)" fill="#229580"/>
        <path id="Path_16579" data-name="Path 16579" d="M86.825,22.8a1.932,1.932,0,0,0-2.251-1.69,2.229,2.229,0,0,0-1.463,2.6A48.528,48.528,0,0,1,81.311,44a2.281,2.281,0,0,0,1.125,2.731,1.257,1.257,0,0,0,.675.13,1.955,1.955,0,0,0,1.8-1.43A54.107,54.107,0,0,0,86.825,22.8Z" transform="translate(10.14 -20.931)" fill="#229580"/>
        <path id="Path_16580" data-name="Path 16580" d="M41,29.683a1.754,1.754,0,0,0-2.588.52,2.446,2.446,0,0,0,.45,2.991c1.35,1.17,2.813,2.991,2.588,3.9-.113.65-1.575,1.95-6.076,2.861A2.174,2.174,0,0,0,33.8,42.426a1.949,1.949,0,0,0,1.913,1.82h.338c5.514-1.04,8.552-2.991,9.227-6.111C45.954,33.844,41.566,30.073,41,29.683Z" transform="translate(4.2 -18.451)" fill="#229580"/>
      </g>
      <g id="Group_5846" data-name="Group 5846" transform="translate(15.112 0)">
        <path id="Path_16581" data-name="Path 16581" d="M122.883,53.954c10.9,0,19.882-10.376,19.882-22.975a2.43,2.43,0,1,0-4.81,0c0,9.635-6.734,17.416-15.072,17.416s-15.072-7.782-15.072-17.416a2.43,2.43,0,1,0-4.81,0C102.84,43.578,111.82,53.954,122.883,53.954Z" transform="translate(-89.733 24.142)" fill="#f6be67"/>
        <path id="Path_16582" data-name="Path 16582" d="M160.745,18.756c0-.371.16-.556.16-.926a2.652,2.652,0,0,0-1.443-2.409L128.838.228a1.8,1.8,0,0,0-1.924,0L96.288,15.421a2.882,2.882,0,0,0-1.443,2.409,3.07,3.07,0,0,0,1.283,2.594l7.376,4.261V37.469a36.824,36.824,0,0,0-4.329,17.416,35.781,35.781,0,0,0,5.291,19.269h0a10.067,10.067,0,0,1-.8,11.673l-.8.926a1.684,1.684,0,0,1-2.726,0,2.363,2.363,0,0,1,0-3.15l2.726-3.15a2.983,2.983,0,0,0,0-3.891,2.115,2.115,0,0,0-3.367,0l-2.726,3.15a8.579,8.579,0,0,0,0,11.117,6.315,6.315,0,0,0,9.62,0l.8-.926a16.345,16.345,0,0,0,1.283-18.9h0a28.726,28.726,0,0,1-4.329-15.934c0-15.008,10.583-27.236,23.57-27.422h.16a22,22,0,0,1,16.836,7.967,29.136,29.136,0,0,1,6.895,19.64c-.16,15.008-10.743,27.236-23.73,27.236a21.612,21.612,0,0,1-11.224-3.15,2.2,2.2,0,0,0-3.207,1.112,2.93,2.93,0,0,0,.962,3.706,25.44,25.44,0,0,0,13.469,3.891h.16c15.553,0,28.38-14.823,28.541-32.795a37.717,37.717,0,0,0-4.329-17.972h0v-12.6l3.848-2.223V29.5a2.843,2.843,0,0,0,0,5.558v2.223a2.43,2.43,0,1,0,4.81,0v-17.6C160.906,19.312,160.745,19.127,160.745,18.756ZM148.56,20.609a3.07,3.07,0,0,0-1.283,2.594v7.6c-5.452-5.744-12.346-8.893-19.722-8.708-7.376,0-14.11,3.335-19.241,8.893V25.056a29.6,29.6,0,0,1,19.4-7.411,2.679,2.679,0,0,0,2.405-2.779,2.679,2.679,0,0,0-2.405-2.779,33.337,33.337,0,0,0-21.806,8.152l-3.046-1.668L127.715,6.342l24.853,12.229Z" transform="translate(-94.725 0.05)" fill="#229580"/>
      </g>
    </g>
    <g id="Group_5864" data-name="Group 5864" transform="translate(-9994.404 -3744.899)">
      <path id="Path_16606" data-name="Path 16606" d="M890.648,321.638a1.511,1.511,0,0,1,2.1-.809,1.806,1.806,0,0,1,.772,2.218l-.036.089L879.564,355a1.525,1.525,0,0,1-1.871.907l-.082-.03-40.23-16.049-27.845,24.121a1.473,1.473,0,0,1-2.151-.213l-.057-.075a1.854,1.854,0,0,1,.194-2.366l.068-.063,28.532-24.716a1.462,1.462,0,0,1,1.412-.3l.1.035,39.714,15.844Z" transform="translate(-800.928 -310.204)" fill="#b9cdff"/>
      <path id="Path_16607" data-name="Path 16607" d="M962.454,385.573a1.47,1.47,0,0,1,2.156.085l.063.075,19.682,24.677a1.851,1.851,0,0,1-.144,2.44,1.471,1.471,0,0,1-2.156-.085l-.063-.074-19.682-24.677A1.852,1.852,0,0,1,962.454,385.573Z" transform="translate(-886.271 -342.826)" fill="#b9cdff"/>
      <ellipse id="Ellipse_600" data-name="Ellipse 600" cx="9.207" cy="10.13" rx="9.207" ry="10.13" transform="translate(27.847 18.776)" fill="#719cfd"/>
      <path id="Path_16608" data-name="Path 16608" d="M856.389,349.973c0,6.14,4.525,11.118,10.106,11.118a9.453,9.453,0,0,0,5.893-2.086,9.021,9.021,0,0,1-7.69,4.556c-5.085,0-9.207-4.535-9.207-10.13a10.933,10.933,0,0,1,.94-4.463Q856.389,349.465,856.389,349.973Z" transform="translate(-827.643 -324.526)" fill="#547ace" fill-rule="evenodd"/>
      <path id="Path_16609" data-name="Path 16609" d="M876.521,347.768c2.256,1.432,4.637,1.54,5.32.241s-.594-3.515-2.849-4.948-4.637-1.541-5.319-.241S874.266,346.335,876.521,347.768Z" transform="translate(-837.557 -320.957)" fill="#b9cdff" fill-rule="evenodd"/>
      <ellipse id="Ellipse_601" data-name="Ellipse 601" cx="9.207" cy="10.13" rx="9.207" ry="10.13" transform="translate(81.744)" fill="#f6be67"/>
      <path id="Path_16610" data-name="Path 16610" d="M976.389,311.973c0,6.14,4.524,11.118,10.106,11.118a9.445,9.445,0,0,0,5.892-2.086,9.012,9.012,0,0,1-7.689,4.556c-5.085,0-9.207-4.535-9.207-10.13a10.931,10.931,0,0,1,.94-4.463Q976.389,311.465,976.389,311.973Z" transform="translate(-893.746 -305.303)" fill="#d19c49" fill-rule="evenodd"/>
      <path id="Path_16611" data-name="Path 16611" d="M996.521,309.768c2.255,1.432,4.64,1.54,5.318.241s-.593-3.515-2.848-4.948-4.636-1.541-5.319-.241S994.266,308.335,996.521,309.768Z" transform="translate(-903.662 -301.733)" fill="#f9d8a4" fill-rule="evenodd"/>
      <ellipse id="Ellipse_602" data-name="Ellipse 602" cx="9.207" cy="10.13" rx="9.207" ry="10.13" transform="translate(89.829 59.789)" fill="#3cb49f"/>
      <path id="Path_16612" data-name="Path 16612" d="M994.389,432.973c0,6.14,4.523,11.118,10.105,11.118a9.444,9.444,0,0,0,5.893-2.086,9.012,9.012,0,0,1-7.689,4.556c-5.084,0-9.207-4.535-9.207-10.13a10.932,10.932,0,0,1,.94-4.463Q994.39,432.465,994.389,432.973Z" transform="translate(-903.664 -366.514)" fill="#229581" fill-rule="evenodd"/>
      <path id="Path_16613" data-name="Path 16613" d="M1014.522,430.768c2.255,1.432,4.64,1.54,5.318.241s-.593-3.515-2.848-4.948-4.635-1.541-5.318-.241S1012.267,429.335,1014.522,430.768Z" transform="translate(-913.578 -362.944)" fill="#50c4b0" fill-rule="evenodd"/>
      <path id="Path_16614" data-name="Path 16614" d="M809.209,395.793a10.86,10.86,0,0,0,0-14.325,8.627,8.627,0,0,0-13.021,0,10.86,10.86,0,0,0,0,14.325A8.626,8.626,0,0,0,809.209,395.793Z" transform="translate(-793.491 -339.465)" fill="#f6be67" fill-rule="evenodd"/>
      <path id="Path_16615" data-name="Path 16615" d="M795.2,400.929a9.469,9.469,0,0,0,14.292,0,11.489,11.489,0,0,0,2.827-6.059,10.8,10.8,0,0,1-2.509,9.2,8.627,8.627,0,0,1-13.021,0,10.285,10.285,0,0,1-2.2-3.886Q794.878,400.57,795.2,400.929Z" transform="translate(-794.094 -347.746)" fill="#d19c49" fill-rule="evenodd"/>
      <path id="Path_16616" data-name="Path 16616" d="M807.574,387.293c2.516-.742,4.269-2.518,3.915-3.968s-2.679-2.023-5.194-1.282-4.269,2.519-3.916,3.968S805.058,388.035,807.574,387.293Z" transform="translate(-798.362 -341.093)" fill="#f9d8a4" fill-rule="evenodd"/>
      <path id="Path_16617" data-name="Path 16617" d="M960.209,383.793a10.86,10.86,0,0,0,0-14.325,8.626,8.626,0,0,0-13.021,0,10.86,10.86,0,0,0,0,14.325A8.626,8.626,0,0,0,960.209,383.793Z" transform="translate(-876.669 -333.395)" fill="#e9525b" fill-rule="evenodd"/>
      <path id="Path_16618" data-name="Path 16618" d="M946.2,388.929a9.469,9.469,0,0,0,14.292,0,11.489,11.489,0,0,0,2.827-6.059,10.8,10.8,0,0,1-2.509,9.2,8.627,8.627,0,0,1-13.021,0,10.287,10.287,0,0,1-2.2-3.886Q945.878,388.57,946.2,388.929Z" transform="translate(-877.274 -341.676)" fill="#cb3e47" fill-rule="evenodd"/>
      <path id="Path_16619" data-name="Path 16619" d="M958.574,375.293c2.516-.742,4.269-2.518,3.916-3.968s-2.679-2.023-5.194-1.282-4.269,2.519-3.916,3.968S956.058,376.035,958.574,375.293Z" transform="translate(-881.541 -335.023)" fill="#e98086" fill-rule="evenodd"/>
    </g>
  </g>
</svg>
