<svg xmlns="http://www.w3.org/2000/svg" xmlns:xlink="http://www.w3.org/1999/xlink" width="1602.662" height="597.894" viewBox="0 0 1602.662 597.894">
  <defs>
    <linearGradient id="linear-gradient" x1="0.5" x2="0.5" y2="1" gradientUnits="objectBoundingBox">
      <stop offset="0" stop-color="#f6be67" stop-opacity="0.169"/>
      <stop offset="1" stop-color="#f6be67" stop-opacity="0"/>
    </linearGradient>
  </defs>
  <g id="Back_Up_2" transform="translate(2.662 -1424.697)">
    <path id="Back_Up" d="M-18001-742.327c886.85-253.477,1602.662,0,1602.662,0v410.392H-18001Z" transform="translate(17998.338 2354.526)" fill="url(#linear-gradient)"/>
    <g id="Illustration_Home_2_1" transform="translate(905.125 -173.356)">
      <g id="Group_4687" data-name="Group 4687" transform="translate(431.342 1598.053)">
        <path id="Path_16403" data-name="Path 16403" d="M282.45,299.661l-30.622,25.193q-20.549-8.21-43.332-44.042t-22.33-46.367l22.33-21.421Z" transform="translate(-182.025 -142.867)" fill="#585f74" fill-rule="evenodd"/>
        <path id="Path_16404" data-name="Path 16404" d="M197.4,214.844,186.157,225.63l2.441,25.276,66.614,63.771,16.768-13.795-70.849-83Z" transform="translate(-171.555 -144.088)" fill="#4f576c" fill-rule="evenodd"/>
        <path id="Path_16395" data-name="Path 16395" d="M165.556,203.506,34.4,102.1a6.585,6.585,0,0,1-2.388-3.725L9.7,2.018A1.647,1.647,0,0,1,12.35.374l117.817,96.8a6.586,6.586,0,0,1,2.028,2.893l35.921,101.587a1.647,1.647,0,0,1-2.56,1.852Z" transform="translate(-9.657 0)" fill="#697084" fill-rule="evenodd"/>
        <path id="Path_16405" data-name="Path 16405" d="M238.509,289.337c-1.733,1-4.981-1.381-7.254-5.319s-2.712-7.941-.979-8.942,4.98,1.381,7.254,5.319S240.242,288.337,238.509,289.337Z" transform="translate(-153.325 -184.33)" fill="#585f74" fill-rule="evenodd"/>
        <path id="Path_16406" data-name="Path 16406" d="M235.179,285.837c-1.733,1-4.981-1.381-7.254-5.319s-2.712-7.941-.979-8.942,4.98,1.381,7.254,5.319S236.912,284.837,235.179,285.837Z" transform="translate(-148.898 -181.983)" fill="#697084" fill-rule="evenodd"/>
        <path id="Path_16399" data-name="Path 16399" d="M17.292,312.335a1.153,1.153,0,0,0-1.926,1.265l.036.055L84.49,412.572v6.3a1.153,1.153,0,0,0,1.089,1.151l.063,0a1.153,1.153,0,0,0,1.151-1.089l0-.063v-6.666a1.153,1.153,0,0,0-.165-.594l-.043-.066Z" transform="translate(69.934 -209.141)" fill="#585f74"/>
        <path id="Path_16396" data-name="Path 16396" d="M12.712,652.2q4.336,20.766,2.546,25.173c-1.79,4.407-14.181,2.2-12.878-1.884q1.3-4.084,5.382-23.691Z" transform="translate(145.2 -437.138)" fill="#697084" fill-rule="evenodd"/>
        <circle id="Ellipse_570" data-name="Ellipse 570" cx="4.94" cy="4.94" r="4.94" transform="translate(150.337 209.687)" fill="#697084"/>
        <path id="Path_16397" data-name="Path 16397" d="M1.288,660.937a.659.659,0,1,0-1.259.387q4.468,14.53,2.243,24.757a.659.659,0,1,0,1.287.279Q5.857,675.767,1.288,660.937Z" transform="translate(157.406 -442.954)" fill="#585f74"/>
        <path id="Path_16398" data-name="Path 16398" d="M11.477,679.8a.659.659,0,0,0-.713.6l-.056.66q-.964,11.636.242,17.64a.659.659,0,0,0,1.291-.26q-1.2-5.96-.165-17.927A.659.659,0,0,0,11.477,679.8Z" transform="translate(146.094 -455.917)" fill="#585f74"/>
        <path id="Path_16400" data-name="Path 16400" d="M20.144,665.8a.659.659,0,0,0-.634.683l.024.675q.367,11.236-1.226,17.131a.659.659,0,1,0,1.272.343q1.7-6.292,1.247-18.2A.659.659,0,0,0,20.144,665.8Z" transform="translate(134.792 -446.528)" fill="#585f74"/>
        <path id="Path_16401" data-name="Path 16401" d="M28.074,693.815a.658.658,0,0,0-.779.51c-1.354,6.5-1.354,11.448.034,14.873a.659.659,0,0,0,1.221-.495c-1.271-3.135-1.271-7.844.034-14.109A.658.658,0,0,0,28.074,693.815Z" transform="translate(124.478 -465.306)" fill="#585f74"/>
        <path id="Path_16402" data-name="Path 16402" d="M32.447,661.808a.658.658,0,0,0-.743.561l-.222,1.565c-1.4,9.738-2.792,16.131-4.139,19.13a.659.659,0,0,0,1.2.54l.089-.2c1.457-3.388,2.907-10.32,4.375-20.85A.659.659,0,0,0,32.447,661.808Z" transform="translate(119.733 -443.845)" fill="#585f74"/>
      </g>
    </g>
  </g>
</svg>
