<svg xmlns="http://www.w3.org/2000/svg" width="181.797" height="181.797" viewBox="0 0 181.797 181.797">
  <g id="Benefits_1" transform="translate(-1217.107 -999.102)">
    <rect id="Rectangle_4094" data-name="Rectangle 4094" width="128.55" height="128.55" rx="47" transform="translate(1308.006 999.102) rotate(45)" fill="#f9f2f3"/>
    <g id="Chat" transform="translate(1278 1060.073)">
      <path id="Path_16372" data-name="Path 16372" d="M31.722,6.573A25.16,25.16,0,0,0,9.366,43.254a2.286,2.286,0,0,1,.255,1.05v9.52h9.52a2.288,2.288,0,0,1,1.05.255A25.152,25.152,0,1,0,31.722,6.573ZM2,31.722A29.7,29.7,0,1,1,18.6,58.4H7.335A2.286,2.286,0,0,1,5.048,56.11V44.848A29.61,29.61,0,0,1,2,31.722Z" transform="translate(-2.001 -2)" fill="#ae5d67" fill-rule="evenodd"/>
      <path id="Path_16373" data-name="Path 16373" d="M13.994,14.023a3.048,3.048,0,1,1-3.048-3.048A3.048,3.048,0,0,1,13.994,14.023Z" transform="translate(9.63 15.7)" fill="#ae5d67"/>
      <path id="Path_16374" data-name="Path 16374" d="M17.071,14.023a3.048,3.048,0,1,1-3.048-3.048A3.048,3.048,0,0,1,17.071,14.023Z" transform="translate(15.699 15.7)" fill="#ae5d67"/>
      <path id="Path_16375" data-name="Path 16375" d="M20.148,14.023A3.048,3.048,0,1,1,17.1,10.974,3.048,3.048,0,0,1,20.148,14.023Z" transform="translate(21.767 15.7)" fill="#ae5d67"/>
    </g>
  </g>
</svg>
