<svg xmlns="http://www.w3.org/2000/svg" width="434.61" height="298.893" viewBox="0 0 434.61 298.893">
  <g id="Illustration_Home_3" transform="translate(-166.5 -164.5)">
    <g id="Shape" transform="translate(166.5 164.5)">
      <circle id="Ellipse_591" data-name="Ellipse 591" cx="96.607" cy="96.607" r="96.607" transform="translate(218.265)" fill="#207062"/>
      <circle id="Ellipse_592" data-name="Ellipse 592" cx="96.607" cy="96.607" r="96.607" transform="translate(50.447 79.162)" fill="#fef6e7"/>
      <path id="Path_16437" data-name="Path 16437" d="M129.69,50.668A120.287,120.287,0,1,1,9.4,170.955,120.287,120.287,0,0,1,129.69,50.668Zm0,1.373A118.914,118.914,0,1,0,248.6,170.955,118.914,118.914,0,0,0,129.69,52.041Z" transform="translate(181.407 -33.28)" fill="#f0decf"/>
      <path id="Path_16438" data-name="Path 16438" d="M366.4,778.668l26.628,19.238a6.864,6.864,0,0,1-4.02,12.427H6.864a6.863,6.863,0,0,1-4.235-12.264l24.733-19.4Z" transform="translate(38.735 -511.44)" fill="#e9f4f7"/>
      <path id="Path_16439" data-name="Path 16439" d="M14.089,776.616a.686.686,0,0,0-.051,1.371l.051,0,231.65.018a.686.686,0,0,0,.051-1.371l-.051,0Z" transform="translate(183.584 -510.092)" fill="#2e363a"/>
      <path id="Path_16440" data-name="Path 16440" d="M325.2,326.99l-51.081,4.755q-32.892,21.9-37.51,30.261c-4.617,8.359-1.837,48.361,0,66.788l-.282.222q-4.706,3.754-3.588,6.5l.034.081c1.256,2.848-4.181,1.4-5.014,3.069-.824,1.654-1.415,6.744-4.771,6.857l-.114,0q-3.457,0-106.681,16.93v19.189l123.321.228a23.308,23.308,0,0,0,15.464-5.83l.179-.16v5.763H385.187l1.133.356c6.393,1.995,11.028,3.205,12.879,3.205,10.166,0,16.569-14.315,14.16-22.021S387.959,358.2,379.32,352.839q-8.553-5.307-53.215-25.44Z" transform="translate(-19.132 -214.772)" fill="#4757a4" fill-rule="evenodd"/>
      <path id="Path_16441" data-name="Path 16441" d="M264.511,331.624a1.03,1.03,0,0,0,.349,1.414l4.628,2.8,2.543,1.547,3.4,2.082h0l4.3,2.666.074.044a.831.831,0,0,0,.109.052l.133.046.03.008.033.006c.049.007.121.011.273.02l.1-.01a.609.609,0,0,0,.144-.032l.039-.016.336.139.459.2c1.492.661,4.031,1.9,7.809,3.818l2.03,1.037c7.75,3.972,12.042,6.272,16.681,9.03a15.31,15.31,0,0,1,3.957,3.223c4.793,5.706,8.283,13.565,11.474,24.563l.287,1,.275.977.277,1c.44,1.609.9,3.344,1.414,5.373l1.507,5.939.41,1.591c.092.354.18.693.269,1.028l.17.641.184.686.18.661c.119.433.235.85.351,1.255l.861,3.012.712,2.5.654,2.311c5.121,18.152,7.582,28.337,9.5,40.167a152.762,152.762,0,0,1,1.951,35.341,11,11,0,0,0,2.1-.6,154.959,154.959,0,0,0-1.932-34.509l-.09-.561c-2.1-12.939-4.836-23.893-10.92-45.208l-.778-2.719c-.279-.974-.566-2.019-.875-3.182l-.467-1.787-1.713-6.739c-.9-3.513-1.6-6.155-2.356-8.751l-.216-.737c-3.207-10.867-6.75-18.733-11.659-24.576a17.3,17.3,0,0,0-4.482-3.669l-.864-.511-1.136-.662c-3.877-2.243-7.88-4.372-14.215-7.623l-2.607-1.333-1.967-.995-1.424-.712c-2.579-1.281-4.3-2.088-5.3-2.494l-.209-.084-.189-.073-.184-.067a2.052,2.052,0,0,0-.693-.15H280.2l-1.844-1.147-2.97-1.829-4.4-2.687c-1.511-.918-3.19-1.936-5.061-3.067A1.029,1.029,0,0,0,264.511,331.624Zm-4.9,3.992a1.029,1.029,0,0,0,.3,1.425l.628.407,1.365.878,1.672,1.067c7.624,4.85,19.815,12.427,22.886,14.428l.28.183c2.315,1.533,4.38,2.977,6.376,4.465A151.178,151.178,0,0,1,310.663,374.1c2.112,2.139,4.463,7.222,6.859,14.345,1.609,4.782,2.961,9.564,4.336,14.929l.153.6c2.686,10.545,7.3,36.21,8.441,46.575l.252,2.379-3.362-.974L323.3,450.8l-2.04-.579h0l-13.076-3.695-4.753-1.353c-9.032-2.582-14.728-4.288-21.223-6.363l-.894-.287-.731-.24-.535-.18a148.055,148.055,0,0,1-16.763-7.148l-3.18-1.516-1.744-.825-1.26-.591a115.554,115.554,0,0,0-15.844-6.349,1.03,1.03,0,0,0-.606,1.968l.566.176.581.185.583.19a140.231,140.231,0,0,1,16.857,7.112l3.722,1.773a137.221,137.221,0,0,0,17.72,7.4l1.442.462,1.734.549c7.631,2.4,14.805,4.488,28.6,8.381l11.485,3.249,2.648.758,2.51.725,1.272.37a1.024,1.024,0,0,0,.547.008l.427,4.14.39,3.861q.162,1.622.309,3.127l-4.424-1.559-7.378-2.621-2.614-.918-1.624-.562c-1.763-.607-3.3-1.122-4.973-1.668l-1.176-.38-1.022-.323-.888-.275c-1.739-.534-3.635-1.087-6.244-1.829l-5.331-1.508a158.231,158.231,0,0,1-16.172-5.237l-1.193-.475-.882-.355c-7.023-2.839-13.274-5.675-24.847-11.166l-9.362-4.449c-3.722-1.762-6.208-2.919-9.1-4.239a1.029,1.029,0,1,0-.854,1.873l2.811,1.29,2.2,1.02,2.2,1.033c1.2.567,2.528,1.194,4.054,1.919l7.135,3.393c12.672,6.013,19,8.859,26.911,12l.943.37.546.21.725.274c3.8,1.421,7.589,2.6,14.055,4.441l5.822,1.648,2.376.682.861.251c2.042.6,3.64,1.089,5.365,1.649l1.721.564,1.62.541.825.279c2.117.72,4.46,1.541,7.77,2.716l8.039,2.853,1.432.5a1.026,1.026,0,0,0,.862-.086l.287,3.043.183,2c.355,3.958.6,7.039.731,9.308l.046.817.03.607.021.487-.011,0a1.1,1.1,0,0,0-.126.043l-.177.073-.224.211-.082.082a.539.539,0,0,0-.165.3l-.035.182a.465.465,0,0,0-.01.1v.025c0,.039,0,.074,0,.112l.005.059c.007.063.018.147.034.258l.095.587.639.18q1.1.306,2.066.553c.013-.071.023-.146.032-.228l.011-.115.01-.13.009-.147c.039-.79,0-2.1-.108-4.029l-.064-1.036c-.36-5.514-1.244-15.048-2.751-29.339l-.141-1.34c-1.087-10.252-5.788-36.428-8.526-47.175l-.308-1.2c-1.335-5.168-2.658-9.812-4.225-14.473l-.267-.787-.273-.79-.187-.531c-2.244-6.317-4.442-10.824-6.618-13.028l-.641-.648-.644-.646-.647-.645a145.673,145.673,0,0,0-15.848-13.9c-1.9-1.418-3.862-2.794-6.033-4.24l-.437-.29c-3-1.989-20.2-12.652-26.845-16.973A1.029,1.029,0,0,0,259.61,335.616Zm48.976,144.637a1.029,1.029,0,0,0-.9,1.147l.36,2.958h2.075l-.391-3.207A1.03,1.03,0,0,0,308.586,480.253Zm-8.992-3.62-.06,0a1.029,1.029,0,0,0-.944,1.109l.532,6.612h2.066l-.545-6.777A1.03,1.03,0,0,0,299.594,476.633Zm-6.881-.872-.06,0a1.03,1.03,0,0,0-.944,1.109l.6,7.485h2.066l-.616-7.65A1.03,1.03,0,0,0,292.713,475.761Zm-9.816-4.713-.06,0a1.029,1.029,0,0,0-.942,1.11l.972,11.874a1.025,1.025,0,0,0,.08.323h1.892a1.027,1.027,0,0,0,.08-.491l-.972-11.873A1.03,1.03,0,0,0,282.9,471.048Zm-20.866-6.374h-.06a1.03,1.03,0,0,0-.982,1.075l.838,18.607h2.061l-.842-18.7A1.03,1.03,0,0,0,262.031,464.674Zm-31.293-9.714a1.03,1.03,0,0,0-1,1.063l.886,27.4a1.03,1.03,0,0,0,.668.931h.722a1.03,1.03,0,0,0,.668-1l-.886-27.4a1.03,1.03,0,0,0-1-1Zm40.436,12.107a1.03,1.03,0,0,0-.758,1.243l.994,4.062.065.28a12.617,12.617,0,0,1,.251,1.387l.024.225.222,3.482.095,1.409c.092,1.342.2,2.793.306,4.127a1.03,1.03,0,0,0,2.052-.167L274.3,481.5l-.1-1.4c-.218-3.075-.387-5.937-.4-6.065l-.025-.231a15.231,15.231,0,0,0-.32-1.738l-.187-.78-.847-3.454A1.03,1.03,0,0,0,271.175,467.066Zm-31.907-9.054a1.029,1.029,0,0,0-.872,1.166l.412,2.8L240.37,472.3l.026.191h0l.037.324.025.24.032.343c.044.505.079,1.06.114,1.8l.317,7.783a1.03,1.03,0,0,0,2.057-.089l-.289-7.155-.029-.648-.036-.7-.022-.368c-.034-.531-.073-.978-.122-1.43l-.047-.4-.065-.459-.2-1.364c-.413-2.723-1.185-7.715-1.73-11.486A1.029,1.029,0,0,0,239.268,458.013Zm13.173,3.685-.06,0a1.03,1.03,0,0,0-.959,1.1l1.334,19.953a1.03,1.03,0,0,0,2.055-.137l-1.334-19.953A1.03,1.03,0,0,0,252.441,461.7Zm-24.33-15.884a1.029,1.029,0,0,0,.539,1.353l.614.265,2.661,1.164,6.508,2.9c10.048,4.47,15.393,6.593,21.834,8.456l2.737.788c1.155.331,2.37.678,3.689,1.052l10.157,2.878,4.669,1.333c8.747,2.509,14.182,4.153,20.422,6.188l1.305.428,1.32.438a256.733,256.733,0,0,1,26.149,10.2,1.03,1.03,0,1,0,.861-1.871,264.164,264.164,0,0,0-28.338-10.933l-1.879-.612c-6.87-2.221-13.064-4.056-24.263-7.237l-10.549-2.989-3.5-1-1.619-.466h0l-.991-.287-.575-.17c-5.92-1.769-11.165-3.878-20.643-8.094l-6.634-2.958-1.2-.528-.991-.432h0l-.932-.4A1.029,1.029,0,0,0,228.111,445.814Zm-6.583,2.6-.061,0a1.03,1.03,0,0,0-.964,1.091l.527,8.464.062,1.1.041.82.021.48c.015.389.027.754.035,1.127l.011.623L221.236,473l.018,3.278c.009,1.374.019,2.744.03,4.057a1.03,1.03,0,1,0,2.059-.018l-.049-7.462c-.027-5.665-.034-10.619-.037-10.85l-.014-.69-.014-.5-.025-.681c-.017-.409-.038-.847-.066-1.344l-.118-1.986-.463-7.428h0A1.03,1.03,0,0,0,221.527,448.412Zm-60.353,4.639a1.029,1.029,0,0,0,.2,1.442l.45.341.3.23.444.346c4.221,3.307,7.754,6.8,14.02,13.573l3.231,3.5,1.1,1.188c2.814,3.018,4.649,4.894,6.817,6.958a1.03,1.03,0,0,0,1.42-1.491l-.71-.681-.613-.6-.366-.361c-1.872-1.851-3.77-3.851-6.675-6.993l-2.7-2.931c-6.924-7.479-10.568-11.027-15.477-14.726A1.029,1.029,0,0,0,161.174,453.051Zm-9.081,20.967a1.03,1.03,0,0,0,.8,1.215,13.76,13.76,0,0,1,5.576,2.6l.3.215.462.349,1.156.89c.756.585,1.491,1.157,1.664,1.288a1.03,1.03,0,0,0,1.244-1.641l-2.586-2-.607-.462-.217-.161h0a15.974,15.974,0,0,0-6.577-3.094A1.03,1.03,0,0,0,152.093,474.017Zm-5.52-18.673a1.029,1.029,0,0,0,.525,1.358c15.5,6.862,25.172,13.37,33.278,23.475a1.029,1.029,0,0,0,1.606-1.288c-8.346-10.4-18.272-17.086-34.051-24.069A1.029,1.029,0,0,0,146.573,455.344Zm3.921,12.129a1.029,1.029,0,0,0,.683,1.286A50.528,50.528,0,0,1,164,474.952l.665.428.574.375.6.393c.474.315.976.651,1.521,1.02l3.6,2.449a1.03,1.03,0,0,0,1.158-1.7l-3.379-2.3-.69-.466-.926-.619-.742-.49c-.322-.211-.634-.414-.942-.612l-.638-.407a51.944,51.944,0,0,0-13.017-6.226A1.029,1.029,0,0,0,150.493,467.473Zm51.342-20.888a1.03,1.03,0,0,0-1,1.062l.971,30.842a1.03,1.03,0,1,0,2.058-.065l-.971-30.842a1.03,1.03,0,0,0-1-1Zm10.237.619a1.031,1.031,0,0,0-1,1.055l.689,29.239a1.03,1.03,0,1,0,2.059-.048l-.69-29.239A1.031,1.031,0,0,0,212.072,447.2Zm20.742-10.133a1.03,1.03,0,0,0,.6,1.327l1.529.582c9.22,3.528,17.552,7.076,31.916,13.453l8.611,3.829,2.194.972,1.39.613,2,.881c21.357,9.364,34.852,14.519,50.416,18.828a1.03,1.03,0,1,0,.549-1.985c-16.254-4.5-30.261-9.939-53.533-20.223l-12.663-5.625-3.651-1.613-1.959-.861c-10.752-4.717-17.929-7.694-26.075-10.777A1.03,1.03,0,0,0,232.814,437.071Zm-60.546,6.782a1.03,1.03,0,0,0-.614,1.321l1.027,2.879.076.207h0a14.916,14.916,0,0,0,.925,2.043,19.845,19.845,0,0,0,3.4,4.232l.131.13a8.541,8.541,0,0,0,1.864,1.3l.612.347.313.183a4.73,4.73,0,0,1,1.28,1l.117.138.117.143.114.144a18.125,18.125,0,0,1,1.591,2.638l.415.786.236.44.168.308a15.409,15.409,0,0,0,1.252,1.969l.305.4.592.766.458.585c2.109,2.679,3.295,3.936,4.159,4.3l.054.021,1.053,2.15a1.029,1.029,0,1,0,1.846-.912l-1.207-2.458-.078-.152a1.529,1.529,0,0,0-.226-.326,1.061,1.061,0,0,0-.841-.354l-.028,0-.1-.09-.107-.1-.12-.115h0l-.132-.132-.175-.181-.2-.217-.149-.163c-.787-.871-1.866-2.191-3.276-4.027l-.231-.3a16.9,16.9,0,0,1-1.37-2.261l-.564-1.065-.247-.459-.174-.316a13.72,13.72,0,0,0-1.615-2.414l-.07-.082a7.679,7.679,0,0,0-2.337-1.74l-.381-.215-.218-.125-.219-.129a5.343,5.343,0,0,1-1.091-.8l-.045-.045a18,18,0,0,1-3.066-3.789,12.455,12.455,0,0,1-.736-1.608l-.1-.269-1.055-2.957A1.03,1.03,0,0,0,172.268,443.854Zm38.815-102.622-.459.418-.551.514-.436.412h0l-.8.76-.618.579-.268.248c-.734.674-1.266,1.127-1.866,1.587l-.467.353-.385.286-.248.182c-1.244.909-2.531,1.785-4.53,3.1l-3.017,1.971-1.123.741-.665.443a58.249,58.249,0,0,0-7.853,6.005c-4.225,3.9-6.446,10.572-7.3,19.6l-.04.442-.038.438-.036.437c-.3,3.7-.346,7.236-.277,12.663l.044,3.643,0,.763,0,.474c0,.149,0,.293-.007.436l-.085,3.253L180,403.248l-.035,1.5c-.3,12.906-.4,24.263-.3,35.2a3.246,3.246,0,0,0,.847,2.038l.263.339a15.991,15.991,0,0,0,1.483,1.632l.8.791.216.216a9.181,9.181,0,0,1,1.762,2.209l.193.365.1.186.1.2a33.612,33.612,0,0,1,1.684,4.293l.24.7c1.553,4.568,2.716,6.746,5.42,9.1a1.056,1.056,0,0,0,1.094.195,1.045,1.045,0,0,0,.558-.491,1.3,1.3,0,0,0,.085-.183l.032-.092.038-.126.011-.025a1.03,1.03,0,0,0-.393-1.258l-.054-.033a1.026,1.026,0,0,0-.567-.131l-.087.009-.025-.024c-1.836-1.781-2.79-3.633-4.023-7.195l-.55-1.605-.264-.754-.136-.379a24.844,24.844,0,0,0-1.564-3.589l-.075-.14a12.361,12.361,0,0,0-2.56-3.13l-.56-.553-.29-.291c-.387-.394-.65-.681-.9-.984l-.318-.405-.113-.149a1.543,1.543,0,0,1-.388-.759l-.016-1.828-.009-1.246-.009-1.879c-.04-10.258.1-21.027.4-33.2l.109-4.279.006-.651,0-1.06c0-.453-.01-1-.019-1.677l-.027-2.022-.013-1.256-.008-1.292a105.873,105.873,0,0,1,.387-10.678l.021-.224c.807-8.567,2.886-14.812,6.643-18.281l.326-.3.358-.322.234-.207a72.243,72.243,0,0,1,8.473-6.165l3.013-1.968.974-.642.609-.405c1.564-1.046,2.672-1.828,3.882-2.74l.278-.211.28-.218.183-.146.274-.224c.58-.482,1.184-1.029,2.039-1.834l1.542-1.459.317-.3.323-.3.163-.147a1.03,1.03,0,0,0-1.376-1.532Zm50.172,83.545a1.029,1.029,0,0,0,.559,1.344l1.2.5,2.6,1.079,1.643.685c2.17.906,4.267,1.79,6.382,2.686l8.672,3.692a83.752,83.752,0,0,0,9.547,3.625l.547.157.39.108.593.157c1.8.467,3.9.9,7.939,1.673l7.764,1.476,2.773.533c4.888.945,8.873,1.747,14.882,2.99a1.029,1.029,0,1,0,.417-2.016l-3.424-.706-3.162-.645-2.6-.522c-3.157-.63-6.181-1.216-9.991-1.942l-7.079-1.346-1.438-.279c-3.391-.664-5.055-1.047-6.821-1.554l-.557-.164-.464-.142-.467-.149c-1.879-.61-3.929-1.415-7.394-2.876l-8.779-3.737-2.731-1.155-1.643-.692-2.067-.867c-1.91-.8-3.871-1.614-5.945-2.47A1.03,1.03,0,0,0,261.255,424.777Zm-5.044-85.041a1.029,1.029,0,0,0,0,1.456l.617.623.942.96.482.494c.809.832,1.654,1.711,2.56,2.66l1.924,2.027,5.08,5.39a212.521,212.521,0,0,0,17.333,16.95l.919.773,3.543,2.925c1.88,1.544,3.658,3,3.955,3.245,6.774,5.639,10.775,9.856,14.449,15.813a62.717,62.717,0,0,1,7.932,21.805,137.226,137.226,0,0,1,1.962,23.411,1.03,1.03,0,1,0,2.059-.027,139.2,139.2,0,0,0-2-23.759,64.726,64.726,0,0,0-8.2-22.512c-3.756-6.091-7.836-10.421-14.589-16.069l-5.756-4.731-1.777-1.469-.773-.646h0l-.724-.615-.5-.434-.5-.436c-4.735-4.133-9.229-8.644-16.322-16.163l-4.725-5.013-.8-.843c-2.126-2.24-3.906-4.083-5.623-5.811A1.03,1.03,0,0,0,256.211,339.736Zm-.356,9.794a1.03,1.03,0,0,0,.1,1.453l7.094,6.179,1.008.883,1.522,1.343.574.509c1.129,1.006,2.155,1.931,3.139,2.834l.245.226c8.889,8.182,14.981,15.223,20.837,24.6a48.37,48.37,0,0,1,4.669,10.023l.133.39c.937,2.773,1.6,5.184,2.744,9.763l.992,4,.3,1.207.193.753c.228.879.429,1.626.666,2.481.244.879.488,1.718.736,2.531l.214.692.2.645.256.8c.689,2.114,1.445,4.227,2.673,7.518l2.191,5.848.315.855.369,1.015.124.344a1.029,1.029,0,1,0,1.938-.7l-.377-1.042-.348-.947-.309-.834h0l-2.048-5.463-.611-1.648-.294-.8c-.852-2.337-1.436-4.041-2.021-5.9l-.182-.583c-.244-.788-.484-1.6-.723-2.45l-.321-1.16-.257-.954c-.313-1.183-.643-2.492-1.179-4.659l-.627-2.529-.425-1.681c-.79-3.09-1.369-5.121-2.094-7.305l-.15-.448a50.855,50.855,0,0,0-5.006-10.845c-5.882-9.425-12.007-16.538-20.83-24.7l-.359-.331c-1.832-1.686-3.786-3.43-6.268-5.6l-7.354-6.406A1.03,1.03,0,0,0,255.855,349.53Zm-2.226,3.182a1.029,1.029,0,0,0-.368,1.409l3.419,5.852,1.858,3.2q.932,1.612,1.6,2.778l.652,1.147.355.631.094.179.07.129.069.123.049.076.05.067a1.721,1.721,0,0,0,.131.133l.052.039.073.051.114.061.182.063.291.029.018-.007.4.552.622.873.539.768q.568.813,1.252,1.81l1.025,1.5c.533.784,1.1,1.724,1.686,2.81.94,1.73,1.931,3.792,3.012,6.23l.337.767.48,1.123,3.242,7.722c.556,1.315,1,2.357,1.2,2.762l.172.352.126.253c.548,1.089,1.12,2.1,2.069,3.694l1.429,2.379.429.722a42.118,42.118,0,0,1,2.3,4.31l.32.714.275.621.278.636a80.652,80.652,0,0,1,3.846,10.511l.065.229c.288,1.029.563,2.094.858,3.313l.217.913,1.824,7.994a1.03,1.03,0,0,0,2.006-.466l-1.877-8.219-.169-.707-.148-.608c-.246-.995-.482-1.9-.728-2.775l-.133-.471a88.3,88.3,0,0,0-4.567-12.112l-.14-.311a48.021,48.021,0,0,0-2.894-5.365l-1.41-2.346-.3-.513-.313-.533c-.662-1.135-1.107-1.957-1.559-2.875l-.137-.282-.111-.242-.223-.509c-1.075-2.478-3.777-9.024-4.6-10.891l-.277-.629-.273-.613c-1-2.219-1.922-4.126-2.811-5.762q-.931-1.714-1.792-2.985l-1.023-1.5-.647-.94a53.962,53.962,0,0,0-3.566-4.841,2.051,2.051,0,0,0-.292-.258c-.036-.025-.074-.049-.113-.071l-.05-.026-1.587-2.764-1.227-2.12c-.971-1.673-2.114-3.634-3.441-5.9l-.891-1.521A1.029,1.029,0,0,0,253.629,352.712Zm-3.759,3.026a1.03,1.03,0,0,0-.711,1.221L251.3,364.4l.9,3.086.379,1.278q.048.163.094.314l.138.454a106.546,106.546,0,0,0,4.16,11.68,125.138,125.138,0,0,0,7.938,14.974l.573.94,5.146,8.313h0c2.038,3.328,3.757,6.259,5.47,9.369l.376.686.264.491c1.152,2.159,2.109,4.225,3.885,8.261l1,2.27.4.908.4.878c.189.416.369.808.564,1.226a1.03,1.03,0,0,0,1.867-.869l-.478-1.037-.453-1-.985-2.226h0l-.992-2.251-.581-1.3-.429-.949c-1-2.193-1.739-3.7-2.632-5.343l-.154-.283c-1.64-2.995-3.271-5.8-5.159-8.908l-.943-1.541-4.7-7.59-.2-.323a125.84,125.84,0,0,1-8.294-15.524,101.28,101.28,0,0,1-3.877-10.806l-.313-1.022c-.383-1.269-.981-3.315-1.576-5.367l-1.944-6.745A1.03,1.03,0,0,0,249.87,355.738Zm-5.862,5.643a1.03,1.03,0,0,0-.633,1.311l2.306,6.595,2.163,6.15,1.185,3.351c1.21,3.416,2.326,6.541,3.363,9.424l1.845,5.1.217.595,4.252,11.586.356.99c1,2.839,1.581,4.914,5.205,17.874a1.03,1.03,0,0,0,1.983-.555l-2.366-8.446c-1.675-5.951-2.165-7.55-2.948-9.747l-.825-2.271-3.555-9.675-1.123-3.087-1.347-3.735-1.29-3.6c-2.137-5.985-4.59-12.945-7.478-21.225A1.03,1.03,0,0,0,244.008,361.38Zm-9.594-2.457a1.029,1.029,0,0,0-.682,1.287l1.536,5.029.011.047-.014.041a1.815,1.815,0,0,0-.073.383l-.007.093,0,.109v.231c.046,2.044,1.22,8.387,4.224,21.951l.711,3.194.385,1.69c.819,3.554,1.678,6.972,3.08,12.321l2.615,9.912.455,1.743.413,1.6c.09.352.181.706.274,1.07a1.029,1.029,0,0,0,2-.508l-.71-2.762-.731-2.795h0l-1.992-7.539-.7-2.658-.471-1.814c-1.123-4.349-1.857-7.369-2.629-10.81l-.677-3.043-.611-2.774-.52-2.389c-2.2-10.18-3.063-15.082-3.058-16.457l0-.113.016-.031a1.3,1.3,0,0,0,.073-.907l-.065-.308c-.06-.226-.307-1.027-1.563-5.111A1.029,1.029,0,0,0,234.414,358.923Zm-8.327,8.061a1.029,1.029,0,0,0-.75,1.248l1.739,6.983.493,2.016a43,43,0,0,1,1.107,5.588l.171,1.42c.149,1.312.747,6.642,1.093,9.515l.273,2.237.3,2.4.2,1.571c.615,4.8,1.365,10.351,2.3,16.969a1.03,1.03,0,0,0,2.039-.287l-.584-4.183-.568-4.142-.423-3.144c-.465-3.484-.866-6.6-1.216-9.438l-.382-3.157-.6-5.229c-.217-1.908-.39-3.454-.413-3.642l-.164-1.335c-.318-2.485-.619-3.662-3.361-14.643A1.029,1.029,0,0,0,226.087,366.984Zm-6.535-7.563a1.03,1.03,0,0,0-.99,1.007v.047l.359,9.088.255,6.922c.05,1.444.086,2.605.1,3.254l0,.334c.012,1.9-.265,15.376-.359,21.384a1.03,1.03,0,1,0,2.059.032l.312-17.5c.026-1.619.044-2.9.047-3.589v-.339c-.008-1.174-.2-6.475-.388-11.284l-.332-8.366A1.03,1.03,0,0,0,219.552,359.421Zm-11.873-8.147a77.51,77.51,0,0,1-5.427,6.613l-.408.444-1.159,1.23-2.6,2.752c-.205.218-.39.416-.545.583l-.318.346c-4.638,5.143-6.871,9.93-8.631,19.915a1.03,1.03,0,0,0,2.028.357l.1-.571.1-.542.1-.542c1.607-8.307,3.627-12.5,7.567-16.948l.26-.29c.767-.85,3.947-4.177,4.708-5a80.152,80.152,0,0,0,5.88-7.126,1.03,1.03,0,0,0-1.66-1.218ZM212,355.021l-1.542,26.715a1.03,1.03,0,0,0,2.056.118l1.542-26.715a1.03,1.03,0,1,0-2.056-.119Zm-5.672,5.959-5.847,20a1.03,1.03,0,0,0,1.977.578l5.846-20a1.03,1.03,0,1,0-1.976-.578Z" transform="translate(39.548 -217.489)" fill="#5463ac" fill-rule="evenodd"/>
      <path id="Path_16442" data-name="Path 16442" d="M470.485,381.582l-16.007,9.93L444.4,379.868l6.979-5.008,4.135,6.723,7.129-6.723,2.24-.86Z" transform="translate(-188.388 -245.648)" fill="#21396e" fill-rule="evenodd" opacity="0.5"/>
      <path id="Path_16443" data-name="Path 16443" d="M603.073,624.232q-2.932,44.044-23.7,47.77h29.655l-1.823-35.7Z" transform="translate(-373.243 -410.004)" fill="#21396e" fill-rule="evenodd" opacity="0.5"/>
      <path id="Path_16444" data-name="Path 16444" d="M201.821,659.416q-2.76,13.689,12.193,17.907c14.954,4.218,30.849,23.018,52,23.018q21.156,0,45.916-.046-17.393-5.189-37.2-11.966T215.73,667.37q-2.761-1.833-2.974-3.774l-.213-1.941q-4.036-1.267-6.055-1.689A30.217,30.217,0,0,0,201.821,659.416Z" transform="translate(53.56 -433.114)" fill="#21396e" fill-rule="evenodd" opacity="0.5"/>
      <path id="Path_16445" data-name="Path 16445" d="M283.257,476.34l-2.139,46.79,22.337,6.114Z" transform="translate(34.68 -312.867)" fill="#21396e" fill-rule="evenodd" opacity="0.5"/>
      <path id="Path_16446" data-name="Path 16446" d="M546.794,511.668H516.25l3.705,48.288a2.745,2.745,0,0,0,1.841,2.385q3.023,1.044,9.725,1.044l.5,0a31.266,31.266,0,0,0,9.225-1.042,2.746,2.746,0,0,0,1.841-2.385Z" transform="translate(-289.353 -336.071)" fill="#e2e0e0" fill-rule="evenodd"/>
      <path id="Path_16447" data-name="Path 16447" d="M552.61,511.668l3.705,48.288a2.745,2.745,0,0,0,1.841,2.385q3.023,1.044,9.725,1.044,4.872,0,1.247-51.586Z" transform="translate(-325.713 -336.071)" fill="#fff" fill-rule="evenodd"/>
      <path id="Path_16448" data-name="Path 16448" d="M543.29,496.668H514.462a2.059,2.059,0,0,0-2.059,2.059v3.089h32.946v-3.089A2.059,2.059,0,0,0,543.29,496.668Z" transform="translate(-286.588 -326.219)" fill="#80424c" fill-rule="evenodd"/>
      <path id="Path_16449" data-name="Path 16449" d="M546.273,481.668H524.309a2.059,2.059,0,0,0-2.059,2.059v3.089h26.082v-3.089A2.059,2.059,0,0,0,546.273,481.668Z" transform="translate(-292.951 -316.366)" fill="#80424c" fill-rule="evenodd"/>
      <path id="Path_16450" data-name="Path 16450" d="M575.978,496.668H564.309a2.059,2.059,0,0,0-2.059,2.059v3.089h15.787v-3.089A2.059,2.059,0,0,0,575.978,496.668Z" transform="translate(-336.382 -326.219)" fill="#8e545e" fill-rule="evenodd"/>
      <path id="Path_16451" data-name="Path 16451" d="M579.114,481.668h-4.8a2.059,2.059,0,0,0-2.059,2.059v3.089h8.923v-3.089A2.059,2.059,0,0,0,579.114,481.668Z" transform="translate(-342.95 -316.366)" fill="#8e545e" fill-rule="evenodd"/>
      <path id="Path_16452" data-name="Path 16452" d="M539.278,494.668a.687.687,0,0,0-.051,1.371l.051,0h19.787a.686.686,0,0,0,.051-1.371l-.051,0Z" transform="translate(-309.979 -324.905)" fill="#5f2932"/>
      <path id="Path_16453" data-name="Path 16453" d="M523.089,509.168a.686.686,0,0,0-.051,1.371l.051,0H551.8a.686.686,0,0,0,.051-1.371l-.051,0Z" transform="translate(-297.157 -334.429)" fill="#5f2932"/>
      <path id="Path_16454" data-name="Path 16454" d="M388.55,229.033a52.145,52.145,0,0,1,.693,7.892l1.1,12,5.85,11.5,12.3-4.692,19.763-17.954,3.637-8.008q-11.431-20.6-13.613-36.26l-20.206-3.648-12.528,24.715Z" transform="translate(-129.598 -124.707)" fill="#fdb4a3" fill-rule="evenodd"/>
      <path id="Path_16455" data-name="Path 16455" d="M453.017,134.222q-.467,24.279-9.482,28.424c-9.015,4.146-25.757,9.947-28.893,4.146s-9.856-19.6-12.431-27.5q-2.574-7.9-6.523-20.388-5.313-15.764,12.4-20.376t46.252-4.551l-4.679,27.441a10.836,10.836,0,0,1,9.14-4.663c5.684,0,8.8,14.158,2.974,15.813A35.533,35.533,0,0,1,453.017,134.222Z" transform="translate(-165.654 -61.724)" fill="#fdb4a3" fill-rule="evenodd"/>
      <path id="Path_16456" data-name="Path 16456" d="M518.368,257.142a.686.686,0,0,0-.962.128c-2.861,3.737-6.363,5.246-10.6,4.585a.686.686,0,1,0-.212,1.356c4.743.741,8.739-.981,11.9-5.107A.687.687,0,0,0,518.368,257.142Z" transform="translate(-257.684 -168.802)" fill="#583e40"/>
      <path id="Path_16457" data-name="Path 16457" d="M414.977,210.561q-3.577,1.689-2.739,7.415l.026.172c.917,5.873-2.011,14.43-3.816,17.752q-1.805,3.322-22.9,9.177l7.99,1.151a7.031,7.031,0,0,1,5.8,8.731l-.053.19c-1.469,5.048-6.54,7.368-6.642,18.53v.341l12.3-4.692,19.763-17.954,3.637-8.008q-10.07-18.148-12.962-32.46Z" transform="translate(-126.048 -138.299)" fill="#f69883" fill-rule="evenodd"/>
      <path id="Path_16458" data-name="Path 16458" d="M472.336,372.707l-14.477,13.5-8.773-15.032,6.222-4.486,3.687,6.022,6.355-6.022,2-.77Z" transform="translate(-191.845 -240.338)" fill="#d8d8d8" fill-rule="evenodd"/>
      <path id="Path_16459" data-name="Path 16459" d="M476.143,530.642c-2.03.812-2.21,1.788-2.21,2.679s3.217,3.156,5.211,3.722,11.72,10.269,11.72,10.269l-.406-.234q-9.876-5.678-11.9-5.276c-2.062.411-3.422,3.646-1.686,5.174l.131.114a48.406,48.406,0,0,0,4.376,3.1l.094.061-.054-.03q-3.232-1.8-4.2-1.075a6.182,6.182,0,0,0-2.309,3.96q0,.928,2.734,2.712-2.572,2.721.918,5.7l.22.185a153.365,153.365,0,0,0,17.826,11.59c2.169.962,11.034,1,19.03,3.694q-1.809-9.554,4.7-24.82l.284-.658a5.488,5.488,0,0,1,.873-1.393l-.321-.105q-4.1-1.36-4.5-2.145c-.519-1.042-2.054-9.828-2.987-10.254l-.052-.025a86.807,86.807,0,0,1-7.278-5.519l-.973,13.014-5.376-3.219q-9.417-5.657-11.664-7.169l-.164-.112C485.631,532.826,478.172,529.83,476.143,530.642Zm5.4,19.65-.065-.043.068.039q1.421.8,3.267,2.083l-.824-.516Q482.647,551.014,481.539,550.292Z" transform="translate(-249.532 -348.443)" fill="#fdb4a3" fill-rule="evenodd"/>
      <path id="Path_16460" data-name="Path 16460" d="M229.417,472.231a.686.686,0,0,0-1.3.43l.017.051,19.709,52.7-.078-.015c-4.884-.977-23.6-6.122-55.635-15.312l-3.1-.891a6.177,6.177,0,0,0-7.371,3.474q-7.7,17.717-4.479,28.105a7.206,7.206,0,0,0,4.371,4.607c65.524,24.314,95.046,33.767,103.1,33.767a.686.686,0,1,0,0-1.373c-7.8,0-37.353-9.463-102.618-33.682a5.835,5.835,0,0,1-3.539-3.729q-3.074-9.834,4.427-27.148a4.8,4.8,0,0,1,5.733-2.7l6.687,1.918c33.882,9.7,51.518,14.487,53.549,14.509a.687.687,0,0,0,.667-.879l-.016-.048Z" transform="translate(88.809 -309.875)" fill="#21396e"/>
      <path id="Path_16461" data-name="Path 16461" d="M204.763,628.512a.686.686,0,0,0-.362,1.323l.049.013,26.245,6.132a.686.686,0,0,0,.362-1.323l-.05-.014Z" transform="translate(133.089 -412.804)" fill="#21396e"/>
      <path id="Path_16462" data-name="Path 16462" d="M577.3,668.152a.686.686,0,0,0-.648.673v.051l2.068,36.881a.686.686,0,0,0,1.372-.025v-.052L578.024,668.8a.686.686,0,0,0-.673-.648Z" transform="translate(-343.381 -438.851)" fill="#21396e"/>
      <path id="Path_16463" data-name="Path 16463" d="M371.636,327.327q8.942,6.563,8.186,17.219,22.412-22.22,25.38-29.844-2.59-7.841-4.774-8.548Z" transform="translate(-98.132 -201.086)" fill="#fff" fill-rule="evenodd"/>
      <path id="Path_16464" data-name="Path 16464" d="M507.725,340.729q-6.475,6.524-6.475,14.41-3.739-6.67-1.985-23.965l4.566-4.777,1.745,4.777Z" transform="translate(-244.263 -214.382)" fill="#fff" fill-rule="evenodd"/>
      <path id="Path_16465" data-name="Path 16465" d="M529.775,203.853l-.051,0a.686.686,0,0,0-.627.741,74.5,74.5,0,0,1,.182,10.579l-.058,1.058c-.025.429-.065,1.112-.077,1.33l-.02.4c-.014.291-.023.539-.027.765l0,.189,0,.379.319.2c3.149,2.018,6.108,1.683,8.654-.986a.686.686,0,1,0-.993-.948c-1.963,2.058-4.051,2.405-6.451,1.059l-.145-.083.01-.291q0-.11.01-.23l.115-2.038a76.61,76.61,0,0,0-.145-11.5A.686.686,0,0,0,529.775,203.853Z" transform="translate(-285.221 -133.893)" fill="#2e363a"/>
      <path id="Path_16466" data-name="Path 16466" d="M516.214,161.334l-.563-.316-.554-.306q-8.3-4.554-9.946-3.293c-1.925,1.472.106,5.283,4.45,5.682a24.215,24.215,0,0,0,6.019-.184l.328-.054a.824.824,0,0,0,.265-1.529Z" transform="translate(-255.132 -103.215)" fill="#2e363a" fill-rule="evenodd"/>
      <path id="Path_16467" data-name="Path 16467" d="M571.866,173.578l.379-.4.274-.286q5.709-5.931,7.42-5.346c1.979.676,1.321,4.261-2.153,5.719a21.46,21.46,0,0,1-5.009,1.427l-.285.043a.708.708,0,0,1-.807-.587A.684.684,0,0,1,571.866,173.578Z" transform="translate(-342.625 -110.012)" fill="#2e363a" fill-rule="evenodd"/>
      <path id="Path_16468" data-name="Path 16468" d="M448.531,111.924q.213-10.541,7.68-25.674c7.468-15.133,6.032-41.612-14.582-46.157q-8.022-16.539-28.657-10.458l-.818.242q-19.858,5.89-21.865,8.379l-.236-.683a28.528,28.528,0,0,1-1.507-5.2c0-.867-11.095,7.241-12.749,12.754l-1.67-2.363q-12.657,13.521,2.991,33.5l7.537,7.017h0l-2.414-7.8.113-.1a41.483,41.483,0,0,0,4.935-6.089,17.145,17.145,0,0,0,8.237-1.9l.761-.107q8.748-1.258,11.4-3.02,7.66,11.678,17.161,11.539l3.17,9.711a6.408,6.408,0,0,0,6.907,4.367l.122-.017,1.141-11.777q5.37-5.722,11.166-2.606c5.8,3.116,5.8,15.174-6.24,15.174l2.271,9.672Z" transform="translate(-152.183 -18.391)" fill="#2e363a" fill-rule="evenodd"/>
      <path id="Path_16469" data-name="Path 16469" d="M525.5,194.15c-.933.165-1.89-.837-2.137-2.237s.31-2.668,1.243-2.833,1.89.837,2.137,2.237S526.437,193.985,525.5,194.15Z" transform="translate(-271.787 -124.179)" fill="#2e363a" fill-rule="evenodd"/>
      <path id="Path_16470" data-name="Path 16470" d="M570.5,202.15c-.933.165-1.89-.837-2.137-2.237s.31-2.668,1.243-2.833,1.89.837,2.137,2.237S571.437,201.985,570.5,202.15Z" transform="translate(-332.23 -129.433)" fill="#2e363a" fill-rule="evenodd"/>
      <path id="Path_16471" data-name="Path 16471" d="M823.293,504.668H694.835a3.432,3.432,0,0,0-3.181,4.72l38.159,94.243H869.145l-37.9-93.6A8.58,8.58,0,0,0,823.293,504.668Z" transform="translate(-671.814 -331.473)" fill="#b6d4e5" fill-rule="evenodd"/>
      <path id="Path_16472" data-name="Path 16472" d="M580.679,764.033H501.4v9.953h70.7a8.58,8.58,0,0,0,8.58-8.58Z" transform="translate(-318.143 -501.828)" fill="#b6d4e5" fill-rule="evenodd"/>
      <path id="Path_16473" data-name="Path 16473" d="M413.4,175.89a4.3,4.3,0,0,0-6.088,0,.686.686,0,0,0,.971.971,2.932,2.932,0,1,1,4.147,4.147.686.686,0,1,0,.971.971A4.3,4.3,0,0,0,413.4,175.89Z" transform="translate(-119.768 -114.699)" fill="#583e40"/>
      <path id="Path_16474" data-name="Path 16474" d="M849.131,505H720.673a3.433,3.433,0,0,0-3.181,4.72L752.7,596.673a11.667,11.667,0,0,0,10.814,7.289H889.891a3.432,3.432,0,0,0,3.181-4.72L857.084,510.36A8.58,8.58,0,0,0,849.131,505Z" transform="translate(-704.859 -331.691)" fill="#e9f0f6" fill-rule="evenodd"/>
      <path id="Path_16475" data-name="Path 16475" d="M619.981,471.786a.686.686,0,0,0-.717.654l-.034.79q-.77,18.681,2,48.2l.2,2.128-.11.077c-2.624,1.857-3.959,3.7-3.914,5.581l0,.1c.188,3.7,3.185,9.055,8.845,14.193a.686.686,0,1,0,.922-1.016c-5.411-4.912-8.229-9.946-8.4-13.246-.072-1.418,1.142-3.03,3.754-4.785a.687.687,0,0,0,.3-.636l-.182-1.9q-2.884-30.5-2.016-49.43A.687.687,0,0,0,619.981,471.786Z" transform="translate(-404.674 -309.875)" fill="#21396e"/>
      <path id="Path_16476" data-name="Path 16476" d="M644.538,648.209a16.981,16.981,0,0,0-4.97.43c-2.2.6-3.054,2.9-3.054,7.088A5.72,5.72,0,0,0,638.4,659.4a27.581,27.581,0,0,0,2.15,2.053l1.239,1.082c2.585,2.273,3.272,3.057,3.161,3.624l-.011.048a.686.686,0,0,0,1.323.368c.252-.908-.22-1.825-1.264-2.943-.386-.414-.852-.857-1.461-1.4l-.419-.369-1.249-1.081a29.888,29.888,0,0,1-2.457-2.311,4.621,4.621,0,0,1-1.526-2.748c0-3.628.656-5.387,2.042-5.763a15.712,15.712,0,0,1,4.561-.383.686.686,0,1,0,.049-1.372Z" transform="translate(-430.162 -425.741)" fill="#21396e"/>
      <path id="Path_16477" data-name="Path 16477" d="M683.769,668.708a.686.686,0,0,0-.8-.546l-.811.154q-10.681,2.018-17.77,2.854a.686.686,0,0,0,.161,1.364q7.41-.874,18.677-3.022A.686.686,0,0,0,683.769,668.708Z" transform="translate(-476.971 -438.85)" fill="#21396e"/>
      <path id="Path_16478" data-name="Path 16478" d="M451.288,230.672a.687.687,0,0,0-.756.609l-.075.686c-1.244,11.1-3.265,17.541-5.877,19.195q-4.257,2.7-13.64,4.8a.686.686,0,0,0,.3,1.34q9.587-2.138,14.076-4.977c3.17-2.008,5.3-8.93,6.583-20.893A.687.687,0,0,0,451.288,230.672Z" transform="translate(-164.999 -151.506)" fill="#583e40"/>
      <path id="Path_16479" data-name="Path 16479" d="M954.723,640.875a11.832,11.832,0,0,1-11.165-9.437c-.943-5.212,2.522-9.438,7.743-9.438a11.832,11.832,0,0,1,11.165,9.438C963.411,636.65,959.944,640.875,954.723,640.875Z" transform="translate(-851.773 -408.538)" fill="#b6d4e5" fill-rule="evenodd"/>
      <path id="Path_16480" data-name="Path 16480" d="M481.922,554.247l-.431.291c-4.4,2.991-6.161,5.5-6.161,11.119,0,3.863-2.218,6.408-1.064,9.41l.619.356c.7.4,1.262.7,1.62.854,2.169.962,11.034,1,19.03,3.694q-1.809-9.554,4.7-24.82l.284-.658a5.487,5.487,0,0,1,.873-1.393l-.321-.105-.461-.155q-3.665-1.25-4.034-1.99c-.519-1.042-2.054-9.828-2.987-10.254l-.052-.025-.06-.032q-1.154-.636-7.218-5.487l-.973,13.014q1.084,3.149-3.367,6.182Z" transform="translate(-229.432 -351.429)" fill="#f69883" fill-rule="evenodd"/>
      <path id="Path_16481" data-name="Path 16481" d="M511.451,551.134a.686.686,0,0,0-.77,1.135l.047.032,14.26,8.841a.686.686,0,0,0,.77-1.135l-.047-.032Z" transform="translate(-266.588 -361.925)" fill="#583e40"/>
      <path id="Path_16482" data-name="Path 16482" d="M568.459,585.113a.687.687,0,0,0-.75,1.149l.047.03,7.762,4.626a.687.687,0,0,0,.75-1.149l-.047-.031Z" transform="translate(-336.676 -384.247)" fill="#583e40"/>
      <path id="Path_16483" data-name="Path 16483" d="M581.415,603.064a.687.687,0,0,0-.7,1.179l.046.027,6.615,3.59a.686.686,0,0,0,.7-1.179l-.046-.028Z" transform="translate(-352.965 -396.046)" fill="#583e40"/>
      <path id="Path_16484" data-name="Path 16484" d="M552.941,563.98a.686.686,0,0,0-.648,1.209l.047.025,12.558,6.118a.686.686,0,0,0,.649-1.209l-.047-.025Z" transform="translate(-320.698 -370.385)" fill="#583e40"/>
      <path id="Path_16485" data-name="Path 16485" d="M370.539,304.187a.686.686,0,1,0-.434,1.3c2.176.726,3.623,2.832,4.318,6.427a.686.686,0,1,0,1.348-.261C374.99,307.619,373.254,305.093,370.539,304.187Z" transform="translate(-68.026 -199.771)" fill="#d8d8d8"/>
      <path id="Path_16486" data-name="Path 16486" d="M841.626,529c3.672,0,7.712,2.606,9.022,5.822l.033.082c.989,2.524-.011,4.7-2.38,5.459l-.029.009.013.01a17.994,17.994,0,0,1,6.237,7.518c.036.089.072.179.106.268l.044.116.047.13.041.118.034.1.059.179.058.189.052.177.051.19.035.135.039.165.028.123.025.117a7.662,7.662,0,0,1-.948,5.872l-.024.035.025,0c3.516.243,7.224,2.748,8.469,5.8,1.31,3.215-.6,5.821-4.276,5.821s-7.711-2.606-9.022-5.821l-.04-.1a4.851,4.851,0,0,1-.34-2.372l-.1.023a13.293,13.293,0,0,1-2.854.3h-.14a18.584,18.584,0,0,1-6.291-1.228l-.112-.043.016.026a7.1,7.1,0,0,1,.509,1.005c1.311,3.215-.6,5.821-4.276,5.821s-7.711-2.606-9.022-5.821.6-5.821,4.276-5.821h.126a8.251,8.251,0,0,1,.892.063l-.081-.079a16.511,16.511,0,0,1-3.816-5.488l-.067-.167q-.164-.419-.292-.833l-.042-.139-.085.026a6.454,6.454,0,0,1-1.785.236c-3.672,0-7.711-2.606-9.022-5.821s.6-5.822,4.276-5.822h.092a10.733,10.733,0,0,1,7.779,3.9l.016.019.054-.062.065-.073.141-.151.116-.118.13-.126.106-.1.114-.1.118-.1.107-.088.15-.117.108-.081.125-.09.1-.067.065-.044.115-.075.142-.09.149-.09.031-.018.152-.086.1-.057.168-.088.187-.093.112-.053.156-.071.191-.082.177-.071.181-.069.159-.057.124-.042.195-.063.2-.06.084-.024.169-.046.19-.049.079-.019.212-.049.2-.042.189-.037.186-.033.218-.034.171-.025.181-.023.123-.014.093-.01.181-.018.124-.011.134-.011.213-.014.162-.008.129-.005.1,0,.182,0,.153,0h.3l.189,0q.566.014,1.14.068l.142.014v0a7.511,7.511,0,0,1-.907-1.6C836.04,531.606,837.954,529,841.626,529Z" transform="translate(-708.644 -347.455)" fill="#b6d4e5"/>
      <path id="Path_16487" data-name="Path 16487" d="M843.519,529c-3.456,0-5.258,2.422-4.024,5.409a7.285,7.285,0,0,0,1.232,1.958c.208.241.075.492-.238.449a16.757,16.757,0,0,0-2.091-.159h-.3l-.153,0-.184,0-.1,0-.129.006-.162.008-.215.014-.132.01-.123.011-.182.018-.091.01-.122.014-.182.023-.171.024-.218.034-.185.033-.189.036-.2.041-.214.048-.076.019-.192.048-.169.046-.081.023-.2.06-.2.063-.122.042-.159.056-.181.068-.179.071-.186.078-.159.071-.111.052-.188.092-.168.087-.1.056-.154.087-.178.106-.142.089-.115.075-.064.042-.1.066-.126.09-.107.079-.151.117-.106.085-.118.1-.115.1-.106.1-.13.125-.115.116-.143.151-.012.013q-.209.229-.4.474c-.138.181-.535.093-.71-.158a10.086,10.086,0,0,0-7.782-4.121c-3.456,0-5.257,2.422-4.023,5.409s5.036,5.409,8.492,5.409a5.729,5.729,0,0,0,2.229-.412.567.567,0,0,1,.676.355,11.427,11.427,0,0,0,.541,1.638,16.8,16.8,0,0,0,4.584,6.117c.3.258.151.583-.225.5a8.244,8.244,0,0,0-1.808-.208c-3.456,0-5.257,2.422-4.023,5.409s5.036,5.409,8.492,5.409,5.257-2.422,4.023-5.409a7.047,7.047,0,0,0-.967-1.637c-.228-.292.036-.544.405-.386a19.135,19.135,0,0,0,7.418,1.607,12.8,12.8,0,0,0,3.715-.516c.305-.093.732.237.644.5a4.171,4.171,0,0,0,.213,2.93c1.234,2.987,5.036,5.409,8.492,5.409s5.257-2.422,4.023-5.409-5.036-5.409-8.492-5.409q-.175,0-.346.008c-.352.017-.7-.363-.522-.575a7.36,7.36,0,0,0,1.345-6.474l-.028-.122-.04-.163-.034-.132-.052-.188-.052-.174-.059-.187-.059-.178-.033-.1-.042-.116-.047-.128-.044-.116c-.034-.086-.069-.175-.105-.263a18.1,18.1,0,0,0-6.806-7.809c-.283-.188-.3-.5-.03-.553,2.632-.536,3.794-2.729,2.738-5.285C850.777,531.422,846.975,529,843.519,529Z" transform="translate(-711.016 -347.455)" fill="#fff"/>
      <path id="Path_16488" data-name="Path 16488" d="M862.223,575.218c-6.156,0-12.929-4.3-15.127-9.609S848.107,556,854.263,556s12.93,4.3,15.128,9.609S868.379,575.218,862.223,575.218Z" transform="translate(-725.946 -365.189)" fill="#719cfd" fill-rule="evenodd"/>
      <path id="Path_16489" data-name="Path 16489" d="M854.657,557a8.291,8.291,0,0,0-6.254,2.315,9.457,9.457,0,0,0,.443,1.317c2.172,5.2,8.853,9.409,14.924,9.409a8.291,8.291,0,0,0,6.254-2.315,9.488,9.488,0,0,0-.443-1.317C867.409,561.213,860.727,557,854.657,557Z" transform="translate(-726.573 -365.845)" fill="#b9cdff" fill-rule="evenodd"/>
      <path id="Path_16490" data-name="Path 16490" d="M898.135,615.207a6.31,6.31,0,0,1-5.481-3.6c-.8-1.99.366-3.6,2.6-3.6a6.31,6.31,0,0,1,5.481,3.6C901.528,613.594,900.365,615.207,898.135,615.207Z" transform="translate(-772.632 -399.343)" fill="#f6be67" fill-rule="evenodd"/>
      <path id="Path_16491" data-name="Path 16491" d="M867.135,542.207a6.31,6.31,0,0,1-5.481-3.6c-.8-1.99.366-3.6,2.6-3.6a6.31,6.31,0,0,1,5.481,3.6C870.528,540.594,869.365,542.207,867.135,542.207Z" transform="translate(-730.993 -351.396)" fill="#3cb49f" fill-rule="evenodd"/>
      <path id="Path_16492" data-name="Path 16492" d="M829.135,621.207a6.31,6.31,0,0,1-5.481-3.6c-.8-1.99.366-3.6,2.6-3.6a6.31,6.31,0,0,1,5.481,3.6C832.528,619.594,831.365,621.207,829.135,621.207Z" transform="translate(-679.952 -403.284)" fill="#4757a4" fill-rule="evenodd"/>
      <path id="Path_16493" data-name="Path 16493" d="M930.135,560.207a6.31,6.31,0,0,1-5.481-3.6c-.8-1.99.366-3.6,2.6-3.6a6.31,6.31,0,0,1,5.481,3.6C933.528,558.594,932.365,560.207,930.135,560.207Z" transform="translate(-815.614 -363.218)" fill="#e9525b" fill-rule="evenodd"/>
      <path id="Path_16494" data-name="Path 16494" d="M457.7,64.445a.687.687,0,0,0-.837-.492q-19.237,5-26.4,20.225a.686.686,0,0,0,1.243.582q6.859-14.638,25.5-19.479A.686.686,0,0,0,457.7,64.445Z" transform="translate(-170.823 -41.991)" fill="#fff"/>
      <path id="Path_16495" data-name="Path 16495" d="M846.595,669a2.469,2.469,0,0,0-2.407,1.3,5.88,5.88,0,0,0-3.357-1.3l-.116,0H831.4l3.469,8.477a5.694,5.694,0,0,0,2.526,2.677,2.343,2.343,0,0,0-.377,2.572l.041.1,3.469,8.477h9.311a2.468,2.468,0,0,0,2.407-1.3,5.881,5.881,0,0,0,3.357,1.3l.116,0h9.312l-3.469-8.477a5.7,5.7,0,0,0-2.526-2.677,2.343,2.343,0,0,0,.377-2.572l-.041-.1L855.906,669Z" transform="translate(-715.75 -439.409)" fill="#b6d4e5"/>
      <path id="Path_16496" data-name="Path 16496" d="M850.595,669a2.468,2.468,0,0,0-2.407,1.3,5.881,5.881,0,0,0-3.357-1.3l-.116,0H835.4l3.469,8.477a5.694,5.694,0,0,0,2.526,2.677,2.343,2.343,0,0,0-.377,2.572l.041.1,3.469,8.477h9.311a2.468,2.468,0,0,0,2.407-1.3,5.881,5.881,0,0,0,3.357,1.3l.116,0h9.312l-3.469-8.477a5.7,5.7,0,0,0-2.526-2.677,2.344,2.344,0,0,0,.377-2.572l-.041-.1L859.906,669Z" transform="translate(-721.123 -439.409)" fill="#fff"/>
      <path id="Path_16497" data-name="Path 16497" d="M877.908,703h7.8l2.905,6.983a1.311,1.311,0,0,1-1.283,1.939h-7.874l-2.905-6.983A1.311,1.311,0,0,1,877.833,703Z" transform="translate(-754.916 -461.74)" fill="#229581"/>
      <path id="Path_16498" data-name="Path 16498" d="M841.4,703h7.631a3.4,3.4,0,0,1,2.881,1.872l.029.068,2.843,6.983h-7.706a3.408,3.408,0,0,1-2.806-1.871l-.029-.068Z" transform="translate(-708.934 -461.74)" fill="#229581"/>
      <path id="Path_16499" data-name="Path 16499" d="M887.4,674h7.631a3.4,3.4,0,0,1,2.881,1.872l.029.068,2.843,6.983h-7.706a3.408,3.408,0,0,1-2.806-1.871l-.029-.068Z" transform="translate(-770.721 -442.693)" fill="#229581"/>
      <path id="Path_16500" data-name="Path 16500" d="M856.908,674h7.8l2.905,6.983a1.312,1.312,0,0,1-1.284,1.939h-7.874l-2.905-6.983-.027-.068A1.3,1.3,0,0,1,856.833,674Z" transform="translate(-726.71 -442.693)" fill="#229581"/>
      <path id="Path_16501" data-name="Path 16501" d="M1066.793,546.661c1.054-1.755,3.9-1.754,6.356,0l.075.054a7.341,7.341,0,0,1,2.595,3.321l.021.061,4.238,1.3.021-.057a2.846,2.846,0,0,1,2.831-1.68h.1c.134,0,.275.012.412.027l.068.008.453-6.8-.048-.037c-2.159-1.766-3.109-4.379-2.121-6.029,1.05-1.755,3.9-1.754,6.356,0l.1.072c.2.146.391.3.573.463l.045.039,4.029-.5-.017-.07a2.837,2.837,0,0,1,2.9-3.836,7.463,7.463,0,0,1,6.3,4.5c1,2.482-.209,4.494-2.691,4.493h-.079a6.983,6.983,0,0,1-4.31-1.859l-.076-.069-4,.5.014.043a3.323,3.323,0,0,1-.24,2.588l-.031.052a3.153,3.153,0,0,1-3.185,1.23l-.069-.009-.449,6.771.027.022a7.325,7.325,0,0,1,2.231,2.905l.031.072c.649,1.683.285,3.173-.855,3.919l-.048.031,1.939,4.159.01,0a7.5,7.5,0,0,1,1.888.99c2.461,1.755,3.6,4.6,2.553,6.356s-3.9,1.754-6.356,0-3.6-4.6-2.553-6.355l.041-.063a2.525,2.525,0,0,1,1.088-.941l.079-.036-1.774-3.8-.014,0a7.8,7.8,0,0,1-4.822-3.892l-.052-.1-4.7-1.446.017-.026c-1.05,1.755-3.9,1.754-6.356,0S1065.742,548.416,1066.793,546.661Z" transform="translate(-1033.799 -350.082)" fill="#b6d4e5"/>
      <path id="Path_16502" data-name="Path 16502" d="M1068.792,546.661c1.054-1.755,3.9-1.754,6.356,0l.075.054a7.343,7.343,0,0,1,2.595,3.321l.021.061,4.238,1.3.021-.057a2.846,2.846,0,0,1,2.831-1.68h.1c.134,0,.274.012.412.027l.068.008.453-6.8-.048-.037c-2.159-1.766-3.109-4.379-2.121-6.029,1.05-1.755,3.9-1.754,6.356,0l.1.072c.2.146.391.3.573.463l.045.039,4.029-.5-.017-.07a2.837,2.837,0,0,1,2.9-3.836,7.463,7.463,0,0,1,6.3,4.5c1,2.482-.209,4.494-2.691,4.493h-.079a6.984,6.984,0,0,1-4.311-1.859l-.075-.069-4,.5.014.043a3.325,3.325,0,0,1-.24,2.588l-.031.052a3.153,3.153,0,0,1-3.185,1.23l-.068-.009-.45,6.771.027.022a7.324,7.324,0,0,1,2.23,2.905l.031.072c.649,1.683.285,3.173-.855,3.919l-.048.031,1.939,4.159.01,0a7.5,7.5,0,0,1,1.888.99c2.461,1.755,3.6,4.6,2.553,6.356s-3.9,1.754-6.356,0-3.6-4.6-2.553-6.355l.041-.063a2.522,2.522,0,0,1,1.088-.941l.079-.036-1.774-3.8-.014,0a7.793,7.793,0,0,1-4.822-3.892l-.052-.1-4.7-1.446.017-.026c-1.05,1.755-3.9,1.754-6.356,0S1067.742,548.416,1068.792,546.661Z" transform="translate(-1036.485 -350.082)" fill="#fff"/>
      <path id="Path_16503" data-name="Path 16503" d="M1077.362,558c-.35-.108-.624.054-.611.363a.95.95,0,0,0,.631.744l.038.012,13.051,4.015c.316.1.573-.023.607-.279v-.029l.975-14.626,12.646-1.579c.3-.037.415-.314.271-.625l-.017-.034a.973.973,0,0,0-.837-.522l-.031,0-12.959,1.618a.353.353,0,0,0-.326.3l0,.034-.961,14.438Z" transform="translate(-1039.948 -358.251)" fill="#b9cdff"/>
      <path id="Path_16504" data-name="Path 16504" d="M1102.494,593.638c-.305.02-.443.284-.316.6l.017.035,5.24,11.236a.967.967,0,0,0,.851.553c.309-.021.443-.284.315-.6l-.014-.035-5.244-11.236A.966.966,0,0,0,1102.494,593.638Z" transform="translate(-1052.275 -389.909)" fill="#b9cdff"/>
      <path id="Path_16505" data-name="Path 16505" d="M1111.837,549.249c-.813,1.357-3.013,1.356-4.914,0s-2.783-3.556-1.97-4.913,3.01-1.357,4.911,0S1112.65,547.893,1111.837,549.249Z" transform="translate(-1056.628 -356.859)" fill="#719cfd" fill-rule="evenodd"/>
      <path id="Path_16506" data-name="Path 16506" d="M1105,544.093c2.086,1.489,3.054,3.9,2.165,5.392a2.32,2.32,0,0,1-1.651,1.067,2.527,2.527,0,0,0,2.776-.947c.813-1.357-.072-3.556-1.973-4.913a5.7,5.7,0,0,0-1.665-.832C1104.766,543.933,1104.883,544.011,1105,544.093Z" transform="translate(-1053.079 -357.215)" fill="#547ace" fill-rule="evenodd"/>
      <path id="Path_16507" data-name="Path 16507" d="M1120.464,549.662c.127.949-.22,1.611-.769,1.477s-1.1-1.011-1.225-1.96.216-1.611.765-1.478S1120.337,548.712,1120.464,549.662Z" transform="translate(-1069.713 -359.727)" fill="#b9cdff" fill-rule="evenodd"/>
      <path id="Path_16508" data-name="Path 16508" d="M1155.521,577.878c-.813,1.357-3.013,1.357-4.914,0s-2.783-3.556-1.97-4.913,3.01-1.357,4.911,0S1156.331,576.522,1155.521,577.878Z" transform="translate(-1115.303 -375.663)" fill="#3cb49f" fill-rule="evenodd"/>
      <path id="Path_16509" data-name="Path 16509" d="M1148.68,572.722c2.087,1.489,3.054,3.9,2.162,5.392a2.306,2.306,0,0,1-1.647,1.067,2.527,2.527,0,0,0,2.776-.946c.81-1.357-.072-3.556-1.973-4.913a5.7,5.7,0,0,0-1.665-.832C1148.45,572.562,1148.563,572.64,1148.68,572.722Z" transform="translate(-1111.753 -376.019)" fill="#229581" fill-rule="evenodd"/>
      <path id="Path_16510" data-name="Path 16510" d="M1164.149,578.291c.124.949-.219,1.611-.769,1.477s-1.1-1.011-1.229-1.96.22-1.611.769-1.477S1164.022,577.342,1164.149,578.291Z" transform="translate(-1128.389 -378.531)" fill="#50c4b0" fill-rule="evenodd"/>
      <path id="Path_16511" data-name="Path 16511" d="M1100.077,626.415c-.813,1.357-3.013,1.357-4.914,0s-2.783-3.557-1.97-4.913,3.01-1.357,4.911,0S1100.89,625.058,1100.077,626.415Z" transform="translate(-1040.832 -407.543)" fill="#f6be67" fill-rule="evenodd"/>
      <path id="Path_16512" data-name="Path 16512" d="M1093.236,621.258c2.086,1.489,3.054,3.9,2.165,5.393a2.319,2.319,0,0,1-1.651,1.066,2.527,2.527,0,0,0,2.776-.947c.813-1.357-.072-3.556-1.973-4.913a5.711,5.711,0,0,0-1.664-.831C1093.006,621.1,1093.123,621.176,1093.236,621.258Z" transform="translate(-1037.283 -407.899)" fill="#d19c49" fill-rule="evenodd"/>
      <path id="Path_16513" data-name="Path 16513" d="M1108.707,626.827c.124.949-.219,1.611-.769,1.478s-1.1-1.011-1.225-1.96.216-1.611.765-1.477S1108.58,625.878,1108.707,626.827Z" transform="translate(-1053.921 -410.411)" fill="#f9d8a4" fill-rule="evenodd"/>
      <path id="Path_16514" data-name="Path 16514" d="M1076.767,542.936a5.762,5.762,0,0,1-4.866-3.474c-.772-1.919.161-3.474,2.08-3.474a5.761,5.761,0,0,1,4.866,3.474C1079.619,541.381,1078.686,542.936,1076.767,542.936Z" transform="translate(-1012.276 -352.045)" fill="#f6be67" fill-rule="evenodd"/>
      <path id="Path_16515" data-name="Path 16515" d="M1076.424,542c.844,2.106-.178,3.813-2.282,3.813a5.25,5.25,0,0,1-2.512-.715,5.413,5.413,0,0,0,3.528,1.563c1.918,0,2.852-1.555,2.08-3.474a5.266,5.266,0,0,0-.968-1.531Q1076.352,541.821,1076.424,542Z" transform="translate(-1010.666 -355.764)" fill="#d19c49" fill-rule="evenodd"/>
      <path id="Path_16516" data-name="Path 16516" d="M1085.845,540.174a1.566,1.566,0,0,1-1.973.082c-.436-.446-.261-1.205.395-1.7a1.566,1.566,0,0,1,1.973-.082C1086.676,538.923,1086.5,539.683,1085.845,540.174Z" transform="translate(-1023.756 -353.475)" fill="#f9d8a4" fill-rule="evenodd"/>
      <path id="Path_16517" data-name="Path 16517" d="M1114.207,591.467a5.761,5.761,0,0,1-4.866-3.474c-.772-1.919.161-3.474,2.08-3.474a5.762,5.762,0,0,1,4.866,3.474C1117.059,589.912,1116.126,591.467,1114.207,591.467Z" transform="translate(-1062.565 -383.92)" fill="#e9525b" fill-rule="evenodd"/>
      <path id="Path_16518" data-name="Path 16518" d="M1113.864,590.527c.844,2.106-.178,3.813-2.282,3.813a5.253,5.253,0,0,1-2.512-.715,5.412,5.412,0,0,0,3.528,1.563c1.919,0,2.852-1.555,2.08-3.474a5.262,5.262,0,0,0-.968-1.531Q1113.792,590.353,1113.864,590.527Z" transform="translate(-1060.955 -387.641)" fill="#cb3e47" fill-rule="evenodd"/>
      <path id="Path_16519" data-name="Path 16519" d="M1123.285,588.706a1.565,1.565,0,0,1-1.973.082c-.436-.446-.261-1.206.394-1.7a1.566,1.566,0,0,1,1.974-.082C1124.115,587.455,1123.94,588.215,1123.285,588.706Z" transform="translate(-1074.045 -385.351)" fill="#e98086" fill-rule="evenodd"/>
      <path id="Path_16520" data-name="Path 16520" d="M670.4,144H825.522V251.074H670.4Zm1.373,1.373V249.7H824.149V145.373Z" transform="translate(-620.984 -94.581)" fill="#f0decf"/>
      <path id="Path_16521" data-name="Path 16521" d="M724.324,194.5v1.373H859.582V194.5Z" transform="translate(-673.55 -127.75)" fill="#f0decf"/>
      <path id="Path_16522" data-name="Path 16522" d="M958.789,221H840.047a16.645,16.645,0,1,0,0,33.289H958.789a16.645,16.645,0,1,0,0-33.289Z" transform="translate(-823.403 -145.156)" fill="#e9525b" fill-rule="evenodd"/>
      <path id="Path_16523" data-name="Path 16523" d="M879.789,338H761.047a16.644,16.644,0,1,0,0,33.289H879.789a16.644,16.644,0,1,0,0-33.289Z" transform="translate(-717.291 -222.003)" fill="#f6be67" fill-rule="evenodd"/>
      <path id="Path_16525" data-name="Path 16525" d="M845.3,229a13.9,13.9,0,1,1-13.9,13.9A13.9,13.9,0,0,1,845.3,229Zm0,1.373A12.526,12.526,0,1,0,857.828,242.9,12.526,12.526,0,0,0,845.3,230.373Z" transform="translate(-709.916 -150.41)" fill="#fff"/>
      <path id="Path_16526" data-name="Path 16526" d="M766.3,346a13.9,13.9,0,1,1-13.9,13.9A13.9,13.9,0,0,1,766.3,346Zm0,1.373A12.526,12.526,0,1,0,778.828,359.9,12.527,12.527,0,0,0,766.3,347.373Z" transform="translate(-603.805 -227.258)" fill="#fff"/>
      <path id="Path_16527" data-name="Path 16527" d="M773.4,371.668a11.493,11.493,0,0,0-10.129,6.054l-.074.139-.226.434.336.355a13.9,13.9,0,0,0,20.054.137l.131-.137.336-.355-.226-.434A11.493,11.493,0,0,0,773.4,371.668Zm0,1.373a10.118,10.118,0,0,1,8.6,4.783l.083.136.06.1-.028.028a12.478,12.478,0,0,1-8.347,3.525l-.187,0H773.4a12.48,12.48,0,0,1-8.588-3.407l-.158-.152.064-.109a10.12,10.12,0,0,1,8.359-4.907l.163,0Zm0-13.041a5.319,5.319,0,1,0,5.319,5.319A5.319,5.319,0,0,0,773.4,360Zm0,1.373a3.947,3.947,0,1,1-3.947,3.947A3.947,3.947,0,0,1,773.4,361.373Z" transform="translate(-611.059 -236.453)" fill="#fff"/>
      <path id="Path_16528" data-name="Path 16528" d="M851.944,254.668a11.494,11.494,0,0,0-10.129,6.054l-.073.139-.226.434.337.355a13.9,13.9,0,0,0,20.053.137l.131-.137.336-.355-.226-.434A11.493,11.493,0,0,0,851.944,254.668Zm0,1.373a10.118,10.118,0,0,1,8.6,4.783l.083.136.06.1-.029.028a12.477,12.477,0,0,1-8.347,3.525l-.186,0h-.183a12.482,12.482,0,0,1-8.588-3.407l-.129-.124-.028-.028.064-.109a10.119,10.119,0,0,1,8.359-4.907l.163,0Zm0-13.041a5.319,5.319,0,1,0,5.319,5.319A5.32,5.32,0,0,0,851.944,243Zm0,1.373A3.947,3.947,0,1,1,848,248.319,3.947,3.947,0,0,1,851.944,244.373Z" transform="translate(-716.558 -159.606)" fill="#fff"/>
      <path id="Path_16529" data-name="Path 16529" d="M933.208,238h66.234a4.8,4.8,0,0,1,0,9.609H933.208a4.8,4.8,0,0,1,0-9.609Zm66.234,1.373H933.208a3.432,3.432,0,0,0,0,6.864h66.234a3.432,3.432,0,1,0,0-6.864Z" transform="translate(-888.25 -156.322)" fill="#fff"/>
      <path id="Path_16530" data-name="Path 16530" d="M854.208,355h66.234a4.8,4.8,0,0,1,0,9.609H854.208a4.8,4.8,0,0,1,0-9.609Zm66.234,1.373H854.208a3.432,3.432,0,0,0,0,6.864h66.234a3.432,3.432,0,0,0,0-6.864Z" transform="translate(-782.139 -233.169)" fill="#fff"/>
      <path id="Path_16531" data-name="Path 16531" d="M850.089,397.5a.686.686,0,0,0-.052,1.371l.052,0h67.164a.686.686,0,0,0,.051-1.371l-.051,0Z" transform="translate(-774.832 -261.084)" fill="#fff"/>
      <path id="Path_16532" data-name="Path 16532" d="M850.089,413.5a.686.686,0,0,0-.052,1.371l.052,0h46.574a.686.686,0,0,0,.051-1.371l-.051,0Z" transform="translate(-754.242 -271.593)" fill="#fff"/>
      <path id="Path_16533" data-name="Path 16533" d="M929.089,280.5a.686.686,0,0,0-.052,1.371l.052,0h67.164a.686.686,0,0,0,.051-1.371l-.051,0Z" transform="translate(-880.944 -184.236)" fill="#fff"/>
      <path id="Path_16534" data-name="Path 16534" d="M929.089,296.5a.686.686,0,0,0-.052,1.371l.052,0h46.573a.686.686,0,0,0,.051-1.371l-.051,0Z" transform="translate(-860.353 -194.745)" fill="#fff"/>
      <path id="Path_16536" data-name="Path 16536" d="M696.987,88.777a6.349,6.349,0,1,1-6.349,6.349A6.349,6.349,0,0,1,696.987,88.777Zm0,1.373a4.976,4.976,0,1,0,4.976,4.976A4.976,4.976,0,0,0,696.987,90.15Z" transform="translate(-505.743 -58.31)" fill="#f0decf"/>
      <path id="Path_16537" data-name="Path 16537" d="M743.638,90.777h11.668v11.668H743.638Zm1.373,1.373v8.923h8.923V92.15Z" transform="translate(-575.902 -59.624)" fill="#f0decf"/>
      <path id="Path_16538" data-name="Path 16538" d="M795.588,120.777v1.373H810.2v-1.373Z" transform="translate(-648.625 -79.328)" fill="#f0decf"/>
    </g>
  </g>
</svg>
