<svg xmlns="http://www.w3.org/2000/svg" width="45" height="45" viewBox="0 0 45 45">
  <g id="Group_2721" data-name="Group 2721" transform="translate(-661 -25)">
    <g id="Rectangle_1320" data-name="Rectangle 1320" transform="translate(661 25)" fill="#fbfbfb" stroke="#00bcd4" stroke-width="1">
      <rect width="45" height="45" rx="15" stroke="none"/>
      <rect x="0.5" y="0.5" width="44" height="44" rx="14.5" fill="none"/>
    </g>
    <g id="menu" transform="translate(673 40)">
      <path id="Path_2238" data-name="Path 2238" d="M20.125,124.371H.875a.852.852,0,1,1,0-1.7h19.25a.852.852,0,1,1,0,1.7Zm0,0" transform="translate(0 -116.019)" fill="#ee5226"/>
      <path id="Path_2239" data-name="Path 2239" d="M20.125,1.7H.875A.864.864,0,0,1,0,.851.864.864,0,0,1,.875,0h19.25A.864.864,0,0,1,21,.851.864.864,0,0,1,20.125,1.7Zm0,0" fill="#ee5226"/>
      <path id="Path_2240" data-name="Path 2240" d="M20.125,247.035H.875a.852.852,0,1,1,0-1.7h19.25a.852.852,0,1,1,0,1.7Zm0,0" transform="translate(0 -232.035)" fill="#ee5226"/>
    </g>
  </g>
</svg>
