<svg xmlns="http://www.w3.org/2000/svg" width="45" height="45" viewBox="0 0 45 45">
  <g id="Group_2722" data-name="Group 2722" transform="translate(-16 -25)">
    <g id="Rectangle_3355" data-name="Rectangle 3355" transform="translate(16 25)" fill="#fbfbfb" stroke="#00bcd4" stroke-width="1">
      <rect width="45" height="45" rx="15" stroke="none"/>
      <rect x="0.5" y="0.5" width="44" height="44" rx="14.5" fill="none"/>
    </g>
    <path id="Path_2253" data-name="Path 2253" d="M15.843,31.423l-5.52,3.011a4.961,4.961,0,0,0-.886.63,18.488,18.488,0,0,0,23.755.061,4.9,4.9,0,0,0-.973-.652l-5.911-2.955A2.254,2.254,0,0,1,25.061,29.5V27.184a8.927,8.927,0,0,0,.559-.719,13.6,13.6,0,0,0,1.837-3.7A1.857,1.857,0,0,0,28.775,21V18.52a1.848,1.848,0,0,0-.619-1.372V13.57S28.891,8,21.35,8s-6.807,5.569-6.807,5.569v3.579a1.846,1.846,0,0,0-.619,1.372V21a1.856,1.856,0,0,0,.856,1.557,12.285,12.285,0,0,0,2.238,4.631v2.262A2.256,2.256,0,0,1,15.843,31.423Z" transform="translate(17.186 24.584)" fill="#ee5226"/>
  </g>
</svg>
