<svg xmlns="http://www.w3.org/2000/svg" width="44" height="44" viewBox="0 0 44 44">
  <g id="Group_5791" data-name="Group 5791" transform="translate(0.25)">
    <rect id="Rectangle_3979" data-name="Rectangle 3979" width="44" height="44" rx="11" transform="translate(43.75 44) rotate(180)" fill="#f6be67" opacity="0.2"/>
    <path id="star_6_" data-name="star (6)" d="M19.884,9.872a1.458,1.458,0,0,0-.808-2.486l-4.922-.715a.643.643,0,0,1-.484-.352l-2.2-4.459a1.458,1.458,0,0,0-2.614,0l-2.2,4.46a.644.644,0,0,1-.485.352l-4.922.715A1.458,1.458,0,0,0,.44,9.873L4,13.343a.644.644,0,0,1,.186.57l-.84,4.9A1.427,1.427,0,0,0,3.665,20a1.473,1.473,0,0,0,1.8.355l4.4-2.314a.659.659,0,0,1,.6,0l4.4,2.314a1.442,1.442,0,0,0,.678.17A1.462,1.462,0,0,0,16.66,20a1.426,1.426,0,0,0,.318-1.182l-.84-4.9a.644.644,0,0,1,.186-.57Z" transform="translate(12 10.953)" fill="#f6be67" opacity="0.8"/>
  </g>
</svg>
