<svg xmlns="http://www.w3.org/2000/svg" width="59.372" height="74.215" viewBox="0 0 59.372 74.215">
  <g id="User" transform="translate(-4 -2)">
    <path id="Path_16407" data-name="Path 16407" d="M25.292,7.709A12.369,12.369,0,1,0,37.74,20.078,12.409,12.409,0,0,0,25.292,7.709ZM7.1,20.078A18.2,18.2,0,1,1,25.292,38.156,18.137,18.137,0,0,1,7.1,20.078Z" transform="translate(8.395)" fill="#76c4d6" fill-rule="evenodd"/>
    <path id="Path_16408" data-name="Path 16408" d="M24.284,19.5A14.492,14.492,0,0,0,9.746,33.948a2.148,2.148,0,0,0,.158.887.4.4,0,0,0,.175.213c2.233,1.207,8.492,3.485,23.607,3.485s21.374-2.278,23.607-3.485a.4.4,0,0,0,.176-.213,2.146,2.146,0,0,0,.158-.887A14.492,14.492,0,0,0,43.088,19.5ZM4,33.948A20.219,20.219,0,0,1,24.284,13.795h18.8A20.219,20.219,0,0,1,63.372,33.948a6.719,6.719,0,0,1-3.333,6.114c-3.429,1.854-10.783,4.179-26.353,4.179S10.761,41.917,7.333,40.063A6.719,6.719,0,0,1,4,33.948Z" transform="translate(0 31.973)" fill="#76c4d6" fill-rule="evenodd"/>
  </g>
</svg>
